<?xml version="1.0" encoding="UTF-8"?>
<!DOCTYPE svg PUBLIC "-//W3C//DTD SVG 1.1//EN" "http://www.w3.org/Graphics/SVG/1.1/DTD/svg11.dtd">
<svg xmlns="http://www.w3.org/2000/svg" version="1.1" width="480px" height="420px" style="shape-rendering:geometricPrecision; text-rendering:geometricPrecision; image-rendering:optimizeQuality; fill-rule:evenodd; clip-rule:evenodd" xmlns:xlink="http://www.w3.org/1999/xlink">
<g><path style="opacity:0.997" fill="#dcd5f2" d="M 153.5,12.5 C 160.087,13.2953 166.754,13.7953 173.5,14C 174.632,18.4132 174.799,22.9132 174,27.5C 168.917,28.3071 163.75,28.8071 158.5,29C 157.034,29.6355 155.7,30.4688 154.5,31.5C 152.991,29.5761 150.991,28.4094 148.5,28C 147.368,23.5868 147.201,19.0868 148,14.5C 149.948,13.8906 151.782,13.224 153.5,12.5 Z"/></g>
<g><path style="opacity:1" fill="#7d6ad2" d="M 153.5,19.5 C 154.5,19.5 155.5,19.5 156.5,19.5C 156.5,20.5 156.5,21.5 156.5,22.5C 155.5,22.5 154.5,22.5 153.5,22.5C 153.5,21.5 153.5,20.5 153.5,19.5 Z"/></g>
<g><path style="opacity:1" fill="#7a68d1" d="M 159.5,19.5 C 160.5,19.5 161.5,19.5 162.5,19.5C 162.5,20.5 162.5,21.5 162.5,22.5C 161.5,22.5 160.5,22.5 159.5,22.5C 159.5,21.5 159.5,20.5 159.5,19.5 Z"/></g>
<g><path style="opacity:1" fill="#7f6dd3" d="M 165.5,19.5 C 166.5,19.5 167.5,19.5 168.5,19.5C 168.5,20.5 168.5,21.5 168.5,22.5C 167.5,22.5 166.5,22.5 165.5,22.5C 165.5,21.5 165.5,20.5 165.5,19.5 Z"/></g>
<g><path style="opacity:1" fill="#131213" d="M 137.5,63.5 C 134.652,64.0647 131.819,64.3981 129,64.5C 127.153,70.5532 125.653,76.5532 124.5,82.5C 123.225,78.675 123.225,74.8417 124.5,71C 122.512,68.1561 121.179,64.9894 120.5,61.5C 120.986,59.0483 120.986,56.3817 120.5,53.5C 119.89,52.609 119.557,51.609 119.5,50.5C 118.448,48.744 116.781,48.0773 114.5,48.5C 113.334,45.7674 114.334,43.9341 117.5,43C 123.231,40.4792 128.064,41.6459 132,46.5C 132.743,49.5112 134.076,52.1779 136,54.5C 136.212,57.2522 137.045,59.7522 138.5,62C 138.43,62.7648 138.097,63.2648 137.5,63.5 Z"/></g>
<g><path style="opacity:1" fill="#e7bc6d" d="M 348.5,71.5 C 349.605,70.3995 350.938,69.7329 352.5,69.5C 354.716,70.2026 356.549,71.5359 358,73.5C 360.694,78.9012 361.694,84.5679 361,90.5C 359.974,93.2387 358.474,95.572 356.5,97.5C 354.181,97.9925 352.181,98.9925 350.5,100.5C 334.5,100.5 318.5,100.5 302.5,100.5C 303.808,99.7677 305.142,98.9344 306.5,98C 306.167,97.6667 305.833,97.3333 305.5,97C 300.437,96.7521 295.437,96.0855 290.5,95C 287.251,92.7657 285.251,89.7657 284.5,86C 285.61,82.0031 287.11,78.1698 289,74.5C 289.739,73.4258 290.739,72.7591 292,72.5C 295.799,75.9702 299.299,79.8035 302.5,84C 306.532,86.3083 308.032,85.1417 307,80.5C 302.382,77.5496 298.048,74.2162 294,70.5C 292.596,68.3611 291.763,66.0278 291.5,63.5C 294.454,57.3819 297.62,51.3819 301,45.5C 302.648,46.717 304.481,47.5503 306.5,48C 316.945,46.4724 322.612,50.8057 323.5,61C 323.314,65.0785 322.647,69.0785 321.5,73C 322.535,77.9607 324.368,78.4607 327,74.5C 327.433,69.5904 326.933,64.7571 325.5,60C 325.645,59.228 325.978,58.5613 326.5,58C 332.38,57.6838 337.546,59.5172 342,63.5C 343.483,66.7024 343.817,70.0357 343,73.5C 340.705,76.7974 338.038,79.7974 335,82.5C 334.219,83.9437 334.386,85.277 335.5,86.5C 341.666,83.0064 345.999,78.0064 348.5,71.5 Z"/></g>
<g><path style="opacity:0.671" fill="#f2dec3" d="M 270.5,39.5 C 274.049,39.4392 277.382,40.2725 280.5,42C 281.093,45.0506 282.427,47.7172 284.5,50C 282.515,52.2844 281.182,54.9511 280.5,58C 277.819,58.4577 275.319,59.291 273,60.5C 270.681,59.291 268.181,58.4577 265.5,58C 264.908,54.9683 263.574,52.3016 261.5,50C 263.562,47.9324 264.728,45.4324 265,42.5C 267.058,41.7709 268.891,40.7709 270.5,39.5 Z M 272.5,41.5 C 274.558,42.9331 276.892,43.5997 279.5,43.5C 279.724,45.7867 280.391,47.9534 281.5,50C 280.391,52.0466 279.724,54.2133 279.5,56.5C 277.173,56.2471 275.173,56.9137 273.5,58.5C 263.321,53.325 262.988,47.6583 272.5,41.5 Z M 271.5,46.5 C 277.076,47.5554 277.743,49.8888 273.5,53.5C 269.437,51.8632 268.771,49.5299 271.5,46.5 Z"/></g>
<g><path style="opacity:0.776" fill="#f3e1ca" d="M 270.5,44.5 C 278.818,44.9869 280.485,48.4869 275.5,55C 267.088,54.8117 265.421,51.3117 270.5,44.5 Z M 271.5,46.5 C 268.771,49.5299 269.437,51.8632 273.5,53.5C 277.743,49.8888 277.076,47.5554 271.5,46.5 Z"/></g>
<g><path style="opacity:1" fill="#4a2d9a" d="M 119.5,50.5 C 119.557,51.609 119.89,52.609 120.5,53.5C 119.206,54.2899 118.039,55.2899 117,56.5C 115.413,53.8173 116.247,51.8173 119.5,50.5 Z"/></g>
<g><path style="opacity:0.49" fill="#e1ebf8" d="M 388.5,68.5 C 383.82,68.1188 379.486,69.1188 375.5,71.5C 379.539,65.5733 379.205,59.74 374.5,54C 367.919,50.0509 362.086,50.8842 357,56.5C 355.734,60.6437 353.901,64.4771 351.5,68C 352.056,68.3826 352.389,68.8826 352.5,69.5C 350.938,69.7329 349.605,70.3995 348.5,71.5C 350.965,65.8961 353.465,60.2294 356,54.5C 362.397,48.4306 369.231,47.9306 376.5,53C 379.56,57.3483 380.893,62.1816 380.5,67.5C 383.385,67.1936 386.052,67.5269 388.5,68.5 Z"/></g>
<g><path style="opacity:0.987" fill="#d3bbad" d="M 114.5,48.5 C 116.781,48.0773 118.448,48.744 119.5,50.5C 116.247,51.8173 115.413,53.8173 117,56.5C 118.039,55.2899 119.206,54.2899 120.5,53.5C 120.986,56.3817 120.986,59.0483 120.5,61.5C 119.395,62.6005 118.062,63.2671 116.5,63.5C 117.666,61.834 117.666,60.1673 116.5,58.5C 115.712,59.7701 114.712,60.7701 113.5,61.5C 112.295,60.3143 110.961,60.3143 109.5,61.5C 110.33,59.1764 111.663,57.1764 113.5,55.5C 114.474,53.2573 114.808,50.924 114.5,48.5 Z"/></g>
<g><path style="opacity:1" fill="#e5ba6e" d="M 113.5,61.5 C 113.351,62.552 113.517,63.552 114,64.5C 114.671,63.7476 115.504,63.4142 116.5,63.5C 118.062,63.2671 119.395,62.6005 120.5,61.5C 121.179,64.9894 122.512,68.1561 124.5,71C 123.225,74.8417 123.225,78.675 124.5,82.5C 123.654,87.8947 122.488,93.2281 121,98.5C 119.599,100.192 117.766,100.859 115.5,100.5C 108.792,98.7698 106.125,94.4365 107.5,87.5C 107.953,86.5416 108.619,85.7083 109.5,85C 107.575,85.1349 105.575,85.3016 103.5,85.5C 102.399,76.5687 104.399,68.5687 109.5,61.5C 110.961,60.3143 112.295,60.3143 113.5,61.5 Z"/></g>
<g><path style="opacity:1" fill="#44269a" d="M 137.5,63.5 C 140.706,65.1609 144.039,66.8276 147.5,68.5C 147.795,70.4233 148.628,72.0899 150,73.5C 150.498,76.4816 150.665,79.4816 150.5,82.5C 149.089,84.914 147.089,86.5806 144.5,87.5C 139.833,87.5 135.167,87.5 130.5,87.5C 129.883,87.6107 129.383,87.944 129,88.5C 128.165,92.1788 127.332,95.8454 126.5,99.5C 135.475,100.498 144.475,100.832 153.5,100.5C 154.151,99.9094 154.818,99.2427 155.5,98.5C 156.182,99.2427 156.849,99.9094 157.5,100.5C 161.833,100.5 166.167,100.5 170.5,100.5C 171.5,99.1667 172.5,99.1667 173.5,100.5C 208.833,100.5 244.167,100.5 279.5,100.5C 284.833,100.5 290.167,100.5 295.5,100.5C 297.833,100.5 300.167,100.5 302.5,100.5C 318.5,100.5 334.5,100.5 350.5,100.5C 360.167,100.5 369.833,100.5 379.5,100.5C 381.933,100.273 383.599,101.273 384.5,103.5C 385.464,123.133 385.797,142.8 385.5,162.5C 382.215,162.072 379.215,161.072 376.5,159.5C 376.5,142.833 376.5,126.167 376.5,109.5C 281.5,109.5 186.5,109.5 91.5,109.5C 91.1676,171.669 91.5009,233.669 92.5,295.5C 99.9818,296.492 107.648,296.825 115.5,296.5C 115.232,299.119 115.565,301.619 116.5,304C 105.839,304.5 95.1719,304.667 84.5,304.5C 83.0937,304.027 82.427,303.027 82.5,301.5C 82.5,235.833 82.5,170.167 82.5,104.5C 82.7376,102.596 83.7376,101.262 85.5,100.5C 95.5,100.5 105.5,100.5 115.5,100.5C 117.766,100.859 119.599,100.192 121,98.5C 122.488,93.2281 123.654,87.8947 124.5,82.5C 125.653,76.5532 127.153,70.5532 129,64.5C 131.819,64.3981 134.652,64.0647 137.5,63.5 Z M 134.5,82.5 C 135.728,80.9902 135.728,79.4902 134.5,78C 135.967,75.6215 136.967,73.1215 137.5,70.5C 144.073,70.2785 146.573,73.6118 145,80.5C 141.796,84.3234 138.296,84.99 134.5,82.5 Z"/></g>
<g><path style="opacity:1" fill="#bcd5f7" d="M 75.5,95.5 C 74.9819,105.826 74.6486,116.159 74.5,126.5C 72.66,128.168 70.66,129.668 68.5,131C 69.5,131.167 70.5,131.333 71.5,131.5C 73.3381,130.888 75.0047,130.888 76.5,131.5C 77.4519,129.955 77.7852,128.288 77.5,126.5C 80.0397,119.249 81.7064,111.916 82.5,104.5C 82.5,170.167 82.5,235.833 82.5,301.5C 81.5052,290.346 81.1719,279.012 81.5,267.5C 81.5,257.833 81.5,248.167 81.5,238.5C 81.5,223.167 81.5,207.833 81.5,192.5C 81.5,183.167 81.5,173.833 81.5,164.5C 80.1779,164.67 79.0113,164.337 78,163.5C 76.204,160.073 74.0373,156.906 71.5,154C 67.2658,153.185 63.4325,154.018 60,156.5C 59.8275,160.871 59.3275,165.204 58.5,169.5C 54.5,172.167 50.5,174.833 46.5,177.5C 44.1237,175.756 41.457,174.756 38.5,174.5C 36.8267,173.657 35.66,172.324 35,170.5C 32.1985,158.953 36.1985,150.953 47,146.5C 48.4217,143.97 48.755,141.303 48,138.5C 46.874,137.056 45.374,136.39 43.5,136.5C 28.1344,140.468 22.4677,134.801 26.5,119.5C 26.3918,118.558 26.0585,117.725 25.5,117C 22.5056,116.594 20.339,115.094 19,112.5C 17.5597,106.805 18.7264,101.805 22.5,97.5C 26.6299,96.3762 30.6299,95.0429 34.5,93.5C 36.235,90.8705 36.5684,88.2039 35.5,85.5C 38.5081,71.4834 47.1747,65.6501 61.5,68C 66.0552,70.0493 68.3885,73.5493 68.5,78.5C 67.2371,82.7718 66.7371,87.1051 67,91.5C 69.1052,94.3019 71.9386,95.6352 75.5,95.5 Z"/></g>
<g><path style="opacity:0.997" fill="#c1d7f5" d="M 388.5,68.5 C 394.505,69.8427 399.839,72.5094 404.5,76.5C 400.578,80.9319 398.911,85.9319 399.5,91.5C 398.504,91.4142 397.671,91.7476 397,92.5C 396.833,91.8333 396.667,91.1667 396.5,90.5C 397.515,86.8689 397.681,83.2022 397,79.5C 393.617,78.4812 391.283,79.8146 390,83.5C 389.333,87.5 389.333,91.5 390,95.5C 390.5,96 391,96.5 391.5,97C 390.177,97.8159 389.511,98.9826 389.5,100.5C 387.98,96.7331 386.48,92.7331 385,88.5C 382.999,83.8109 380.666,83.4776 378,87.5C 377.151,92.0265 377.651,96.3598 379.5,100.5C 369.833,100.5 360.167,100.5 350.5,100.5C 352.181,98.9925 354.181,97.9925 356.5,97.5C 356.842,98.3382 357.508,98.6716 358.5,98.5C 362.247,98.6076 365.914,98.1076 369.5,97C 371.838,94.4583 372.172,91.6249 370.5,88.5C 371.966,89.347 372.8,90.6803 373,92.5C 373.559,88.0952 372.725,83.9286 370.5,80C 371.04,76.4087 372.706,73.5754 375.5,71.5C 379.486,69.1188 383.82,68.1188 388.5,68.5 Z"/></g>
<g><path style="opacity:1" fill="#1e1d20" d="M 137.5,70.5 C 136.967,73.1215 135.967,75.6215 134.5,78C 135.728,79.4902 135.728,80.9902 134.5,82.5C 133.292,83.2341 131.959,83.5674 130.5,83.5C 131.329,78.8462 132.163,74.1796 133,69.5C 134.915,68.0844 136.415,68.4178 137.5,70.5 Z"/></g>
<g><path style="opacity:1" fill="#dea763" d="M 407.5,84.5 C 407.167,84.5 406.833,84.5 406.5,84.5C 405.733,85.172 405.066,86.0053 404.5,87C 405.582,88.3297 406.249,89.8297 406.5,91.5C 405.265,91.2786 404.265,90.6119 403.5,89.5C 402.476,90.8532 401.143,91.5198 399.5,91.5C 398.911,85.9319 400.578,80.9319 404.5,76.5C 405.542,75.2089 406.708,75.2089 408,76.5C 408.43,79.1922 408.263,81.8589 407.5,84.5 Z"/></g>
<g><path style="opacity:0.729" fill="#836ebb" d="M 168.5,77.5 C 167.351,77.7911 166.684,78.6244 166.5,80C 167.077,82.137 167.41,84.3037 167.5,86.5C 166.5,86.5 165.5,86.5 164.5,86.5C 164.918,85.7784 165.584,85.2784 166.5,85C 165.556,82.2809 165.223,79.4475 165.5,76.5C 166.791,76.2627 167.791,76.596 168.5,77.5 Z"/></g>
<g><path style="opacity:1" fill="#d8a05b" d="M 399.5,91.5 C 396.192,94.4715 392.859,97.4715 389.5,100.5C 389.511,98.9826 390.177,97.8159 391.5,97C 391,96.5 390.5,96 390,95.5C 389.333,91.5 389.333,87.5 390,83.5C 391.283,79.8146 393.617,78.4812 397,79.5C 397.681,83.2022 397.515,86.8689 396.5,90.5C 396.667,91.1667 396.833,91.8333 397,92.5C 397.671,91.7476 398.504,91.4142 399.5,91.5 Z"/></g>
<g><path style="opacity:0.41" fill="#f4f4f6" d="M 235.5,55.5 C 238.063,56.1999 240.563,57.1999 243,58.5C 248.327,56.261 251.327,57.9277 252,63.5C 253.441,64.87 255.108,65.87 257,66.5C 257.271,69.5984 256.438,72.4317 254.5,75C 257.505,80.214 255.839,83.0473 249.5,83.5C 248.299,85.9095 246.633,87.9095 244.5,89.5C 240.593,86.4186 236.26,85.5853 231.5,87C 230.475,84.9285 229.642,82.7619 229,80.5C 226.421,79.6314 224.588,77.9648 223.5,75.5C 224.145,74.354 224.978,73.354 226,72.5C 226.128,69.4856 226.128,66.4856 226,63.5C 231.152,63.1806 234.319,60.514 235.5,55.5 Z M 236.5,59.5 C 240.163,60.2663 243.829,61.0997 247.5,62C 249.126,64.6277 251.126,66.961 253.5,69C 252.039,72.1108 251.706,75.2774 252.5,78.5C 249.149,80.197 245.816,81.8636 242.5,83.5C 239.855,82.8924 237.188,82.3924 234.5,82C 232.851,79.3519 230.851,77.0186 228.5,75C 229.204,71.8725 229.704,68.7058 230,65.5C 232.832,64.038 234.999,62.038 236.5,59.5 Z M 239.5,68.5 C 243.985,69.9654 244.485,72.2987 241,75.5C 237.056,73.8449 236.556,71.5116 239.5,68.5 Z"/></g>
<g><path style="opacity:0.596" fill="#f5f4f5" d="M 236.5,66.5 C 241.882,65.2552 245.549,67.0885 247.5,72C 245.503,78.4219 241.669,80.2553 236,77.5C 233.965,73.7186 234.132,70.0519 236.5,66.5 Z M 239.5,68.5 C 236.556,71.5116 237.056,73.8449 241,75.5C 244.485,72.2987 243.985,69.9654 239.5,68.5 Z"/></g>
<g><path style="opacity:1" fill="#e3ae6d" d="M 415.5,86.5 C 412.531,87.3287 409.531,87.4954 406.5,87C 407.056,86.6174 407.389,86.1174 407.5,85.5C 407.5,85.1667 407.5,84.8333 407.5,84.5C 409.974,82.5143 412.807,81.1809 416,80.5C 420.552,82.7144 420.385,84.7144 415.5,86.5 Z"/></g>
<g><path style="opacity:1" fill="#d89d56" d="M 389.5,100.5 C 388.836,102.487 387.669,104.154 386,105.5C 385.722,104.584 385.222,103.918 384.5,103.5C 383.599,101.273 381.933,100.273 379.5,100.5C 377.651,96.3598 377.151,92.0265 378,87.5C 380.666,83.4776 382.999,83.8109 385,88.5C 386.48,92.7331 387.98,96.7331 389.5,100.5 Z"/></g>
<g><path style="opacity:0.997" fill="#d1b4a5" d="M 85.5,86.5 C 85.5,91.1667 85.5,95.8333 85.5,100.5C 83.7376,101.262 82.7376,102.596 82.5,104.5C 81.7064,111.916 80.0397,119.249 77.5,126.5C 76.5,126.5 75.5,126.5 74.5,126.5C 74.6486,116.159 74.9819,105.826 75.5,95.5C 74.8191,88.272 78.1525,85.272 85.5,86.5 Z"/></g>
<g><path style="opacity:1" fill="#6c55cc" d="M 107.5,87.5 C 106.125,94.4365 108.792,98.7698 115.5,100.5C 105.5,100.5 95.5,100.5 85.5,100.5C 85.5,95.8333 85.5,91.1667 85.5,86.5C 92.7546,85.2841 100.088,85.6174 107.5,87.5 Z"/></g>
<g><path style="opacity:0.949" fill="#7763ad" d="M 130.5,87.5 C 135.167,87.5 139.833,87.5 144.5,87.5C 142.444,88.2161 140.277,88.8828 138,89.5C 136,88.1667 134,88.1667 132,89.5C 131.283,88.9558 130.783,88.2891 130.5,87.5 Z"/></g>
<g><path style="opacity:1" fill="#e8c07a" d="M 370.5,88.5 C 372.172,91.6249 371.838,94.4583 369.5,97C 365.914,98.1076 362.247,98.6076 358.5,98.5C 361.336,94.8227 364.003,90.9893 366.5,87C 368.352,86.2274 369.686,86.7274 370.5,88.5 Z"/></g>
<g><path style="opacity:0.048" fill="#f4e4d1" d="M 406.5,84.5 C 406.5,85.1667 406.833,85.5 407.5,85.5C 407.389,86.1174 407.056,86.6174 406.5,87C 409.531,87.4954 412.531,87.3287 415.5,86.5C 415.5,86.8333 415.5,87.1667 415.5,87.5C 414.839,88.7175 414.172,90.0508 413.5,91.5C 411.273,90.9475 408.939,90.9475 406.5,91.5C 406.249,89.8297 405.582,88.3297 404.5,87C 405.066,86.0053 405.733,85.172 406.5,84.5 Z"/></g>
<g><path style="opacity:0.569" fill="#efd3af" d="M 415.5,87.5 C 416.5,87.5 417.5,87.5 418.5,87.5C 418.5,88.5 418.5,89.5 418.5,90.5C 417.5,90.5 416.5,90.5 415.5,90.5C 415.5,89.5 415.5,88.5 415.5,87.5 Z"/></g>
<g><path style="opacity:0.749" fill="#f1d8b7" d="M 420.5,87.5 C 422.086,88.4132 423.586,88.4132 425,87.5C 426.578,88.7113 426.745,90.0446 425.5,91.5C 423.902,89.0266 422.402,89.0266 421,91.5C 419.232,90.3181 419.065,88.9848 420.5,87.5 Z"/></g>
<g><path style="opacity:0.62" fill="#efd4b0" d="M 428.5,88.5 C 430.048,88.8212 430.715,89.8212 430.5,91.5C 427.752,91.5983 427.086,90.5983 428.5,88.5 Z"/></g>
<g><path style="opacity:0.999" fill="#bed8f8" d="M 406.5,91.5 C 406.751,93.1703 407.418,94.6703 408.5,96C 421.441,96.5955 426.274,103.095 423,115.5C 420.949,117.524 418.616,119.19 416,120.5C 417.204,125.363 417.537,130.363 417,135.5C 416.215,137.286 415.049,138.786 413.5,140C 416.036,140.186 418.369,140.686 420.5,141.5C 416.441,141.434 412.441,141.267 408.5,141C 409.38,142.356 409.714,143.856 409.5,145.5C 408.636,144.312 407.636,143.145 406.5,142C 403.266,141.289 400.099,140.455 397,139.5C 391.047,143.972 391.214,148.472 397.5,153C 403.272,155.004 406.272,159.171 406.5,165.5C 403.655,166.344 400.655,167.01 397.5,167.5C 393.111,166.597 389.111,164.931 385.5,162.5C 385.797,142.8 385.464,123.133 384.5,103.5C 385.222,103.918 385.722,104.584 386,105.5C 387.669,104.154 388.836,102.487 389.5,100.5C 392.859,97.4715 396.192,94.4715 399.5,91.5C 401.143,91.5198 402.476,90.8532 403.5,89.5C 404.265,90.6119 405.265,91.2786 406.5,91.5 Z"/></g>
<g><path style="opacity:0.635" fill="#e9c89a" d="M 432.5,89.5 C 434.625,90.3676 434.791,91.3676 433,92.5C 431.317,91.8235 431.15,90.8235 432.5,89.5 Z"/></g>
<g><path style="opacity:0.525" fill="#edcea3" d="M 435.5,91.5 C 438.674,91.9522 439.007,92.9522 436.5,94.5C 435.614,93.675 435.281,92.675 435.5,91.5 Z"/></g>
<g><path style="opacity:0.999" fill="#6449aa" d="M 147.5,68.5 C 150.917,70.8913 152.25,74.2246 151.5,78.5C 152.5,78.5 153.5,78.5 154.5,78.5C 154.704,81.5176 155.037,84.5176 155.5,87.5C 158.455,86.8413 161.455,86.5079 164.5,86.5C 165.5,86.5 166.5,86.5 167.5,86.5C 167.41,84.3037 167.077,82.137 166.5,80C 166.684,78.6244 167.351,77.7911 168.5,77.5C 169.438,82.1272 170.271,86.7939 171,91.5C 172.375,89.0632 172.875,86.3965 172.5,83.5C 178.054,82.6696 182.054,84.6696 184.5,89.5C 182.727,94.0195 179.393,95.6862 174.5,94.5C 174.167,96.5 173.833,98.5 173.5,100.5C 172.5,99.1667 171.5,99.1667 170.5,100.5C 168.267,96.8685 166.767,92.8685 166,88.5C 163.204,89.2113 160.37,89.878 157.5,90.5C 156.808,93.7697 156.808,97.103 157.5,100.5C 156.849,99.9094 156.182,99.2427 155.5,98.5C 154.818,99.2427 154.151,99.9094 153.5,100.5C 153.229,94.2496 152.229,88.2496 150.5,82.5C 150.665,79.4816 150.498,76.4816 150,73.5C 148.628,72.0899 147.795,70.4233 147.5,68.5 Z M 170.5,100.5 C 166.167,100.5 161.833,100.5 157.5,100.5C 156.808,97.103 156.808,93.7697 157.5,90.5C 160.37,89.878 163.204,89.2113 166,88.5C 166.767,92.8685 168.267,96.8685 170.5,100.5 Z M 175.5,86.5 C 180.53,86.309 181.863,88.1423 179.5,92C 177.866,92.4935 176.199,92.6602 174.5,92.5C 174.833,90.5 175.167,88.5 175.5,86.5 Z"/></g>
<g><path style="opacity:0.851" fill="#eccea3" d="M 442.5,95.5 C 441.833,95.5 441.5,95.8333 441.5,96.5C 439.535,96.0517 439.202,95.0517 440.5,93.5C 441.522,93.8555 442.189,94.5222 442.5,95.5 Z"/></g>
<g><path style="opacity:0.812" fill="#efd7b6" d="M 442.5,95.5 C 445.957,95.6672 446.29,96.6672 443.5,98.5C 442.478,98.1445 441.811,97.4778 441.5,96.5C 442.167,96.5 442.5,96.1667 442.5,95.5 Z"/></g>
<g><path style="opacity:1" fill="#eac99f" d="M 448.5,100.5 C 447.833,100.5 447.5,100.833 447.5,101.5C 445.148,100.457 444.981,99.1241 447,97.5C 448.039,98.2438 448.539,99.2438 448.5,100.5 Z"/></g>
<g><path style="opacity:1" fill="#e1be8d" d="M 295.5,100.5 C 290.167,100.5 284.833,100.5 279.5,100.5C 281.287,98.8586 283.454,97.8586 286,97.5C 289.37,98.2362 292.536,99.2362 295.5,100.5 Z"/></g>
<g><path style="opacity:0.949" fill="#f0d7b6" d="M 448.5,100.5 C 450.5,100.5 451.5,101.5 451.5,103.5C 449.62,103.771 448.287,103.104 447.5,101.5C 448.167,101.5 448.5,101.167 448.5,100.5 Z"/></g>
<g><path style="opacity:0.694" fill="#e9c494" d="M 451.5,103.5 C 453.625,104.368 453.791,105.368 452,106.5C 450.317,105.824 450.15,104.824 451.5,103.5 Z"/></g>
<g><path style="opacity:1" fill="#7864bf" d="M 376.5,159.5 C 376.167,159.5 375.833,159.5 375.5,159.5C 375.5,143.167 375.5,126.833 375.5,110.5C 281.167,110.5 186.833,110.5 92.5,110.5C 92.5,172.167 92.5,233.833 92.5,295.5C 91.5009,233.669 91.1676,171.669 91.5,109.5C 186.5,109.5 281.5,109.5 376.5,109.5C 376.5,126.167 376.5,142.833 376.5,159.5 Z"/></g>
<g><path style="opacity:0.106" fill="#f0d7b5" d="M 452.5,107.5 C 456.31,108.754 456.31,109.754 452.5,110.5C 452.5,109.5 452.5,108.5 452.5,107.5 Z"/></g>
<g><path style="opacity:1" fill="#b4ade9" d="M 375.5,159.5 C 372.428,158.15 369.428,156.817 366.5,155.5C 366.5,147.833 366.5,140.167 366.5,132.5C 338.833,132.5 311.167,132.5 283.5,132.5C 282.167,160.167 282.167,187.833 283.5,215.5C 311.167,215.5 338.833,215.5 366.5,215.5C 366.5,200.5 366.5,185.5 366.5,170.5C 370.145,172.168 373.812,173.501 377.5,174.5C 375.506,214.486 374.839,254.82 375.5,295.5C 372.167,295.5 368.833,295.5 365.5,295.5C 365.5,294.5 365.5,293.5 365.5,292.5C 366.498,269.006 366.831,245.339 366.5,221.5C 308.331,221.168 250.331,221.501 192.5,222.5C 192.5,243.833 192.5,265.167 192.5,286.5C 207.167,286.5 221.833,286.5 236.5,286.5C 237.167,286.5 237.833,286.5 238.5,286.5C 238.833,286.5 239.167,286.5 239.5,286.5C 239.368,289.57 239.701,292.57 240.5,295.5C 205.5,295.5 170.5,295.5 135.5,295.5C 135.5,292.167 135.5,288.833 135.5,285.5C 153.501,285.501 170.167,285.501 185.5,285.5C 185.5,280.5 185.5,275.5 185.5,270.5C 168.447,269.224 151.447,269.224 134.5,270.5C 133.475,267.026 132.808,263.36 132.5,259.5C 133.404,260.209 133.737,261.209 133.5,262.5C 150.833,262.5 168.167,262.5 185.5,262.5C 185.5,258.5 185.5,254.5 185.5,250.5C 185.335,247.15 185.502,243.817 186,240.5C 187.48,235.898 188.646,231.231 189.5,226.5C 190.68,222.783 192.013,219.116 193.5,215.5C 220.833,215.5 248.167,215.5 275.5,215.5C 275.5,214.167 275.5,212.833 275.5,211.5C 275.413,205.472 275.413,199.472 275.5,193.5C 275.5,173.167 275.5,152.833 275.5,132.5C 247.833,132.5 220.167,132.5 192.5,132.5C 192.5,151.167 192.5,169.833 192.5,188.5C 190.05,188.702 187.717,188.369 185.5,187.5C 185.5,169.167 185.5,150.833 185.5,132.5C 157.167,132.5 128.833,132.5 100.5,132.5C 99.8546,161.059 100.521,189.392 102.5,217.5C 101.167,220.833 101.167,224.167 102.5,227.5C 101.359,230.64 101.192,233.973 102,237.5C 103.011,238.337 104.178,238.67 105.5,238.5C 106.87,240.707 106.203,242.374 103.5,243.5C 109.808,245.503 114.808,243.836 118.5,238.5C 118.5,240.833 118.5,243.167 118.5,245.5C 112.5,245.5 106.5,245.5 100.5,245.5C 100.5,251.167 100.5,256.833 100.5,262.5C 105.167,262.5 109.833,262.5 114.5,262.5C 113.631,264.717 113.298,267.05 113.5,269.5C 109.167,269.5 104.833,269.5 100.5,269.5C 100.5,275.167 100.5,280.833 100.5,286.5C 105.5,286.5 110.5,286.5 115.5,286.5C 115.5,285.5 115.5,284.5 115.5,283.5C 115.5,282.833 115.5,282.167 115.5,281.5C 116.823,285.9 116.823,290.4 115.5,295C 107.841,295.5 100.174,295.666 92.5,295.5C 92.5,233.833 92.5,172.167 92.5,110.5C 186.833,110.5 281.167,110.5 375.5,110.5C 375.5,126.833 375.5,143.167 375.5,159.5 Z M 232.5,181.5 C 235.23,186.564 239.23,190.231 244.5,192.5C 250.961,189.714 254.627,191.714 255.5,198.5C 253.473,198.662 251.473,198.495 249.5,198C 247.223,196.041 244.723,194.541 242,193.5C 235.444,195.13 228.944,196.963 222.5,199C 219.837,205.085 216.17,205.919 211.5,201.5C 210.847,200.193 210.18,198.86 209.5,197.5C 215.988,196.833 222.321,196.167 228.5,195.5C 229.566,190.634 230.899,185.967 232.5,181.5 Z M 275.5,193.5 C 275.413,199.472 275.413,205.472 275.5,211.5C 274.596,212.209 274.263,213.209 274.5,214.5C 268.412,214.325 267.079,211.658 270.5,206.5C 268.167,203.833 265.833,201.167 263.5,198.5C 264.947,197.065 266.614,196.065 268.5,195.5C 270.176,194.817 270.843,193.483 270.5,191.5C 271.479,190.235 272.479,188.901 273.5,187.5C 274.169,189.631 274.835,191.631 275.5,193.5 Z M 142.5,203.5 C 142.991,211.719 141.324,219.385 137.5,226.5C 134.613,229.052 131.28,230.718 127.5,231.5C 127.389,230.883 127.056,230.383 126.5,230C 128.782,227.603 130.116,224.769 130.5,221.5C 131.406,217.322 132.24,212.988 133,208.5C 135.749,205.977 138.916,204.311 142.5,203.5 Z M 189.5,226.5 C 188.646,231.231 187.48,235.898 186,240.5C 185.502,243.817 185.335,247.15 185.5,250.5C 182.257,251.58 178.924,251.747 175.5,251C 167.387,249.139 159.387,246.972 151.5,244.5C 146.053,242.723 140.386,241.39 134.5,240.5C 137.755,236.905 141.088,233.238 144.5,229.5C 146.173,228.657 147.34,227.324 148,225.5C 147.711,221.793 147.878,218.126 148.5,214.5C 150.111,215.32 150.778,216.654 150.5,218.5C 153.32,218.752 155.986,218.252 158.5,217C 163.031,211.492 168.531,207.325 175,204.5C 177.515,205.115 179.848,206.115 182,207.5C 185.014,213.722 187.514,220.056 189.5,226.5 Z M 223.5,222.5 C 270.833,222.5 318.167,222.5 365.5,222.5C 365.83,238.342 365.496,254.009 364.5,269.5C 364.482,266.079 363.149,263.412 360.5,261.5C 359.64,258.64 359.974,255.806 361.5,253C 359.358,244.789 357.692,236.623 356.5,228.5C 322.307,227.985 287.974,226.985 253.5,225.5C 242.894,227.315 232.227,227.815 221.5,227C 221.043,226.586 220.709,226.086 220.5,225.5C 221.34,224.265 222.34,223.265 223.5,222.5 Z M 102.5,227.5 C 105.071,230.907 106.071,234.574 105.5,238.5C 104.178,238.67 103.011,238.337 102,237.5C 101.192,233.973 101.359,230.64 102.5,227.5 Z M 334.5,238.5 C 334.5,240.833 334.5,243.167 334.5,245.5C 334.5,245.833 334.5,246.167 334.5,246.5C 319.5,246.5 304.5,246.5 289.5,246.5C 282.011,245.671 274.344,245.171 266.5,245C 268.208,242.957 270.208,241.29 272.5,240C 293.14,238.644 313.807,238.144 334.5,238.5 Z M 246.5,240.5 C 246.5,241.167 246.833,241.5 247.5,241.5C 247.5,242.167 247.5,242.833 247.5,243.5C 247.5,244.5 247.5,245.5 247.5,246.5C 246.167,246.5 244.833,246.5 243.5,246.5C 237.842,245.955 232.175,245.121 226.5,244C 230.395,240.387 234.895,239.554 240,241.5C 242.223,240.217 244.39,239.883 246.5,240.5 Z M 197.5,252.5 C 201.41,255.001 200.744,256.335 195.5,256.5C 195.336,253.813 195.503,251.146 196,248.5C 196.21,250.058 196.71,251.391 197.5,252.5 Z M 211.5,250.5 C 219.841,250.81 228.174,251.31 236.5,252C 237.833,253 237.833,254 236.5,255C 229.5,255.667 222.5,255.667 215.5,255C 212.258,254.627 210.924,253.127 211.5,250.5 Z M 263.5,253.5 C 264.338,253.158 264.672,252.492 264.5,251.5C 287.128,250.512 309.794,250.512 332.5,251.5C 333.845,252.347 334.845,253.513 335.5,255C 315.167,255.667 294.833,255.667 274.5,255C 271.154,252.858 267.987,253.024 265,255.5C 263.97,255.164 263.47,254.497 263.5,253.5 Z M 102.5,253.5 C 110.818,257.433 110.485,260.1 101.5,261.5C 101.575,258.794 101.908,256.127 102.5,253.5 Z M 142.5,255.5 C 151.168,256.851 159.835,258.351 168.5,260C 160.289,260.2 152.122,260.366 144,260.5C 140.023,259.878 139.523,258.212 142.5,255.5 Z M 264.5,259.5 C 288.167,260.167 311.833,260.833 335.5,261.5C 333.896,262.287 333.229,263.62 333.5,265.5C 309.811,265.218 286.145,265.551 262.5,266.5C 262.741,264.102 262.074,262.102 260.5,260.5C 260.369,259.761 260.536,259.094 261,258.5C 262.011,259.337 263.178,259.67 264.5,259.5 Z M 209.5,278.5 C 216.321,279.329 223.321,279.829 230.5,280C 233.181,282.103 235.681,281.936 238,279.5C 238.497,281.81 238.663,284.143 238.5,286.5C 237.833,286.5 237.167,286.5 236.5,286.5C 222.343,285.504 208.01,285.171 193.5,285.5C 193.334,277.16 193.5,268.827 194,260.5C 195.395,259.185 196.395,259.519 197,261.5C 198.034,267.231 198.534,272.898 198.5,278.5C 199.559,279.696 200.893,280.363 202.5,280.5C 204.762,279.533 207.095,278.866 209.5,278.5 Z M 241.5,259.5 C 243.415,259.216 245.081,259.549 246.5,260.5C 244.178,261.802 242.845,263.802 242.5,266.5C 241.5,266.5 240.5,266.5 239.5,266.5C 236.43,262.991 237.097,260.658 241.5,259.5 Z M 207.5,260.5 C 213.82,261.831 220.153,261.831 226.5,260.5C 228.577,260.692 230.577,261.192 232.5,262C 231.672,262.915 230.672,263.581 229.5,264C 223.129,264.484 216.795,264.484 210.5,264C 208.327,265.865 207.993,268.031 209.5,270.5C 208.675,271.386 207.675,271.719 206.5,271.5C 206.323,267.766 206.656,264.099 207.5,260.5 Z M 239.5,268.5 C 240.167,268.5 240.5,268.833 240.5,269.5C 239.85,271.435 239.517,273.435 239.5,275.5C 238.833,275.5 238.167,275.5 237.5,275.5C 236.71,274.206 235.71,273.039 234.5,272C 235.955,270.374 237.622,269.208 239.5,268.5 Z M 331.5,271.5 C 331.5,272.167 331.5,272.833 331.5,273.5C 330.778,273.918 330.278,274.584 330,275.5C 308.888,275.236 287.721,275.236 266.5,275.5C 265.261,275.058 264.261,274.391 263.5,273.5C 263.5,272.5 263.5,271.5 263.5,270.5C 263.369,269.761 263.536,269.094 264,268.5C 268.134,269.196 272.3,269.863 276.5,270.5C 284.12,269.849 291.787,269.516 299.5,269.5C 310.376,269.317 321.043,269.983 331.5,271.5 Z M 135.5,285.5 C 135.726,280.438 135.392,275.438 134.5,270.5C 151.447,269.224 168.447,269.224 185.5,270.5C 185.5,275.5 185.5,280.5 185.5,285.5C 170.167,285.501 153.501,285.501 135.5,285.5 Z M 220.5,270.5 C 224.048,270.095 227.381,270.595 230.5,272C 227.367,273.57 224.033,273.903 220.5,273C 219.402,272.23 219.402,271.397 220.5,270.5 Z M 115.5,280.5 C 115.5,280.833 115.5,281.167 115.5,281.5C 115.5,282.167 115.5,282.833 115.5,283.5C 111.01,285.111 106.343,285.778 101.5,285.5C 101.724,281.821 102.058,278.154 102.5,274.5C 107.649,274.982 111.982,276.982 115.5,280.5 Z M 329.5,282.5 C 329.5,283.5 329.5,284.5 329.5,285.5C 309.211,286.427 288.545,286.76 267.5,286.5C 266.87,284.25 265.87,282.25 264.5,280.5C 264.369,279.624 264.702,278.957 265.5,278.5C 286.788,279.489 308.121,279.822 329.5,279.5C 329.5,280.5 329.5,281.5 329.5,282.5 Z"/></g>
<g><path style="opacity:0.4" fill="#f0dabc" d="M 453.5,111.5 C 454.5,111.5 455.5,111.5 456.5,111.5C 456.5,112.5 456.5,113.5 456.5,114.5C 455.5,114.5 454.5,114.5 453.5,114.5C 453.5,113.5 453.5,112.5 453.5,111.5 Z"/></g>
<g><path style="opacity:0.875" fill="#f1d5b1" d="M 454.5,115.5 C 456.355,115.272 457.188,115.939 457,117.5C 454.366,118.692 453.532,118.026 454.5,115.5 Z"/></g>
<g><path style="opacity:1" fill="#f4f5f4" d="M 102.5,116.5 C 190.167,116.333 277.834,116.5 365.5,117C 368.39,120.419 368.057,123.419 364.5,126C 277.167,126.667 189.833,126.667 102.5,126C 99.8881,122.836 99.8881,119.669 102.5,116.5 Z"/></g>
<g><path style="opacity:1" fill="#aa9dce" d="M 117.5,119.5 C 118.222,119.918 118.722,120.584 119,121.5C 120,118.833 121,118.833 122,121.5C 122.388,120.572 123.055,119.905 124,119.5C 127.804,120.695 131.637,120.695 135.5,119.5C 136.192,120.025 136.692,120.692 137,121.5C 137.423,120.044 138.256,119.544 139.5,120C 138.532,123.405 137.032,123.905 135,121.5C 133.983,124.028 132.816,124.028 131.5,121.5C 130.833,122.167 130.167,122.833 129.5,123.5C 127.997,122.948 126.331,122.948 124.5,123.5C 124.541,119.757 123.874,119.59 122.5,123C 118.638,125.323 116.972,124.156 117.5,119.5 Z"/></g>
<g><path style="opacity:0.388" fill="#f0d8b9" d="M 454.5,119.5 C 455.5,119.5 456.5,119.5 457.5,119.5C 457.5,120.5 457.5,121.5 457.5,122.5C 456.5,122.5 455.5,122.5 454.5,122.5C 454.5,121.5 454.5,120.5 454.5,119.5 Z"/></g>
<g><path style="opacity:1" fill="#1e1d21" d="M 74.5,126.5 C 75.5,126.5 76.5,126.5 77.5,126.5C 77.7852,128.288 77.4519,129.955 76.5,131.5C 75.0047,130.888 73.3381,130.888 71.5,131.5C 70.5,131.333 69.5,131.167 68.5,131C 70.66,129.668 72.66,128.168 74.5,126.5 Z"/></g>
<g><path style="opacity:0.569" fill="#efd5b2" d="M 453.5,123.5 C 457.527,123.281 458.194,124.448 455.5,127C 456.337,128.011 456.67,129.178 456.5,130.5C 455.5,130.5 454.5,130.5 453.5,130.5C 454.546,128.118 454.546,125.785 453.5,123.5 Z"/></g>
<g><path style="opacity:1" fill="#dbd4f2" d="M 185.5,187.5 C 171.383,184.2 157.383,180.367 143.5,176C 141.19,175.503 138.857,175.337 136.5,175.5C 133.879,184.027 131.879,192.694 130.5,201.5C 129.167,201.5 127.833,201.5 126.5,201.5C 126.704,204.518 127.037,207.518 127.5,210.5C 125.265,210.205 123.265,210.539 121.5,211.5C 119.21,213.033 118.544,212.7 119.5,210.5C 111.798,208.191 106.131,210.524 102.5,217.5C 100.521,189.392 99.8546,161.059 100.5,132.5C 128.833,132.5 157.167,132.5 185.5,132.5C 185.5,150.833 185.5,169.167 185.5,187.5 Z"/></g>
<g><path style="opacity:0.969" fill="#eccda3" d="M 453.5,134.5 C 452.457,131.971 453.457,131.138 456.5,132C 455.922,133.417 454.922,134.25 453.5,134.5 Z"/></g>
<g><path style="opacity:0.962" fill="#f3f3f4" d="M 275.5,193.5 C 274.835,191.631 274.169,189.631 273.5,187.5C 272.479,188.901 271.479,190.235 270.5,191.5C 270.5,185.167 270.5,178.833 270.5,172.5C 268.167,172.5 265.833,172.5 263.5,172.5C 263.5,180.167 263.5,187.833 263.5,195.5C 265.167,195.5 266.833,195.5 268.5,195.5C 266.614,196.065 264.947,197.065 263.5,198.5C 265.833,201.167 268.167,203.833 270.5,206.5C 267.079,211.658 268.412,214.325 274.5,214.5C 274.263,213.209 274.596,212.209 275.5,211.5C 275.5,212.833 275.5,214.167 275.5,215.5C 248.167,215.5 220.833,215.5 193.5,215.5C 194.751,210.245 195.751,204.911 196.5,199.5C 201.728,199.075 206.728,199.742 211.5,201.5C 216.17,205.919 219.837,205.085 222.5,199C 228.944,196.963 235.444,195.13 242,193.5C 244.723,194.541 247.223,196.041 249.5,198C 251.473,198.495 253.473,198.662 255.5,198.5C 254.627,191.714 250.961,189.714 244.5,192.5C 239.23,190.231 235.23,186.564 232.5,181.5C 247.767,186.044 256.767,180.544 259.5,165C 257.19,151.498 249.19,145.832 235.5,148C 228.157,151.162 224.157,156.662 223.5,164.5C 214.167,164.5 204.833,164.5 195.5,164.5C 195.5,172.833 195.5,181.167 195.5,189.5C 194.609,188.89 193.609,188.557 192.5,188.5C 192.5,169.833 192.5,151.167 192.5,132.5C 220.167,132.5 247.833,132.5 275.5,132.5C 275.5,152.833 275.5,173.167 275.5,193.5 Z"/></g>
<g><path style="opacity:0.999" fill="#cbc6ee" d="M 283.5,132.5 C 283.5,147.5 283.5,162.5 283.5,177.5C 284.568,189.157 284.568,200.823 283.5,212.5C 283.5,213.5 283.5,214.5 283.5,215.5C 282.167,187.833 282.167,160.167 283.5,132.5 Z"/></g>
<g><path style="opacity:0.975" fill="#f4f4f2" d="M 283.5,132.5 C 311.167,132.5 338.833,132.5 366.5,132.5C 366.5,140.167 366.5,147.833 366.5,155.5C 363.91,155.604 361.577,154.937 359.5,153.5C 357.829,153.668 356.496,154.335 355.5,155.5C 353.139,155.674 350.806,156.007 348.5,156.5C 345.248,158.866 341.581,160.366 337.5,161C 330.5,161.333 323.5,161.667 316.5,162C 315.473,162.513 314.473,163.013 313.5,163.5C 311.744,160.426 309.077,158.426 305.5,157.5C 302.688,159.794 299.688,161.961 296.5,164C 294.5,164.5 292.5,165 290.5,165.5C 288.675,164.349 286.675,163.682 284.5,163.5C 284.819,168.363 284.486,173.03 283.5,177.5C 283.5,162.5 283.5,147.5 283.5,132.5 Z"/></g>
<g><path style="opacity:0.957" fill="#edcda4" d="M 453.5,134.5 C 454.954,136.263 454.62,137.597 452.5,138.5C 451.046,136.737 451.38,135.403 453.5,134.5 Z"/></g>
<g><path style="opacity:1" fill="#6a55cc" d="M 196.5,139.5 C 203.5,139.5 210.5,139.5 217.5,139.5C 217.5,140.5 217.5,141.5 217.5,142.5C 210.5,142.5 203.5,142.5 196.5,142.5C 196.5,141.5 196.5,140.5 196.5,139.5 Z"/></g>
<g><path style="opacity:1" fill="#dc9e4e" d="M 303.5,139.5 C 310.706,139.202 313.873,142.535 313,149.5C 310.794,153.125 307.627,154.292 303.5,153C 299.876,150.839 298.709,147.672 300,143.5C 301.376,142.295 302.542,140.962 303.5,139.5 Z"/></g>
<g><path style="opacity:1" fill="#6d57cd" d="M 321.5,139.5 C 328.706,139.202 331.873,142.535 331,149.5C 326.667,154.833 322.333,154.833 318,149.5C 317.333,147.5 317.333,145.5 318,143.5C 319.376,142.295 320.542,140.962 321.5,139.5 Z"/></g>
<g><path style="opacity:0.514" fill="#efd5b4" d="M 452.5,138.5 C 453.954,140.263 453.62,141.597 451.5,142.5C 449.825,140.544 450.158,139.211 452.5,138.5 Z"/></g>
<g><path style="opacity:1" fill="#181718" d="M 420.5,141.5 C 420.833,141.5 421.167,141.5 421.5,141.5C 421.427,143.027 422.094,144.027 423.5,144.5C 424.219,148.984 424.219,153.317 423.5,157.5C 421.958,158.301 420.292,158.634 418.5,158.5C 417.752,156.416 417.752,154.416 418.5,152.5C 416.995,151.158 416.328,149.492 416.5,147.5C 413.812,147.834 411.479,147.168 409.5,145.5C 409.714,143.856 409.38,142.356 408.5,141C 412.441,141.267 416.441,141.434 420.5,141.5 Z"/></g>
<g><path style="opacity:1" fill="#bfb8e5" d="M 196.5,139.5 C 203.648,138.508 210.981,138.175 218.5,138.5C 218.5,140.167 218.5,141.833 218.5,143.5C 210.981,143.825 203.648,143.492 196.5,142.5C 203.5,142.5 210.5,142.5 217.5,142.5C 217.5,141.5 217.5,140.5 217.5,139.5C 210.5,139.5 203.5,139.5 196.5,139.5 Z"/></g>
<g><path style="opacity:1" fill="#eacf85" d="M 339.5,139.5 C 348.61,139.752 351.277,143.918 347.5,152C 339.171,155.148 335.338,152.315 336,143.5C 336.69,141.65 337.856,140.316 339.5,139.5 Z"/></g>
<g><path style="opacity:0.494" fill="#a6a4a9" d="M 421.5,141.5 C 422.906,141.973 423.573,142.973 423.5,144.5C 422.094,144.027 421.427,143.027 421.5,141.5 Z"/></g>
<g><path style="opacity:0.373" fill="#efd5b3" d="M 451.5,142.5 C 451.715,144.179 451.048,145.179 449.5,145.5C 448.086,143.402 448.752,142.402 451.5,142.5 Z"/></g>
<g><path style="opacity:0.902" fill="#efd6b4" d="M 449.5,145.5 C 449.804,146.15 450.137,146.817 450.5,147.5C 449.05,148.85 448.383,150.516 448.5,152.5C 447.5,152.5 446.5,152.5 445.5,152.5C 445.36,150.876 446.027,149.71 447.5,149C 446.828,147.421 447.495,146.254 449.5,145.5 Z"/></g>
<g><path style="opacity:1" fill="#d0b4a1" d="M 409.5,145.5 C 411.479,147.168 413.812,147.834 416.5,147.5C 416.328,149.492 416.995,151.158 418.5,152.5C 417.752,154.416 417.752,156.416 418.5,158.5C 420.292,158.634 421.958,158.301 423.5,157.5C 424.167,158.167 424.833,158.833 425.5,159.5C 421.738,159.691 418.071,160.358 414.5,161.5C 415.903,158.7 414.903,157.2 411.5,157C 408.58,153.565 407.913,149.731 409.5,145.5 Z"/></g>
<g><path style="opacity:1" fill="#ddd5f2" d="M 232.5,181.5 C 230.899,185.967 229.566,190.634 228.5,195.5C 218.5,195.5 208.5,195.5 198.5,195.5C 198.66,193.801 198.494,192.134 198,190.5C 197.329,189.748 196.496,189.414 195.5,189.5C 195.5,181.167 195.5,172.833 195.5,164.5C 204.833,164.5 214.167,164.5 223.5,164.5C 224.157,156.662 228.157,151.162 235.5,148C 249.19,145.832 257.19,151.498 259.5,165C 256.767,180.544 247.767,186.044 232.5,181.5 Z"/></g>
<g><path style="opacity:1" fill="#8b7ad6" d="M 195.5,147.5 C 197.167,147.5 198.833,147.5 200.5,147.5C 200.5,148.5 200.5,149.5 200.5,150.5C 198.833,150.5 197.167,150.5 195.5,150.5C 195.5,149.5 195.5,148.5 195.5,147.5 Z"/></g>
<g><path style="opacity:0.999" fill="#e5e4e5" d="M 81.5,192.5 C 68.0157,194.317 60.6824,201.984 59.5,215.5C 60.664,228.999 67.9973,236.665 81.5,238.5C 81.5,248.167 81.5,257.833 81.5,267.5C 76.5356,267.745 71.7022,267.078 67,265.5C 63.3014,267.184 60.1347,269.684 57.5,273C 51.1214,274.311 47.1214,271.811 45.5,265.5C 46.5965,261.866 47.0965,258.199 47,254.5C 42.4238,249.598 38.2571,244.431 34.5,239C 30.8333,238.667 27.1667,238.333 23.5,238C 20.4549,236.067 18.7883,233.234 18.5,229.5C 19.1667,228.167 19.8333,226.833 20.5,225.5C 23.7556,223.289 26.9223,220.955 30,218.5C 30.0979,212.379 30.9312,206.379 32.5,200.5C 30.2256,197.05 27.7256,193.717 25,190.5C 23.7984,186.207 24.9651,182.707 28.5,180C 33.8538,179.471 39.1871,179.638 44.5,180.5C 44.5,179.167 44.5,177.833 44.5,176.5C 41.9899,176.946 39.9899,176.28 38.5,174.5C 41.457,174.756 44.1237,175.756 46.5,177.5C 50.5,174.833 54.5,172.167 58.5,169.5C 59.3275,165.204 59.8275,160.871 60,156.5C 63.4325,154.018 67.2658,153.185 71.5,154C 74.0373,156.906 76.204,160.073 78,163.5C 79.0113,164.337 80.1779,164.67 81.5,164.5C 81.5,173.833 81.5,183.167 81.5,192.5 Z"/></g>
<g><path style="opacity:1" fill="#f5f6f4" d="M 236.5,153.5 C 250.187,152.346 255.354,158.346 252,171.5C 246.871,177.854 240.704,179.02 233.5,175C 227.468,166.722 228.468,159.556 236.5,153.5 Z"/></g>
<g><path style="opacity:0.973" fill="#eac89b" d="M 443.5,153.5 C 446.548,153.494 447.048,154.494 445,156.5C 443.961,155.756 443.461,154.756 443.5,153.5 Z"/></g>
<g><path style="opacity:1" fill="#deaf6b" d="M 195.5,153.5 C 197.167,153.5 198.833,153.5 200.5,153.5C 200.5,154.5 200.5,155.5 200.5,156.5C 198.833,156.5 197.167,156.5 195.5,156.5C 195.5,155.5 195.5,154.5 195.5,153.5 Z"/></g>
<g><path style="opacity:1" fill="#6e58c6" d="M 353.5,163.5 C 353.5,162.833 353.167,162.5 352.5,162.5C 350.833,161.5 349.5,160.167 348.5,158.5C 348.5,157.833 348.5,157.167 348.5,156.5C 350.806,156.007 353.139,155.674 355.5,155.5C 357.331,154.948 358.997,154.948 360.5,155.5C 358.827,158.869 357.16,162.202 355.5,165.5C 354.818,164.757 354.151,164.091 353.5,163.5 Z"/></g>
<g><path style="opacity:0.999" fill="#d8d2ef" d="M 366.5,155.5 C 369.428,156.817 372.428,158.15 375.5,159.5C 375.833,159.5 376.167,159.5 376.5,159.5C 379.215,161.072 382.215,162.072 385.5,162.5C 389.111,164.931 393.111,166.597 397.5,167.5C 399.418,168.868 401.585,169.868 404,170.5C 404.224,173.11 403.724,175.61 402.5,178C 397.81,175.67 392.81,173.836 387.5,172.5C 387.343,173.873 387.51,175.207 388,176.5C 390.679,180.076 393.846,183.076 397.5,185.5C 393.896,188.101 389.896,189.768 385.5,190.5C 385.5,186.167 385.5,181.833 385.5,177.5C 383.315,177.296 381.315,176.63 379.5,175.5C 379.158,174.662 378.492,174.328 377.5,174.5C 373.812,173.501 370.145,172.168 366.5,170.5C 365.791,169.596 364.791,169.263 363.5,169.5C 363.167,169.5 362.833,169.5 362.5,169.5C 361.791,168.596 360.791,168.263 359.5,168.5C 359.5,182.833 359.5,197.167 359.5,211.5C 357.5,211.5 355.5,211.5 353.5,211.5C 353.5,195.5 353.5,179.5 353.5,163.5C 354.151,164.091 354.818,164.757 355.5,165.5C 357.16,162.202 358.827,158.869 360.5,155.5C 358.997,154.948 357.331,154.948 355.5,155.5C 356.496,154.335 357.829,153.668 359.5,153.5C 361.577,154.937 363.91,155.604 366.5,155.5 Z"/></g>
<g><path style="opacity:0.788" fill="#eed0a8" d="M 441.5,159.5 C 440.773,156.524 441.773,156.024 444.5,158C 443.756,159.039 442.756,159.539 441.5,159.5 Z"/></g>
<g><path style="opacity:1" fill="#e6ba6c" d="M 425.5,159.5 C 427.722,159.178 429.556,159.845 431,161.5C 431.902,163.927 432.736,166.26 433.5,168.5C 433.231,172.931 433.564,177.265 434.5,181.5C 435.167,188.833 435.833,196.167 436.5,203.5C 428.603,203.734 420.603,203.734 412.5,203.5C 413.011,200.307 413.678,197.141 414.5,194C 414.083,191.502 413.749,189.002 413.5,186.5C 413.663,184.143 413.497,181.81 413,179.5C 411.955,180.373 411.122,181.373 410.5,182.5C 408.326,184.846 405.826,186.846 403,188.5C 400.88,187.86 399.046,186.86 397.5,185.5C 393.846,183.076 390.679,180.076 388,176.5C 387.51,175.207 387.343,173.873 387.5,172.5C 392.81,173.836 397.81,175.67 402.5,178C 403.724,175.61 404.224,173.11 404,170.5C 401.585,169.868 399.418,168.868 397.5,167.5C 400.655,167.01 403.655,166.344 406.5,165.5C 408.615,163.109 411.281,161.776 414.5,161.5C 418.071,160.358 421.738,159.691 425.5,159.5 Z"/></g>
<g><path style="opacity:0.533" fill="#f4f4f4" d="M 343.5,161.5 C 343.196,162.15 342.863,162.817 342.5,163.5C 344.405,167.595 346.405,171.595 348.5,175.5C 349.246,186.175 349.912,197.009 350.5,208C 350.441,209.436 350.108,210.769 349.5,212C 346.571,212.777 343.737,212.61 341,211.5C 341.47,201.188 341.47,190.855 341,180.5C 340.722,179.584 340.222,178.918 339.5,178.5C 337.968,175.943 336.301,173.443 334.5,171C 331.437,171.043 328.437,171.377 325.5,172C 323.791,170.084 322.457,167.918 321.5,165.5C 319.955,164.548 318.288,164.215 316.5,164.5C 325.428,163.93 334.428,162.93 343.5,161.5 Z"/></g>
<g><path style="opacity:0.369" fill="#efd7b7" d="M 441.5,159.5 C 442.494,161.854 441.494,162.854 438.5,162.5C 438.5,160.5 439.5,159.5 441.5,159.5 Z"/></g>
<g><path style="opacity:0.341" fill="#eed1a8" d="M 438.5,162.5 C 439.674,164.368 439.007,165.368 436.5,165.5C 436.285,163.821 436.952,162.821 438.5,162.5 Z"/></g>
<g><path style="opacity:0.882" fill="#efe2bf" d="M 348.5,156.5 C 348.5,157.167 348.5,157.833 348.5,158.5C 346.668,159.248 345.001,160.248 343.5,161.5C 334.428,162.93 325.428,163.93 316.5,164.5C 313.944,165.543 311.777,167.21 310,169.5C 305.1,178.563 298.6,186.23 290.5,192.5C 289.692,192.192 289.025,191.692 288.5,191C 296.809,185.027 303.309,177.527 308,168.5C 309.704,166.627 311.537,164.96 313.5,163.5C 314.473,163.013 315.473,162.513 316.5,162C 323.5,161.667 330.5,161.333 337.5,161C 341.581,160.366 345.248,158.866 348.5,156.5 Z"/></g>
<g><path style="opacity:0.506" fill="#eed4b1" d="M 436.5,165.5 C 436.5,166.5 436.5,167.5 436.5,168.5C 435.5,168.5 434.5,168.5 433.5,168.5C 433.5,166.5 434.5,165.5 436.5,165.5 Z"/></g>
<g><path style="opacity:0.197" fill="#f1f1f4" d="M 352.5,162.5 C 353.167,162.5 353.5,162.833 353.5,163.5C 353.5,179.5 353.5,195.5 353.5,211.5C 355.5,211.5 357.5,211.5 359.5,211.5C 359.5,197.167 359.5,182.833 359.5,168.5C 360.791,168.263 361.791,168.596 362.5,169.5C 360.518,182.792 359.851,196.459 360.5,210.5C 362.201,210.966 363.701,210.966 365,210.5C 365.167,203.833 365.333,197.167 365.5,190.5C 365.463,183.264 364.796,176.264 363.5,169.5C 364.791,169.263 365.791,169.596 366.5,170.5C 366.5,185.5 366.5,200.5 366.5,215.5C 338.833,215.5 311.167,215.5 283.5,215.5C 283.5,214.5 283.5,213.5 283.5,212.5C 286.907,213.753 290.573,214.42 294.5,214.5C 305.846,214.467 317.179,213.967 328.5,213C 326.093,211.733 323.76,211.233 321.5,211.5C 320.2,208.691 320.2,206.024 321.5,203.5C 321.5,205.833 321.5,208.167 321.5,210.5C 323.5,210.5 325.5,210.5 327.5,210.5C 327.5,199.833 327.5,189.167 327.5,178.5C 325.5,178.5 323.5,178.5 321.5,178.5C 323.365,175.412 325.531,175.079 328,177.5C 328.168,186.851 328.668,196.184 329.5,205.5C 330.167,197.343 330.833,189.343 331.5,181.5C 331.5,191.5 331.5,201.5 331.5,211.5C 333.5,211.5 335.5,211.5 337.5,211.5C 337.5,200.833 337.5,190.167 337.5,179.5C 335.833,179.5 334.167,179.5 332.5,179.5C 334.607,178.532 336.941,178.198 339.5,178.5C 338.376,189.5 338.209,200.5 339,211.5C 337.601,212.227 336.101,212.727 334.5,213C 340.528,213.83 346.528,213.664 352.5,212.5C 352.465,196.012 352.465,179.346 352.5,162.5 Z M 362.5,169.5 C 362.833,169.5 363.167,169.5 363.5,169.5C 364.796,176.264 365.463,183.264 365.5,190.5C 365.333,197.167 365.167,203.833 365,210.5C 363.701,210.966 362.201,210.966 360.5,210.5C 359.851,196.459 360.518,182.792 362.5,169.5 Z"/></g>
<g><path style="opacity:0.987" fill="#dfd9f3" d="M 270.5,191.5 C 270.843,193.483 270.176,194.817 268.5,195.5C 266.833,195.5 265.167,195.5 263.5,195.5C 263.5,187.833 263.5,180.167 263.5,172.5C 265.833,172.5 268.167,172.5 270.5,172.5C 270.5,178.833 270.5,185.167 270.5,191.5 Z"/></g>
<g><path style="opacity:0.927" fill="#fefefe" d="M 185.5,187.5 C 187.717,188.369 190.05,188.702 192.5,188.5C 193.609,188.557 194.609,188.89 195.5,189.5C 196.496,189.414 197.329,189.748 198,190.5C 198.494,192.134 198.66,193.801 198.5,195.5C 208.5,195.5 218.5,195.5 228.5,195.5C 222.321,196.167 215.988,196.833 209.5,197.5C 210.18,198.86 210.847,200.193 211.5,201.5C 206.728,199.742 201.728,199.075 196.5,199.5C 195.751,204.911 194.751,210.245 193.5,215.5C 192.013,219.116 190.68,222.783 189.5,226.5C 187.514,220.056 185.014,213.722 182,207.5C 179.848,206.115 177.515,205.115 175,204.5C 168.531,207.325 163.031,211.492 158.5,217C 155.986,218.252 153.32,218.752 150.5,218.5C 150.778,216.654 150.111,215.32 148.5,214.5C 147.878,218.126 147.711,221.793 148,225.5C 147.34,227.324 146.173,228.657 144.5,229.5C 144.5,229.167 144.5,228.833 144.5,228.5C 146.162,219.6 146.828,210.6 146.5,201.5C 144.517,201.157 143.183,201.824 142.5,203.5C 138.916,204.311 135.749,205.977 133,208.5C 132.24,212.988 131.406,217.322 130.5,221.5C 130.5,214.833 130.5,208.167 130.5,201.5C 131.879,192.694 133.879,184.027 136.5,175.5C 138.857,175.337 141.19,175.503 143.5,176C 157.383,180.367 171.383,184.2 185.5,187.5 Z"/></g>
<g><path style="opacity:1" fill="#dcd5f3" d="M 348.5,175.5 C 348.5,187.5 348.5,199.5 348.5,211.5C 346.5,211.5 344.5,211.5 342.5,211.5C 342.5,199.5 342.5,187.5 342.5,175.5C 344.5,175.5 346.5,175.5 348.5,175.5 Z"/></g>
<g><path style="opacity:1" fill="#4b2d9d" d="M 379.5,175.5 C 381.315,176.63 383.315,177.296 385.5,177.5C 385.5,181.833 385.5,186.167 385.5,190.5C 385.667,227.835 385.5,265.168 385,302.5C 384.167,303.333 383.333,304.167 382.5,305C 376.509,305.499 370.509,305.666 364.5,305.5C 363.957,305.44 363.624,305.107 363.5,304.5C 364.423,301.553 365.089,298.553 365.5,295.5C 368.833,295.5 372.167,295.5 375.5,295.5C 376.499,255.67 376.832,215.67 376.5,175.5C 377.5,175.5 378.5,175.5 379.5,175.5 Z"/></g>
<g><path style="opacity:0.936" fill="#dcd4f3" d="M 321.5,178.5 C 323.5,178.5 325.5,178.5 327.5,178.5C 327.5,189.167 327.5,199.833 327.5,210.5C 325.5,210.5 323.5,210.5 321.5,210.5C 321.5,208.167 321.5,205.833 321.5,203.5C 321.313,194.965 321.313,186.632 321.5,178.5 Z"/></g>
<g><path style="opacity:1" fill="#ddd5f3" d="M 332.5,179.5 C 334.167,179.5 335.833,179.5 337.5,179.5C 337.5,190.167 337.5,200.833 337.5,211.5C 335.5,211.5 333.5,211.5 331.5,211.5C 331.5,201.5 331.5,191.5 331.5,181.5C 331.328,180.508 331.662,179.842 332.5,179.5 Z"/></g>
<g><path style="opacity:0.178" fill="#dcd1e7" d="M 413.5,186.5 C 412.857,184.924 411.857,183.59 410.5,182.5C 411.122,181.373 411.955,180.373 413,179.5C 413.497,181.81 413.663,184.143 413.5,186.5 Z"/></g>
<g><path style="opacity:0.999" fill="#ddd5f1" d="M 434.5,181.5 C 444.019,185.619 453.685,189.453 463.5,193C 465.904,198.167 464.737,202.667 460,206.5C 452.822,202.941 445.322,200.274 437.5,198.5C 437.5,205.833 437.5,213.167 437.5,220.5C 436.514,216.03 436.181,211.363 436.5,206.5C 436.5,205.5 436.5,204.5 436.5,203.5C 435.833,196.167 435.167,188.833 434.5,181.5 Z"/></g>
<g><path style="opacity:1" fill="#dfd8f3" d="M 311.5,182.5 C 313.262,182.357 314.929,182.691 316.5,183.5C 317.498,192.81 317.832,202.143 317.5,211.5C 314.881,211.768 312.381,211.435 310,210.5C 309.982,203.613 309.815,196.78 309.5,190C 309.303,187.176 309.969,184.676 311.5,182.5 Z"/></g>
<g><path style="opacity:1" fill="#daa564" d="M 223.5,174.5 C 224.376,174.369 225.043,174.702 225.5,175.5C 222.333,179.833 219.167,184.167 216,188.5C 213.982,186.65 212.149,184.65 210.5,182.5C 211.002,181.479 211.668,181.312 212.5,182C 213.667,183.167 214.833,184.333 216,185.5C 218.51,181.805 221.01,178.138 223.5,174.5 Z"/></g>
<g><path style="opacity:0.999" fill="#ded8f3" d="M 299.5,190.5 C 301.833,190.5 304.167,190.5 306.5,190.5C 306.5,197.5 306.5,204.5 306.5,211.5C 304.167,211.5 301.833,211.5 299.5,211.5C 299.222,204.419 299.222,197.419 299.5,190.5 Z"/></g>
<g><path style="opacity:0.992" fill="#e1daf3" d="M 289.5,196.5 C 291.792,196.244 293.959,196.577 296,197.5C 296.499,202.155 296.666,206.821 296.5,211.5C 293.881,211.768 291.381,211.435 289,210.5C 288.227,205.748 288.393,201.081 289.5,196.5 Z"/></g>
<g><path style="opacity:0.998" fill="#d9c0b1" d="M 144.5,228.5 C 142.228,227.681 139.894,227.015 137.5,226.5C 141.324,219.385 142.991,211.719 142.5,203.5C 143.183,201.824 144.517,201.157 146.5,201.5C 146.828,210.6 146.162,219.6 144.5,228.5 Z"/></g>
<g><path style="opacity:1" fill="#6b54cc" d="M 412.5,203.5 C 420.603,203.734 428.603,203.734 436.5,203.5C 436.5,204.5 436.5,205.5 436.5,206.5C 435.678,208.389 434.845,210.389 434,212.5C 427.328,216.836 424.828,222.836 426.5,230.5C 425.883,230.389 425.383,230.056 425,229.5C 424.722,230.416 424.222,231.082 423.5,231.5C 419.648,229.352 415.648,229.018 411.5,230.5C 410.837,228.359 410.503,226.025 410.5,223.5C 411.003,216.809 411.67,210.143 412.5,203.5 Z"/></g>
<g><path style="opacity:1" fill="#db9e52" d="M 121.5,211.5 C 123.527,211.338 125.527,211.505 127.5,212C 127.957,212.414 128.291,212.914 128.5,213.5C 126.586,216.002 124.253,218.002 121.5,219.5C 122.309,221.071 122.643,222.738 122.5,224.5C 121.167,224.5 119.833,224.5 118.5,224.5C 115.715,221.742 115.049,218.576 116.5,215C 113.035,215.057 111.869,216.891 113,220.5C 114.517,222.24 116.017,223.906 117.5,225.5C 117.833,225.5 118.167,225.5 118.5,225.5C 118.5,225.833 118.5,226.167 118.5,226.5C 119.11,227.391 119.443,228.391 119.5,229.5C 119.632,232.57 119.299,235.57 118.5,238.5C 114.808,243.836 109.808,245.503 103.5,243.5C 106.203,242.374 106.87,240.707 105.5,238.5C 106.071,234.574 105.071,230.907 102.5,227.5C 101.167,224.167 101.167,220.833 102.5,217.5C 106.131,210.524 111.798,208.191 119.5,210.5C 118.544,212.7 119.21,213.033 121.5,211.5 Z"/></g>
<g><path style="opacity:1" fill="#47299c" d="M 436.5,206.5 C 436.181,211.363 436.514,216.03 437.5,220.5C 437.852,223.428 438.518,226.262 439.5,229C 439.272,229.399 438.938,229.565 438.5,229.5C 434.295,229.191 430.295,229.857 426.5,231.5C 426.5,231.167 426.5,230.833 426.5,230.5C 424.828,222.836 427.328,216.836 434,212.5C 434.845,210.389 435.678,208.389 436.5,206.5 Z"/></g>
<g><path style="opacity:1" fill="#d2b4a0" d="M 130.5,201.5 C 130.5,208.167 130.5,214.833 130.5,221.5C 130.116,224.769 128.782,227.603 126.5,230C 127.056,230.383 127.389,230.883 127.5,231.5C 124.994,230.25 122.327,229.584 119.5,229.5C 119.443,228.391 119.11,227.391 118.5,226.5C 121.167,226.167 121.167,225.833 118.5,225.5C 118.5,225.167 118.5,224.833 118.5,224.5C 119.833,224.5 121.167,224.5 122.5,224.5C 122.643,222.738 122.309,221.071 121.5,219.5C 124.253,218.002 126.586,216.002 128.5,213.5C 128.291,212.914 127.957,212.414 127.5,212C 125.527,211.505 123.527,211.338 121.5,211.5C 123.265,210.539 125.265,210.205 127.5,210.5C 127.037,207.518 126.704,204.518 126.5,201.5C 127.833,201.5 129.167,201.5 130.5,201.5 Z"/></g>
<g><path style="opacity:0.516" fill="#ccbac8" d="M 118.5,224.5 C 117.833,224.5 117.5,224.833 117.5,225.5C 116.017,223.906 114.517,222.24 113,220.5C 111.869,216.891 113.035,215.057 116.5,215C 115.049,218.576 115.715,221.742 118.5,224.5 Z"/></g>
<g><path style="opacity:0.678" fill="#f2f1f2" d="M 192.5,222.5 C 202.833,222.5 213.167,222.5 223.5,222.5C 222.34,223.265 221.34,224.265 220.5,225.5C 220.709,226.086 221.043,226.586 221.5,227C 232.227,227.815 242.894,227.315 253.5,225.5C 287.974,226.985 322.307,227.985 356.5,228.5C 307.5,228.5 258.5,228.5 209.5,228.5C 209.5,231.5 209.5,234.5 209.5,237.5C 221.833,237.5 234.167,237.5 246.5,237.5C 246.5,238.5 246.5,239.5 246.5,240.5C 244.39,239.883 242.223,240.217 240,241.5C 234.895,239.554 230.395,240.387 226.5,244C 232.175,245.121 237.842,245.955 243.5,246.5C 232.167,246.5 220.833,246.5 209.5,246.5C 209.5,247.5 209.5,248.5 209.5,249.5C 222.5,249.5 235.5,249.5 248.5,249.5C 248.833,249.5 249.167,249.5 249.5,249.5C 250.756,251.941 250.756,254.274 249.5,256.5C 236.167,256.5 222.833,256.5 209.5,256.5C 209.5,257.5 209.5,258.5 209.5,259.5C 220.167,259.5 230.833,259.5 241.5,259.5C 237.097,260.658 236.43,262.991 239.5,266.5C 199.5,267.167 199.5,267.833 239.5,268.5C 237.622,269.208 235.955,270.374 234.5,272C 235.71,273.039 236.71,274.206 237.5,275.5C 228.167,275.5 218.833,275.5 209.5,275.5C 209.5,276.5 209.5,277.5 209.5,278.5C 207.095,278.866 204.762,279.533 202.5,280.5C 200.893,280.363 199.559,279.696 198.5,278.5C 198.534,272.898 198.034,267.231 197,261.5C 196.395,259.519 195.395,259.185 194,260.5C 193.5,268.827 193.334,277.16 193.5,285.5C 208.01,285.171 222.343,285.504 236.5,286.5C 221.833,286.5 207.167,286.5 192.5,286.5C 192.5,265.167 192.5,243.833 192.5,222.5 Z M 197.5,252.5 C 196.71,251.391 196.21,250.058 196,248.5C 195.503,251.146 195.336,253.813 195.5,256.5C 200.744,256.335 201.41,255.001 197.5,252.5 Z M 211.5,250.5 C 210.924,253.127 212.258,254.627 215.5,255C 222.5,255.667 229.5,255.667 236.5,255C 237.833,254 237.833,253 236.5,252C 228.174,251.31 219.841,250.81 211.5,250.5 Z M 207.5,260.5 C 206.656,264.099 206.323,267.766 206.5,271.5C 207.675,271.719 208.675,271.386 209.5,270.5C 207.993,268.031 208.327,265.865 210.5,264C 216.795,264.484 223.129,264.484 229.5,264C 230.672,263.581 231.672,262.915 232.5,262C 230.577,261.192 228.577,260.692 226.5,260.5C 220.153,261.831 213.82,261.831 207.5,260.5 Z M 220.5,270.5 C 219.402,271.397 219.402,272.23 220.5,273C 224.033,273.903 227.367,273.57 230.5,272C 227.381,270.595 224.048,270.095 220.5,270.5 Z"/></g>
<g><path style="opacity:0.051" fill="#e3deea" d="M 192.5,222.5 C 250.331,221.501 308.331,221.168 366.5,221.5C 366.831,245.339 366.498,269.006 365.5,292.5C 365.691,284.799 365.358,277.132 364.5,269.5C 365.496,254.009 365.83,238.342 365.5,222.5C 318.167,222.5 270.833,222.5 223.5,222.5C 213.167,222.5 202.833,222.5 192.5,222.5 Z"/></g>
<g><path style="opacity:1" fill="#6851c8" d="M 137.5,226.5 C 139.894,227.015 142.228,227.681 144.5,228.5C 144.5,228.833 144.5,229.167 144.5,229.5C 141.088,233.238 137.755,236.905 134.5,240.5C 134.371,242.216 134.038,243.883 133.5,245.5C 132.514,249.97 132.181,254.637 132.5,259.5C 132.808,263.36 133.475,267.026 134.5,270.5C 135.392,275.438 135.726,280.438 135.5,285.5C 135.5,288.833 135.5,292.167 135.5,295.5C 170.5,295.5 205.5,295.5 240.5,295.5C 205.671,296.498 170.671,296.832 135.5,296.5C 135.768,299.119 135.435,301.619 134.5,304C 151.163,304.5 167.83,304.667 184.5,304.5C 183.432,305.434 182.099,305.768 180.5,305.5C 164.833,305.5 149.167,305.5 133.5,305.5C 132.848,304.275 131.681,303.608 130,303.5C 128.319,303.608 127.152,304.275 126.5,305.5C 125.833,305.5 125.167,305.5 124.5,305.5C 123.848,304.275 122.681,303.608 121,303.5C 119.213,303.759 117.713,304.425 116.5,305.5C 105.654,305.828 94.9869,305.494 84.5,304.5C 95.1719,304.667 105.839,304.5 116.5,304C 115.565,301.619 115.232,299.119 115.5,296.5C 107.648,296.825 99.9818,296.492 92.5,295.5C 100.174,295.666 107.841,295.5 115.5,295C 116.823,290.4 116.823,285.9 115.5,281.5C 115.5,281.167 115.5,280.833 115.5,280.5C 115.583,276.665 114.917,272.998 113.5,269.5C 113.298,267.05 113.631,264.717 114.5,262.5C 118.092,257.468 119.425,251.801 118.5,245.5C 118.5,243.167 118.5,240.833 118.5,238.5C 119.299,235.57 119.632,232.57 119.5,229.5C 122.327,229.584 124.994,230.25 127.5,231.5C 131.28,230.718 134.613,229.052 137.5,226.5 Z"/></g>
<g><path style="opacity:1" fill="#dbd3f1" d="M 356.5,228.5 C 356.5,231.833 356.5,235.167 356.5,238.5C 355.167,238.5 353.833,238.5 352.5,238.5C 350.57,234.454 347.236,232.621 342.5,233C 337.572,229.698 334.906,231.198 334.5,237.5C 311.167,237.5 287.833,237.5 264.5,237.5C 266.319,236.064 266.652,234.397 265.5,232.5C 258.724,230.18 252.89,231.513 248,236.5C 247.506,238.134 247.34,239.801 247.5,241.5C 246.833,241.5 246.5,241.167 246.5,240.5C 246.5,239.5 246.5,238.5 246.5,237.5C 234.167,237.5 221.833,237.5 209.5,237.5C 209.5,234.5 209.5,231.5 209.5,228.5C 258.5,228.5 307.5,228.5 356.5,228.5 Z"/></g>
<g><path style="opacity:0.998" fill="#d2b7a8" d="M 423.5,231.5 C 423.666,238.508 423.5,245.508 423,252.5C 421.18,258.445 419.68,264.445 418.5,270.5C 420.5,270.5 422.5,270.5 424.5,270.5C 422.393,271.468 420.059,271.802 417.5,271.5C 417.5,270.167 417.5,268.833 417.5,267.5C 414.763,267.401 412.096,267.735 409.5,268.5C 410.315,267.163 411.482,266.163 413,265.5C 413.814,253.725 413.314,242.058 411.5,230.5C 415.648,229.018 419.648,229.352 423.5,231.5 Z"/></g>
<g><path style="opacity:0.999" fill="#d3b6a4" d="M 438.5,229.5 C 439.035,236.175 439.701,242.842 440.5,249.5C 440.271,255.644 439.271,261.644 437.5,267.5C 435.784,267.371 434.117,267.038 432.5,266.5C 432.557,254.455 430.557,242.788 426.5,231.5C 430.295,229.857 434.295,229.191 438.5,229.5 Z"/></g>
<g><path style="opacity:1" fill="#110f10" d="M 264.5,237.5 C 260.741,236.092 257.075,236.258 253.5,238C 252.13,241.866 250.797,245.699 249.5,249.5C 249.167,249.5 248.833,249.5 248.5,249.5C 248.795,247.265 248.461,245.265 247.5,243.5C 247.5,242.833 247.5,242.167 247.5,241.5C 247.34,239.801 247.506,238.134 248,236.5C 252.89,231.513 258.724,230.18 265.5,232.5C 266.652,234.397 266.319,236.064 264.5,237.5 Z"/></g>
<g><path style="opacity:1" fill="#634fb2" d="M 377.5,174.5 C 378.492,174.328 379.158,174.662 379.5,175.5C 378.5,175.5 377.5,175.5 376.5,175.5C 376.832,215.67 376.499,255.67 375.5,295.5C 374.839,254.82 375.506,214.486 377.5,174.5 Z"/></g>
<g><path style="opacity:1" fill="#151314" d="M 352.5,238.5 C 352.091,242.876 351.425,247.21 350.5,251.5C 349.056,247.872 348.056,244.039 347.5,240C 344.454,237.826 341.12,237.159 337.5,238C 336.874,238.75 336.374,239.584 336,240.5C 335.722,239.584 335.222,238.918 334.5,238.5C 334.5,238.167 334.5,237.833 334.5,237.5C 334.906,231.198 337.572,229.698 342.5,233C 347.236,232.621 350.57,234.454 352.5,238.5 Z"/></g>
<g><path style="opacity:1" fill="#db9d4c" d="M 197.5,235.5 C 200.167,235.5 202.833,235.5 205.5,235.5C 205.5,237.5 205.5,239.5 205.5,241.5C 202.833,241.5 200.167,241.5 197.5,241.5C 197.5,239.5 197.5,237.5 197.5,235.5 Z"/></g>
<g><path style="opacity:1" fill="#ccae9b" d="M 264.5,237.5 C 264.5,240.5 264.5,243.5 264.5,246.5C 264.5,247.5 264.5,248.5 264.5,249.5C 264.5,250.167 264.5,250.833 264.5,251.5C 264.672,252.492 264.338,253.158 263.5,253.5C 262.128,254.512 260.795,255.512 259.5,256.5C 259.5,257.5 259.5,258.5 259.5,259.5C 258.5,259.5 257.5,259.5 256.5,259.5C 254.139,259.326 251.806,258.993 249.5,258.5C 249.5,257.833 249.5,257.167 249.5,256.5C 250.756,254.274 250.756,251.941 249.5,249.5C 250.797,245.699 252.13,241.866 253.5,238C 257.075,236.258 260.741,236.092 264.5,237.5 Z"/></g>
<g><path style="opacity:0.736" fill="#eeedf0" d="M 356.5,228.5 C 357.692,236.623 359.358,244.789 361.5,253C 359.974,255.806 359.64,258.64 360.5,261.5C 357.156,260.492 353.823,259.492 350.5,258.5C 350.5,256.167 350.5,253.833 350.5,251.5C 351.425,247.21 352.091,242.876 352.5,238.5C 353.833,238.5 355.167,238.5 356.5,238.5C 356.5,235.167 356.5,231.833 356.5,228.5 Z"/></g>
<g><path style="opacity:0.556" fill="#f0eff3" d="M 264.5,237.5 C 287.833,237.5 311.167,237.5 334.5,237.5C 334.5,237.833 334.5,238.167 334.5,238.5C 313.807,238.144 293.14,238.644 272.5,240C 270.208,241.29 268.208,242.957 266.5,245C 274.344,245.171 282.011,245.671 289.5,246.5C 281.167,246.5 272.833,246.5 264.5,246.5C 264.5,243.5 264.5,240.5 264.5,237.5 Z"/></g>
<g><path style="opacity:1" fill="#c9ab97" d="M 350.5,251.5 C 350.5,253.833 350.5,256.167 350.5,258.5C 348.955,260.372 346.955,261.372 344.5,261.5C 342.645,261.66 341.312,260.993 340.5,259.5C 340.5,258.5 340.5,257.5 340.5,256.5C 339.5,256.5 338.5,256.5 337.5,256.5C 336.223,252.811 335.223,249.144 334.5,245.5C 334.5,243.167 334.5,240.833 334.5,238.5C 335.222,238.918 335.722,239.584 336,240.5C 336.374,239.584 336.874,238.75 337.5,238C 341.12,237.159 344.454,237.826 347.5,240C 348.056,244.039 349.056,247.872 350.5,251.5 Z"/></g>
<g><path style="opacity:1" fill="#bcb5eb" d="M 134.5,240.5 C 140.386,241.39 146.053,242.723 151.5,244.5C 145.69,245.49 139.69,245.823 133.5,245.5C 134.038,243.883 134.371,242.216 134.5,240.5 Z"/></g>
<g><path style="opacity:1" fill="#715cce" d="M 56.5,241.5 C 57.7413,245.991 57.7413,247.324 56.5,245.5C 51.1667,245.167 51.1667,244.833 56.5,244.5C 56.5,243.5 56.5,242.5 56.5,241.5 Z"/></g>
<g><path style="opacity:1" fill="#a499d7" d="M 58.5,240.5 C 62.5948,240.084 65.9281,241.417 68.5,244.5C 69.3333,243.5 70.1667,242.5 71,241.5C 72.7129,244.015 72.8795,246.682 71.5,249.5C 70.8576,246.203 69.6909,245.869 68,248.5C 67.0853,247.672 66.4186,246.672 66,245.5C 65.6667,246.5 65.3333,247.5 65,248.5C 64.5045,246.527 64.3379,244.527 64.5,242.5C 63.5,242.5 62.5,242.5 61.5,242.5C 61.6621,244.527 61.4955,246.527 61,248.5C 60.6498,245.62 59.8165,242.953 58.5,240.5 Z"/></g>
<g><path style="opacity:1" fill="#9e94d5" d="M 73.5,241.5 C 74.0882,243.907 75.0882,246.24 76.5,248.5C 75.675,249.386 74.675,249.719 73.5,249.5C 73.5,246.833 73.5,244.167 73.5,241.5 Z"/></g>
<g><path style="opacity:1" fill="#6b55ce" d="M 197.5,252.5 C 197.5,250.167 197.5,247.833 197.5,245.5C 200.167,245.5 202.833,245.5 205.5,245.5C 205.5,247.833 205.5,250.167 205.5,252.5C 202.833,252.5 200.167,252.5 197.5,252.5 Z"/></g>
<g><path style="opacity:0.837" fill="#f0f0f4" d="M 118.5,245.5 C 119.425,251.801 118.092,257.468 114.5,262.5C 109.833,262.5 105.167,262.5 100.5,262.5C 100.5,256.833 100.5,251.167 100.5,245.5C 106.5,245.5 112.5,245.5 118.5,245.5 Z M 102.5,253.5 C 101.908,256.127 101.575,258.794 101.5,261.5C 110.485,260.1 110.818,257.433 102.5,253.5 Z"/></g>
<g><path style="opacity:0.763" fill="#f3f4f4" d="M 151.5,244.5 C 159.387,246.972 167.387,249.139 175.5,251C 178.924,251.747 182.257,251.58 185.5,250.5C 185.5,254.5 185.5,258.5 185.5,262.5C 168.167,262.5 150.833,262.5 133.5,262.5C 133.737,261.209 133.404,260.209 132.5,259.5C 132.181,254.637 132.514,249.97 133.5,245.5C 139.69,245.823 145.69,245.49 151.5,244.5 Z M 142.5,255.5 C 139.523,258.212 140.023,259.878 144,260.5C 152.122,260.366 160.289,260.2 168.5,260C 159.835,258.351 151.168,256.851 142.5,255.5 Z"/></g>
<g><path style="opacity:0.988" fill="#dbd3f0" d="M 247.5,243.5 C 248.461,245.265 248.795,247.265 248.5,249.5C 235.5,249.5 222.5,249.5 209.5,249.5C 209.5,248.5 209.5,247.5 209.5,246.5C 220.833,246.5 232.167,246.5 243.5,246.5C 244.833,246.5 246.167,246.5 247.5,246.5C 247.5,245.5 247.5,244.5 247.5,243.5 Z"/></g>
<g><path style="opacity:0.992" fill="#ddd5f2" d="M 264.5,246.5 C 272.833,246.5 281.167,246.5 289.5,246.5C 304.5,246.5 319.5,246.5 334.5,246.5C 334.5,247.5 334.5,248.5 334.5,249.5C 311.167,249.5 287.833,249.5 264.5,249.5C 264.5,248.5 264.5,247.5 264.5,246.5 Z"/></g>
<g><path style="opacity:0.597" fill="#f0eff2" d="M 334.5,245.5 C 335.223,249.144 336.223,252.811 337.5,256.5C 311.5,256.5 285.5,256.5 259.5,256.5C 260.795,255.512 262.128,254.512 263.5,253.5C 263.47,254.497 263.97,255.164 265,255.5C 267.987,253.024 271.154,252.858 274.5,255C 294.833,255.667 315.167,255.667 335.5,255C 334.845,253.513 333.845,252.347 332.5,251.5C 309.794,250.512 287.128,250.512 264.5,251.5C 264.5,250.833 264.5,250.167 264.5,249.5C 287.833,249.5 311.167,249.5 334.5,249.5C 334.5,248.5 334.5,247.5 334.5,246.5C 334.5,246.167 334.5,245.833 334.5,245.5 Z"/></g>
<g><path style="opacity:0.993" fill="#dfd8f3" d="M 6.5,257.5 C 11.5,257.5 16.5,257.5 21.5,257.5C 21.6653,261.182 21.4986,264.848 21,268.5C 20.3333,269.167 19.6667,269.833 19,270.5C 14.709,269.075 10.3757,267.742 6,266.5C 5.26423,263.408 5.43089,260.408 6.5,257.5 Z"/></g>
<g><path style="opacity:1" fill="#dcd4f3" d="M 199.5,256.5 C 201.167,256.5 202.833,256.5 204.5,256.5C 204.5,263.833 204.5,271.167 204.5,278.5C 202.833,278.5 201.167,278.5 199.5,278.5C 199.5,271.167 199.5,263.833 199.5,256.5 Z"/></g>
<g><path style="opacity:0.965" fill="#dcd4f2" d="M 249.5,256.5 C 249.5,257.167 249.5,257.833 249.5,258.5C 248.222,258.782 247.222,259.449 246.5,260.5C 245.081,259.549 243.415,259.216 241.5,259.5C 230.833,259.5 220.167,259.5 209.5,259.5C 209.5,258.5 209.5,257.5 209.5,256.5C 222.833,256.5 236.167,256.5 249.5,256.5 Z"/></g>
<g><path style="opacity:0.959" fill="#dcd5f1" d="M 259.5,256.5 C 285.5,256.5 311.5,256.5 337.5,256.5C 338.5,256.5 339.5,256.5 340.5,256.5C 340.5,257.5 340.5,258.5 340.5,259.5C 340.167,259.5 339.833,259.5 339.5,259.5C 314.5,259.5 289.5,259.5 264.5,259.5C 263.178,259.67 262.011,259.337 261,258.5C 260.536,259.094 260.369,259.761 260.5,260.5C 258.901,260.768 257.568,260.434 256.5,259.5C 257.5,259.5 258.5,259.5 259.5,259.5C 259.5,258.5 259.5,257.5 259.5,256.5 Z"/></g>
<g><path style="opacity:1" fill="#45289a" d="M 249.5,258.5 C 251.806,258.993 254.139,259.326 256.5,259.5C 257.568,260.434 258.901,260.768 260.5,260.5C 262.074,262.102 262.741,264.102 262.5,266.5C 262.232,268.099 262.566,269.432 263.5,270.5C 263.5,271.5 263.5,272.5 263.5,273.5C 263.198,276.059 263.532,278.393 264.5,280.5C 265.87,282.25 266.87,284.25 267.5,286.5C 269.243,289.75 271.577,292.584 274.5,295C 290.497,295.5 306.497,295.667 322.5,295.5C 317.511,299.331 312.178,302.664 306.5,305.5C 303.5,305.5 300.5,305.5 297.5,305.5C 295.901,305.232 294.568,305.566 293.5,306.5C 293.107,308.284 292.441,309.95 291.5,311.5C 285.297,310.377 279.297,308.544 273.5,306C 270.446,305.179 267.446,305.345 264.5,306.5C 265.598,310.423 266.265,314.423 266.5,318.5C 266.167,318.5 265.833,318.5 265.5,318.5C 256.833,318.5 248.167,318.5 239.5,318.5C 238.592,325.407 239.925,331.74 243.5,337.5C 242.833,337.5 242.167,337.5 241.5,337.5C 226.833,337.5 212.167,337.5 197.5,337.5C 197.062,337.565 196.728,337.399 196.5,337C 198.939,334.278 199.606,331.278 198.5,328C 199.737,327.768 200.737,327.268 201.5,326.5C 202.834,319.499 204.167,312.499 205.5,305.5C 199.833,305.5 194.167,305.5 188.5,305.5C 187.778,305.082 187.278,304.416 187,303.5C 186.329,304.252 185.496,304.586 184.5,304.5C 167.83,304.667 151.163,304.5 134.5,304C 135.435,301.619 135.768,299.119 135.5,296.5C 170.671,296.832 205.671,296.498 240.5,295.5C 239.701,292.57 239.368,289.57 239.5,286.5C 239.5,282.833 239.5,279.167 239.5,275.5C 239.517,273.435 239.85,271.435 240.5,269.5C 241.401,268.71 242.068,267.71 242.5,266.5C 242.845,263.802 244.178,261.802 246.5,260.5C 247.222,259.449 248.222,258.782 249.5,258.5 Z"/></g>
<g><path style="opacity:1" fill="#e8c975" d="M 350.5,258.5 C 353.823,259.492 357.156,260.492 360.5,261.5C 363.149,263.412 364.482,266.079 364.5,269.5C 365.358,277.132 365.691,284.799 365.5,292.5C 365.5,293.5 365.5,294.5 365.5,295.5C 365.089,298.553 364.423,301.553 363.5,304.5C 363.624,305.107 363.957,305.44 364.5,305.5C 362.836,309.496 361.169,313.496 359.5,317.5C 356.517,320.76 353.517,324.094 350.5,327.5C 348.821,327.715 347.821,327.048 347.5,325.5C 347.586,323.323 348.253,321.323 349.5,319.5C 344.212,318.438 338.879,317.771 333.5,317.5C 333.5,318.5 333.5,319.5 333.5,320.5C 332.275,315.71 331.608,310.71 331.5,305.5C 331.071,302.253 329.738,302.253 327.5,305.5C 320.154,308.837 312.487,311.17 304.5,312.5C 303.539,310.735 303.205,308.735 303.5,306.5C 304.791,306.737 305.791,306.404 306.5,305.5C 312.178,302.664 317.511,299.331 322.5,295.5C 327.205,293.799 329.538,290.466 329.5,285.5C 329.5,284.5 329.5,283.5 329.5,282.5C 330.913,279.781 331.58,276.781 331.5,273.5C 331.5,272.833 331.5,272.167 331.5,271.5C 332.285,269.626 332.952,267.626 333.5,265.5C 333.229,263.62 333.896,262.287 335.5,261.5C 336.995,261.011 338.329,260.345 339.5,259.5C 339.833,259.5 340.167,259.5 340.5,259.5C 341.312,260.993 342.645,261.66 344.5,261.5C 346.955,261.372 348.955,260.372 350.5,258.5 Z"/></g>
<g><path style="opacity:0.198" fill="#f1f1f2" d="M 264.5,259.5 C 289.5,259.5 314.5,259.5 339.5,259.5C 338.329,260.345 336.995,261.011 335.5,261.5C 311.833,260.833 288.167,260.167 264.5,259.5 Z"/></g>
<g><path style="opacity:0.847" fill="#d9d1f1" d="M 239.5,266.5 C 240.5,266.5 241.5,266.5 242.5,266.5C 242.068,267.71 241.401,268.71 240.5,269.5C 240.5,268.833 240.167,268.5 239.5,268.5C 199.5,267.833 199.5,267.167 239.5,266.5 Z"/></g>
<g><path style="opacity:0.957" fill="#e0daf3" d="M 333.5,265.5 C 332.952,267.626 332.285,269.626 331.5,271.5C 321.043,269.983 310.376,269.317 299.5,269.5C 291.787,269.516 284.12,269.849 276.5,270.5C 272.3,269.863 268.134,269.196 264,268.5C 263.536,269.094 263.369,269.761 263.5,270.5C 262.566,269.432 262.232,268.099 262.5,266.5C 286.145,265.551 309.811,265.218 333.5,265.5 Z"/></g>
<g><path style="opacity:1" fill="#181619" d="M 417.5,271.5 C 417.083,272.124 416.416,272.457 415.5,272.5C 411.669,271.973 408.002,271.306 404.5,270.5C 405.82,269.058 407.486,268.392 409.5,268.5C 412.096,267.735 414.763,267.401 417.5,267.5C 417.5,268.833 417.5,270.167 417.5,271.5 Z"/></g>
<g><path style="opacity:1" fill="#201e1f" d="M 38.5,280.5 C 35.6924,278.162 32.359,276.829 28.5,276.5C 27.8333,278.5 27.1667,280.5 26.5,282.5C 25.8243,281.398 25.1577,280.398 24.5,279.5C 23.0262,277.073 23.1929,274.74 25,272.5C 32.7194,266.102 38.2194,267.435 41.5,276.5C 40.8284,278.16 39.8284,279.493 38.5,280.5 Z"/></g>
<g><path style="opacity:0.696" fill="#eeeef3" d="M 113.5,269.5 C 114.917,272.998 115.583,276.665 115.5,280.5C 111.982,276.982 107.649,274.982 102.5,274.5C 102.058,278.154 101.724,281.821 101.5,285.5C 106.343,285.778 111.01,285.111 115.5,283.5C 115.5,284.5 115.5,285.5 115.5,286.5C 110.5,286.5 105.5,286.5 100.5,286.5C 100.5,280.833 100.5,275.167 100.5,269.5C 104.833,269.5 109.167,269.5 113.5,269.5 Z"/></g>
<g><path style="opacity:1" fill="#1d1b1d" d="M 432.5,266.5 C 434.117,267.038 435.784,267.371 437.5,267.5C 437.5,268.167 437.5,268.833 437.5,269.5C 435.952,270.794 433.952,271.461 431.5,271.5C 429.304,271.495 427.304,271.162 425.5,270.5C 427.26,268.441 429.594,267.108 432.5,266.5 Z"/></g>
<g><path style="opacity:0.985" fill="#ded8f1" d="M 237.5,275.5 C 238.167,275.5 238.833,275.5 239.5,275.5C 239.5,279.167 239.5,282.833 239.5,286.5C 239.167,286.5 238.833,286.5 238.5,286.5C 238.663,284.143 238.497,281.81 238,279.5C 235.681,281.936 233.181,282.103 230.5,280C 223.321,279.829 216.321,279.329 209.5,278.5C 209.5,277.5 209.5,276.5 209.5,275.5C 218.833,275.5 228.167,275.5 237.5,275.5 Z"/></g>
<g><path style="opacity:0.959" fill="#dfd9f1" d="M 263.5,273.5 C 264.261,274.391 265.261,275.058 266.5,275.5C 287.721,275.236 308.888,275.236 330,275.5C 330.278,274.584 330.778,273.918 331.5,273.5C 331.58,276.781 330.913,279.781 329.5,282.5C 329.5,281.5 329.5,280.5 329.5,279.5C 308.121,279.822 286.788,279.489 265.5,278.5C 264.702,278.957 264.369,279.624 264.5,280.5C 263.532,278.393 263.198,276.059 263.5,273.5 Z"/></g>
<g><path style="opacity:1" fill="#cfb19e" d="M 38.5,280.5 C 38.3287,286.785 35.3287,290.785 29.5,292.5C 27.8008,292.66 26.1341,292.494 24.5,292C 23.4677,290.373 22.1344,289.207 20.5,288.5C 21.4577,287.038 22.6244,285.705 24,284.5C 24.4935,282.866 24.6602,281.199 24.5,279.5C 25.1577,280.398 25.8243,281.398 26.5,282.5C 27.1667,280.5 27.8333,278.5 28.5,276.5C 32.359,276.829 35.6924,278.162 38.5,280.5 Z"/></g>
<g><path style="opacity:0.999" fill="#b7b0e9" d="M 329.5,285.5 C 329.538,290.466 327.205,293.799 322.5,295.5C 306.497,295.667 290.497,295.5 274.5,295C 271.577,292.584 269.243,289.75 267.5,286.5C 288.545,286.76 309.211,286.427 329.5,285.5 Z"/></g>
<g><path style="opacity:1" fill="#735dca" d="M 437.5,269.5 C 439.379,270.341 441.379,270.675 443.5,270.5C 444.275,274.814 444.941,279.147 445.5,283.5C 445.5,285.167 445.5,286.833 445.5,288.5C 443.265,288.205 441.265,288.539 439.5,289.5C 439.5,290.167 439.5,290.833 439.5,291.5C 438.833,290.5 438.167,289.5 437.5,288.5C 427.5,288.5 417.5,288.5 407.5,288.5C 407.263,289.791 407.596,290.791 408.5,291.5C 408.993,293.806 409.326,296.139 409.5,298.5C 409.737,299.791 409.404,300.791 408.5,301.5C 407.79,297.975 406.79,294.642 405.5,291.5C 405.5,290.833 405.5,290.167 405.5,289.5C 405.232,287.901 405.566,286.568 406.5,285.5C 411.456,286.828 416.789,287.495 422.5,287.5C 428.011,287.499 433.344,287.166 438.5,286.5C 439.04,283.135 439.706,279.802 440.5,276.5C 441.043,276.44 441.376,276.107 441.5,275.5C 429.18,274.334 416.847,274.167 404.5,275C 403.226,275.977 403.226,276.811 404.5,277.5C 404.631,278.239 404.464,278.906 404,279.5C 402.583,278.922 401.75,277.922 401.5,276.5C 401.5,274.5 401.5,272.5 401.5,270.5C 402.5,270.5 403.5,270.5 404.5,270.5C 408.002,271.306 411.669,271.973 415.5,272.5C 416.416,272.457 417.083,272.124 417.5,271.5C 420.059,271.802 422.393,271.468 424.5,270.5C 424.833,270.5 425.167,270.5 425.5,270.5C 427.304,271.162 429.304,271.495 431.5,271.5C 433.952,271.461 435.952,270.794 437.5,269.5 Z M 442.5,281.5 C 443.788,283.035 443.788,284.701 442.5,286.5C 441.334,284.833 441.334,283.166 442.5,281.5 Z"/></g>
<g><path style="opacity:0.644" fill="#aca0e0" d="M 406.5,285.5 C 417.085,286.476 427.752,286.809 438.5,286.5C 433.344,287.166 428.011,287.499 422.5,287.5C 416.789,287.495 411.456,286.828 406.5,285.5 Z"/></g>
<g><path style="opacity:0.326" fill="#f2f0f9" d="M 406.5,275.5 C 410.167,275.5 413.833,275.5 417.5,275.5C 413.808,278.011 410.142,278.011 406.5,275.5 Z"/></g>
<g><path style="opacity:0.997" fill="#a496de" d="M 440.5,276.5 C 432.976,276.028 425.309,275.695 417.5,275.5C 413.833,275.5 410.167,275.5 406.5,275.5C 405.5,275.833 404.833,276.5 404.5,277.5C 403.226,276.811 403.226,275.977 404.5,275C 416.847,274.167 429.18,274.334 441.5,275.5C 441.376,276.107 441.043,276.44 440.5,276.5 Z"/></g>
<g><path style="opacity:0.168" fill="#d7d1f0" d="M 437.5,288.5 C 437.5,288.833 437.5,289.167 437.5,289.5C 427.442,288.86 417.775,289.527 408.5,291.5C 407.596,290.791 407.263,289.791 407.5,288.5C 417.5,288.5 427.5,288.5 437.5,288.5 Z"/></g>
<g><path style="opacity:1" fill="#6c55cc" d="M 20.5,288.5 C 22.1344,289.207 23.4677,290.373 24.5,292C 26.1341,292.494 27.8008,292.66 29.5,292.5C 32.3644,294.023 34.031,296.357 34.5,299.5C 33.4269,305.532 33.4269,311.532 34.5,317.5C 35.3414,319.379 35.6747,321.379 35.5,323.5C 34.2921,322.766 32.9587,322.433 31.5,322.5C 27.3142,321.985 24.6475,319.652 23.5,315.5C 23.5,312.167 23.5,308.833 23.5,305.5C 20.5,305.5 17.5,305.5 14.5,305.5C 13.8333,305.5 13.1667,305.5 12.5,305.5C 11.342,297.951 14.0087,292.285 20.5,288.5 Z"/></g>
<g><path style="opacity:0.978" fill="#fbfafd" d="M 405.5,291.5 C 406.79,294.642 407.79,297.975 408.5,301.5C 408.216,303.415 408.549,305.081 409.5,306.5C 409.216,308.415 409.549,310.081 410.5,311.5C 411.373,316.534 412.373,321.534 413.5,326.5C 413.5,328.167 413.5,329.833 413.5,331.5C 407.305,331.324 401.138,331.657 395,332.5C 393.319,332.392 392.152,331.725 391.5,330.5C 393.653,321.255 395.486,311.922 397,302.5C 397.738,298.89 398.905,295.557 400.5,292.5C 400.47,293.497 400.97,294.164 402,294.5C 403.95,294.293 405.116,293.293 405.5,291.5 Z"/></g>
<g><path style="opacity:1" fill="#9886d7" d="M 445.5,283.5 C 448.579,293.212 450.913,303.212 452.5,313.5C 451.662,313.842 451.328,314.508 451.5,315.5C 451.167,315.5 450.833,315.5 450.5,315.5C 449.358,311.929 448.691,308.262 448.5,304.5C 444.5,304.5 440.5,304.5 436.5,304.5C 439.977,303.677 443.644,303.177 447.5,303C 443.344,303.052 439.51,302.219 436,300.5C 427.434,302.454 418.601,303.12 409.5,302.5C 409.5,303.833 409.5,305.167 409.5,306.5C 408.549,305.081 408.216,303.415 408.5,301.5C 409.404,300.791 409.737,299.791 409.5,298.5C 410.404,299.209 410.737,300.209 410.5,301.5C 418.528,301.831 426.528,301.498 434.5,300.5C 435.659,296.864 436.659,293.198 437.5,289.5C 437.5,289.167 437.5,288.833 437.5,288.5C 438.167,289.5 438.833,290.5 439.5,291.5C 439.089,294.553 438.423,297.553 437.5,300.5C 440.833,301.833 444.167,301.833 447.5,300.5C 446.605,297.192 445.771,293.859 445,290.5C 443.301,289.594 441.467,289.261 439.5,289.5C 441.265,288.539 443.265,288.205 445.5,288.5C 445.5,286.833 445.5,285.167 445.5,283.5 Z M 439.5,289.5 C 441.467,289.261 443.301,289.594 445,290.5C 445.771,293.859 446.605,297.192 447.5,300.5C 444.167,301.833 440.833,301.833 437.5,300.5C 438.423,297.553 439.089,294.553 439.5,291.5C 439.5,290.833 439.5,290.167 439.5,289.5 Z"/></g>
<g><path style="opacity:1" fill="#6b55cb" d="M 436.5,304.5 C 435.732,305.263 435.232,306.263 435,307.5C 434.51,306.207 434.343,304.873 434.5,303.5C 426.5,303.5 418.5,303.5 410.5,303.5C 410.737,304.791 410.404,305.791 409.5,306.5C 409.5,305.167 409.5,303.833 409.5,302.5C 418.601,303.12 427.434,302.454 436,300.5C 439.51,302.219 443.344,303.052 447.5,303C 443.644,303.177 439.977,303.677 436.5,304.5 Z"/></g>
<g><path style="opacity:1" fill="#583c9d" d="M 331.5,305.5 C 330.167,305.5 328.833,305.5 327.5,305.5C 329.738,302.253 331.071,302.253 331.5,305.5 Z"/></g>
<g><path style="opacity:0.48" fill="#b1a4dd" d="M 436.5,304.5 C 436.58,307.781 435.913,310.781 434.5,313.5C 434.768,311.901 434.434,310.568 433.5,309.5C 433.5,307.833 433.5,306.167 433.5,304.5C 426.167,304.5 418.833,304.5 411.5,304.5C 411.5,305.5 411.5,306.5 411.5,307.5C 410.566,308.568 410.232,309.901 410.5,311.5C 409.549,310.081 409.216,308.415 409.5,306.5C 410.404,305.791 410.737,304.791 410.5,303.5C 418.5,303.5 426.5,303.5 434.5,303.5C 434.343,304.873 434.51,306.207 435,307.5C 435.232,306.263 435.732,305.263 436.5,304.5 Z"/></g>
<g><path style="opacity:0.999" fill="#d0b6a7" d="M 124.5,305.5 C 122.291,314.041 121.458,322.708 122,331.5C 123.271,332.883 124.771,333.883 126.5,334.5C 126.5,334.833 126.5,335.167 126.5,335.5C 123.994,334.25 121.327,333.584 118.5,333.5C 118.5,334.833 118.5,336.167 118.5,337.5C 121.167,337.5 123.833,337.5 126.5,337.5C 123.713,338.477 120.713,338.81 117.5,338.5C 117.5,335.833 117.5,333.167 117.5,330.5C 115.432,322.269 115.099,313.936 116.5,305.5C 117.713,304.425 119.213,303.759 121,303.5C 122.681,303.608 123.848,304.275 124.5,305.5 Z"/></g>
<g><path style="opacity:1" fill="#d4baaa" d="M 133.5,305.5 C 133.222,314.553 133.556,323.553 134.5,332.5C 131.516,332.787 130.183,334.454 130.5,337.5C 129.532,335.393 129.198,333.059 129.5,330.5C 126.027,321.593 125.027,313.26 126.5,305.5C 127.152,304.275 128.319,303.608 130,303.5C 131.681,303.608 132.848,304.275 133.5,305.5 Z"/></g>
<g><path style="opacity:0.993" fill="#c2d7f4" d="M 188.5,305.5 C 189.458,306.962 190.624,308.295 192,309.5C 192.333,311.5 192.667,313.5 193,315.5C 196.707,318.25 198.207,321.916 197.5,326.5C 198.833,326.5 200.167,326.5 201.5,326.5C 200.737,327.268 199.737,327.768 198.5,328C 199.606,331.278 198.939,334.278 196.5,337C 196.728,337.399 197.062,337.565 197.5,337.5C 198.242,339.98 199.242,342.313 200.5,344.5C 198.196,343.502 195.863,343.335 193.5,344C 194.687,342.981 195.687,341.814 196.5,340.5C 196,340.167 195.5,339.833 195,339.5C 192.365,341.515 189.865,343.348 187.5,345C 188.516,343.323 189.516,341.657 190.5,340C 190.37,338.941 189.87,338.108 189,337.5C 185.229,339.77 183.396,343.104 183.5,347.5C 187.228,347.156 190.895,346.49 194.5,345.5C 196.071,346.309 197.738,346.643 199.5,346.5C 196.758,348.05 194.091,349.883 191.5,352C 187.141,352.534 182.808,352.368 178.5,351.5C 178.5,351.167 178.5,350.833 178.5,350.5C 179.973,349.928 181.307,349.095 182.5,348C 181.555,346.089 181.555,344.089 182.5,342C 180.427,339.278 179.427,336.112 179.5,332.5C 178.448,332.351 177.448,332.517 176.5,333C 174.971,336.029 172.638,338.195 169.5,339.5C 168.479,338.998 168.312,338.332 169,337.5C 174.137,336.001 175.804,332.667 174,327.5C 173.311,326.643 172.478,325.977 171.5,325.5C 169.9,327.69 168.066,329.69 166,331.5C 167.207,329.05 167.873,326.383 168,323.5C 166.556,321.845 164.722,321.178 162.5,321.5C 162.799,323.604 162.466,325.604 161.5,327.5C 160.751,324.473 160.084,321.473 159.5,318.5C 161.06,318.481 162.56,318.148 164,317.5C 166.112,318.608 167.946,320.108 169.5,322C 170.167,322.667 170.833,322.667 171.5,322C 166.406,315.28 168.073,311.28 176.5,310C 177.357,307.981 178.691,306.481 180.5,305.5C 182.099,305.768 183.432,305.434 184.5,304.5C 185.496,304.586 186.329,304.252 187,303.5C 187.278,304.416 187.778,305.082 188.5,305.5 Z M 176.5,312.5 C 178.105,314.308 178.439,316.308 177.5,318.5C 175.834,316.579 175.5,314.579 176.5,312.5 Z M 189.5,318.5 C 189.585,319.995 188.919,320.995 187.5,321.5C 186.361,319.604 187.027,318.604 189.5,318.5 Z"/></g>
<g><path style="opacity:1" fill="#cdb0a3" d="M 14.5,305.5 C 17.5,305.5 20.5,305.5 23.5,305.5C 23.5,308.833 23.5,312.167 23.5,315.5C 21.7284,312.406 19.0617,310.406 15.5,309.5C 14.5713,308.311 14.238,306.978 14.5,305.5 Z"/></g>
<g><path style="opacity:0.987" fill="#ccaf9e" d="M 34.5,299.5 C 35.1347,302.825 36.1347,306.158 37.5,309.5C 45.0238,310.809 52.3571,310.143 59.5,307.5C 60.3081,307.808 60.9747,308.308 61.5,309C 53.0435,313.531 44.0435,316.365 34.5,317.5C 33.4269,311.532 33.4269,305.532 34.5,299.5 Z"/></g>
<g><path style="opacity:1" fill="#d8bfb1" d="M 297.5,305.5 C 300.5,305.5 303.5,305.5 306.5,305.5C 305.791,306.404 304.791,306.737 303.5,306.5C 303.205,308.735 303.539,310.735 304.5,312.5C 300.072,314.994 295.739,314.661 291.5,311.5C 292.441,309.95 293.107,308.284 293.5,306.5C 295.456,308.175 296.789,307.842 297.5,305.5 Z"/></g>
<g><path style="opacity:1" fill="#d7cfee" d="M 12.5,305.5 C 13.1667,305.5 13.8333,305.5 14.5,305.5C 14.238,306.978 14.5713,308.311 15.5,309.5C 19.0617,310.406 21.7284,312.406 23.5,315.5C 24.6475,319.652 27.3142,321.985 31.5,322.5C 30.1266,322.343 28.7932,322.51 27.5,323C 29.8887,325.86 32.8887,327.693 36.5,328.5C 41.1395,329.712 45.8062,330.879 50.5,332C 53.962,334.239 55.2954,337.406 54.5,341.5C 54.5,342.5 54.5,343.5 54.5,344.5C 52.3875,345.44 50.3875,346.606 48.5,348C 44.8433,348.05 41.51,348.883 38.5,350.5C 37.1286,349.213 35.2953,348.547 33,348.5C 30.7047,348.547 28.8714,349.213 27.5,350.5C 23.3822,349.166 19.5489,347.166 16,344.5C 12.9395,337.379 9.60616,330.379 6,323.5C 3.95049,316.786 5.95049,311.786 12,308.5C 12.4828,307.552 12.6495,306.552 12.5,305.5 Z"/></g>
<g><path style="opacity:0.999" fill="#e7bc71" d="M 159.5,318.5 C 160.084,321.473 160.751,324.473 161.5,327.5C 162.466,325.604 162.799,323.604 162.5,321.5C 164.722,321.178 166.556,321.845 168,323.5C 167.873,326.383 167.207,329.05 166,331.5C 168.066,329.69 169.9,327.69 171.5,325.5C 172.478,325.977 173.311,326.643 174,327.5C 175.804,332.667 174.137,336.001 169,337.5C 168.312,338.332 168.479,338.998 169.5,339.5C 172.638,338.195 174.971,336.029 176.5,333C 177.448,332.517 178.448,332.351 179.5,332.5C 179.427,336.112 180.427,339.278 182.5,342C 181.555,344.089 181.555,346.089 182.5,348C 181.307,349.095 179.973,349.928 178.5,350.5C 177.699,348.958 177.366,347.292 177.5,345.5C 174.135,346.04 170.802,346.706 167.5,347.5C 166.833,347.5 166.5,347.833 166.5,348.5C 163.365,351.134 159.865,353.134 156,354.5C 151.464,353.464 148.297,350.798 146.5,346.5C 146.328,345.508 146.662,344.842 147.5,344.5C 148.833,344.167 148.833,343.833 147.5,343.5C 145.774,341.18 145.107,338.513 145.5,335.5C 146.552,335.649 147.552,335.483 148.5,335C 145.623,331.284 146.289,328.284 150.5,326C 149.154,323.206 149.654,320.706 152,318.5C 154.605,317.186 157.105,317.186 159.5,318.5 Z"/></g>
<g><path style="opacity:1" fill="#6c56cd" d="M 347.5,325.5 C 345.466,327.365 344.799,329.532 345.5,332C 346.793,332.49 348.127,332.657 349.5,332.5C 349.629,330.784 349.962,329.117 350.5,327.5C 353.517,324.094 356.517,320.76 359.5,317.5C 359.5,317.833 359.5,318.167 359.5,318.5C 360.006,324.469 359.006,330.135 356.5,335.5C 355.454,342.13 355.287,348.797 356,355.5C 360.419,370.17 360.586,384.837 356.5,399.5C 354.097,399.552 351.764,399.219 349.5,398.5C 349.923,397.735 350.257,396.902 350.5,396C 350.222,388.461 349.222,381.294 347.5,374.5C 347.664,371.813 347.497,369.146 347,366.5C 339.969,355.188 336.469,343.022 336.5,330C 335.68,326.687 334.68,323.521 333.5,320.5C 333.5,319.5 333.5,318.5 333.5,317.5C 338.879,317.771 344.212,318.438 349.5,319.5C 348.253,321.323 347.586,323.323 347.5,325.5 Z"/></g>
<g><path style="opacity:1" fill="#e6ba6b" d="M 265.5,318.5 C 265.5,320.167 265.5,321.833 265.5,323.5C 262.754,333.835 260.254,344.501 258,355.5C 256.269,359.295 254.269,362.962 252,366.5C 251.501,370.152 251.335,373.818 251.5,377.5C 250.883,377.389 250.383,377.056 250,376.5C 249.5,383.826 249.334,391.159 249.5,398.5C 247.194,398.993 244.861,399.326 242.5,399.5C 240.585,392.841 239.585,386.008 239.5,379C 240.595,368.459 241.928,357.959 243.5,347.5C 243.5,344.167 243.5,340.833 243.5,337.5C 239.925,331.74 238.592,325.407 239.5,318.5C 248.167,318.5 256.833,318.5 265.5,318.5 Z"/></g>
<g><path style="opacity:0.694" fill="#9685da" d="M 452.5,314.5 C 454.612,320.61 456.279,326.943 457.5,333.5C 457.179,335.048 456.179,335.715 454.5,335.5C 454.802,332.941 454.468,330.607 453.5,328.5C 452.962,325.811 452.295,323.144 451.5,320.5C 445.537,319.504 439.537,319.171 433.5,319.5C 439.645,318.51 445.978,318.177 452.5,318.5C 452.5,317.167 452.5,315.833 452.5,314.5 Z"/></g>
<g><path style="opacity:0.549" fill="#959397" d="M 60.5,327.5 C 60.1667,327.5 59.8333,327.5 59.5,327.5C 59.5,326.167 58.8333,325.5 57.5,325.5C 59.2961,319.445 61.2961,313.445 63.5,307.5C 63.8333,307.833 64.1667,308.167 64.5,308.5C 62.3983,314.676 61.0649,321.009 60.5,327.5 Z"/></g>
<g><path style="opacity:0.867" fill="#fbfafc" d="M 359.5,318.5 C 360.482,319.141 361.482,319.807 362.5,320.5C 364.098,319.515 365.765,319.349 367.5,320C 371.327,321.746 374.993,323.746 378.5,326C 382.152,326.499 385.818,326.665 389.5,326.5C 389.167,328.5 388.833,330.5 388.5,332.5C 384.265,333.436 379.931,333.769 375.5,333.5C 370.97,333.597 366.47,333.264 362,332.5C 359.624,332.685 357.791,333.685 356.5,335.5C 359.006,330.135 360.006,324.469 359.5,318.5 Z"/></g>
<g><path style="opacity:0.994" fill="#ceb2a1" d="M 31.5,322.5 C 32.9587,322.433 34.2921,322.766 35.5,323.5C 37.4147,323.216 39.0813,323.549 40.5,324.5C 42.9686,325.317 45.6353,325.817 48.5,326C 49.056,326.383 49.3893,326.883 49.5,327.5C 44.9677,327.182 40.6344,327.515 36.5,328.5C 32.8887,327.693 29.8887,325.86 27.5,323C 28.7932,322.51 30.1266,322.343 31.5,322.5 Z"/></g>
<g><path style="opacity:1" fill="#735ab3" d="M 401.5,276.5 C 401.75,277.922 402.583,278.922 404,279.5C 404.464,278.906 404.631,278.239 404.5,277.5C 405.531,279.961 406.198,282.627 406.5,285.5C 405.566,286.568 405.232,287.901 405.5,289.5C 404.531,287.337 403.698,285.004 403,282.5C 401.722,285.721 400.889,289.054 400.5,292.5C 398.905,295.557 397.738,298.89 397,302.5C 395.486,311.922 393.653,321.255 391.5,330.5C 390.837,332.042 390.17,333.709 389.5,335.5C 388.614,334.675 388.281,333.675 388.5,332.5C 388.833,330.5 389.167,328.5 389.5,326.5C 393.212,309.655 397.212,292.988 401.5,276.5 Z"/></g>
<g><path style="opacity:1" fill="#363434" d="M 40.5,324.5 C 46.1956,324.447 51.8623,324.78 57.5,325.5C 58.8333,325.5 59.5,326.167 59.5,327.5C 56.1667,327.5 52.8333,327.5 49.5,327.5C 49.3893,326.883 49.056,326.383 48.5,326C 45.6353,325.817 42.9686,325.317 40.5,324.5 Z"/></g>
<g><path style="opacity:0.359" fill="#c3b7d5" d="M 265.5,318.5 C 265.833,318.5 266.167,318.5 266.5,318.5C 266.5,321.167 266.5,323.833 266.5,326.5C 274.019,326.175 281.352,326.508 288.5,327.5C 280.833,327.5 273.167,327.5 265.5,327.5C 265.5,326.167 265.5,324.833 265.5,323.5C 265.5,321.833 265.5,320.167 265.5,318.5 Z"/></g>
<g><path style="opacity:0.999" fill="#4d309e" d="M 333.5,320.5 C 334.68,323.521 335.68,326.687 336.5,330C 336.469,343.022 339.969,355.188 347,366.5C 347.497,369.146 347.664,371.813 347.5,374.5C 347.495,383.192 345.828,391.526 342.5,399.5C 340.097,399.552 337.764,399.219 335.5,398.5C 338.635,384.025 338.135,369.691 334,355.5C 333.501,349.843 333.334,344.176 333.5,338.5C 333.5,335.167 333.5,331.833 333.5,328.5C 333.208,326.043 333.208,323.376 333.5,320.5 Z"/></g>
<g><path style="opacity:1" fill="#573ea2" d="M 187.5,327.5 C 189.857,327.337 192.19,327.503 194.5,328C 191.816,330.145 189.483,329.978 187.5,327.5 Z"/></g>
<g><path style="opacity:1" fill="#cbada0" d="M 347.5,325.5 C 347.821,327.048 348.821,327.715 350.5,327.5C 349.962,329.117 349.629,330.784 349.5,332.5C 348.127,332.657 346.793,332.49 345.5,332C 344.799,329.532 345.466,327.365 347.5,325.5 Z"/></g>
<g><path style="opacity:1" fill="#836cc9" d="M 411.5,307.5 C 412.481,310.421 413.315,313.421 414,316.5C 414.414,316.957 414.914,317.291 415.5,317.5C 420.814,316.878 426.147,316.211 431.5,315.5C 432.172,313.47 432.838,311.47 433.5,309.5C 434.434,310.568 434.768,311.901 434.5,313.5C 434.167,316.5 435.5,317.833 438.5,317.5C 443.294,318.097 447.627,317.43 451.5,315.5C 451.328,314.508 451.662,313.842 452.5,313.5C 452.5,313.833 452.5,314.167 452.5,314.5C 452.5,315.833 452.5,317.167 452.5,318.5C 445.978,318.177 439.645,318.51 433.5,319.5C 432.372,323.804 431.372,328.138 430.5,332.5C 429.842,333.398 429.176,334.398 428.5,335.5C 427.948,333.997 427.948,332.331 428.5,330.5C 429.008,326.803 429.674,323.136 430.5,319.5C 425.125,319.172 419.792,319.505 414.5,320.5C 415.802,323.708 416.469,327.041 416.5,330.5C 417.434,332.239 417.434,333.905 416.5,335.5C 415.616,332.344 414.616,329.344 413.5,326.5C 412.373,321.534 411.373,316.534 410.5,311.5C 410.232,309.901 410.566,308.568 411.5,307.5 Z M 428.5,330.5 C 424.603,329.449 420.603,329.449 416.5,330.5C 416.469,327.041 415.802,323.708 414.5,320.5C 419.792,319.505 425.125,319.172 430.5,319.5C 429.674,323.136 429.008,326.803 428.5,330.5 Z"/></g>
<g><path style="opacity:0.115" fill="#d9d3ed" d="M 450.5,315.5 C 450.833,315.5 451.167,315.5 451.5,315.5C 447.627,317.43 443.294,318.097 438.5,317.5C 442.5,316.833 446.5,316.167 450.5,315.5 Z"/></g>
<g><path style="opacity:1" fill="#e6ba6c" d="M 36.5,328.5 C 40.6344,327.515 44.9677,327.182 49.5,327.5C 52.8333,327.5 56.1667,327.5 59.5,327.5C 59.8333,327.5 60.1667,327.5 60.5,327.5C 62.9032,327.393 64.7365,328.393 66,330.5C 71.6494,344.461 77.8161,358.127 84.5,371.5C 82.1944,371.993 79.861,372.326 77.5,372.5C 75.5389,370.037 73.3722,367.703 71,365.5C 70.5172,366.448 70.3505,367.448 70.5,368.5C 68.4858,363.271 65.3191,358.605 61,354.5C 59.0511,350.371 57.8844,346.037 57.5,341.5C 56.5,341.5 55.5,341.5 54.5,341.5C 55.2954,337.406 53.962,334.239 50.5,332C 45.8062,330.879 41.1395,329.712 36.5,328.5 Z"/></g>
<g><path style="opacity:0.78" fill="#e6e6e6" d="M 333.5,328.5 C 333.5,331.833 333.5,335.167 333.5,338.5C 331.351,336.254 328.684,334.754 325.5,334C 319.646,333.296 313.813,332.462 308,331.5C 301.737,331.738 295.571,331.738 289.5,331.5C 289.5,330.5 289.5,329.5 289.5,328.5C 304.128,327.564 318.795,327.564 333.5,328.5 Z"/></g>
<g><path style="opacity:1" fill="#db9f53" d="M 265.5,323.5 C 265.5,324.833 265.5,326.167 265.5,327.5C 265.187,331.042 265.521,334.375 266.5,337.5C 266.322,340.879 266.322,344.045 266.5,347C 264.444,356.735 262.777,366.568 261.5,376.5C 261.948,383.861 262.614,391.194 263.5,398.5C 261.236,399.219 258.903,399.552 256.5,399.5C 253.597,392.454 251.93,385.121 251.5,377.5C 251.335,373.818 251.501,370.152 252,366.5C 254.269,362.962 256.269,359.295 258,355.5C 260.254,344.501 262.754,333.835 265.5,323.5 Z"/></g>
<g><path style="opacity:0.845" fill="#e5e5e5" d="M 117.5,330.5 C 117.5,333.167 117.5,335.833 117.5,338.5C 120.713,338.81 123.713,338.477 126.5,337.5C 126.5,336.833 126.5,336.167 126.5,335.5C 126.5,335.167 126.5,334.833 126.5,334.5C 127.978,333.552 128.978,332.219 129.5,330.5C 129.198,333.059 129.532,335.393 130.5,337.5C 132.833,337.5 135.167,337.5 137.5,337.5C 141.485,338.489 144.818,340.489 147.5,343.5C 147.5,343.833 147.5,344.167 147.5,344.5C 146.662,344.842 146.328,345.508 146.5,346.5C 132.572,344.823 118.572,343.323 104.5,342C 99.9828,341.737 95.6495,340.737 91.5,339C 90.2092,336.91 90.8758,335.576 93.5,335C 101.571,333.635 109.571,332.135 117.5,330.5 Z"/></g>
<g><path style="opacity:0.907" fill="#e6e5e7" d="M 413.5,326.5 C 414.616,329.344 415.616,332.344 416.5,335.5C 417.434,333.905 417.434,332.239 416.5,330.5C 420.603,329.449 424.603,329.449 428.5,330.5C 427.948,332.331 427.948,333.997 428.5,335.5C 429.176,334.398 429.842,333.398 430.5,332.5C 431.117,332.611 431.617,332.944 432,333.5C 435.01,331.817 438.01,330.15 441,328.5C 444.969,329.991 448.969,331.324 453,332.5C 453.49,331.207 453.657,329.873 453.5,328.5C 454.468,330.607 454.802,332.941 454.5,335.5C 456.179,335.715 457.179,335.048 457.5,333.5C 462.062,333.363 466.729,333.863 471.5,335C 472.337,336.011 472.67,337.178 472.5,338.5C 448.582,341.822 424.582,342.655 400.5,341C 391.666,339.549 383.333,337.049 375.5,333.5C 379.931,333.769 384.265,333.436 388.5,332.5C 388.281,333.675 388.614,334.675 389.5,335.5C 390.17,333.709 390.837,332.042 391.5,330.5C 392.152,331.725 393.319,332.392 395,332.5C 401.138,331.657 407.305,331.324 413.5,331.5C 413.5,329.833 413.5,328.167 413.5,326.5 Z"/></g>
<g><path style="opacity:1" fill="#100e0e" d="M 126.5,335.5 C 126.5,336.167 126.5,336.833 126.5,337.5C 123.833,337.5 121.167,337.5 118.5,337.5C 118.5,336.167 118.5,334.833 118.5,333.5C 121.327,333.584 123.994,334.25 126.5,335.5 Z"/></g>
<g><path style="opacity:0.887" fill="#1e1d1e" d="M 134.5,332.5 C 136.229,333.117 137.729,334.117 139,335.5C 139.528,336.816 139.028,337.483 137.5,337.5C 135.167,337.5 132.833,337.5 130.5,337.5C 130.183,334.454 131.516,332.787 134.5,332.5 Z"/></g>
<g><path style="opacity:0.846" fill="#5b409b" d="M 265.5,327.5 C 273.167,327.5 280.833,327.5 288.5,327.5C 289.167,327.5 289.5,327.833 289.5,328.5C 289.5,329.5 289.5,330.5 289.5,331.5C 289.784,333.415 289.451,335.081 288.5,336.5C 281.352,337.492 274.019,337.825 266.5,337.5C 265.521,334.375 265.187,331.042 265.5,327.5 Z"/></g>
<g><path style="opacity:1" fill="#3d228d" d="M 288.5,336.5 C 281.167,336.5 273.833,336.5 266.5,336.5C 266.5,333.833 266.5,331.167 266.5,328.5C 273.833,328.5 281.167,328.5 288.5,328.5C 288.5,331.167 288.5,333.833 288.5,336.5 Z"/></g>
<g><path style="opacity:0.817" fill="#e6e6e5" d="M 241.5,337.5 C 242.167,337.5 242.833,337.5 243.5,337.5C 243.5,340.833 243.5,344.167 243.5,347.5C 232.807,348.972 222.14,348.806 211.5,347C 213.931,342.865 217.431,340.032 222,338.5C 228.383,340.396 234.883,340.896 241.5,340C 242.598,339.23 242.598,338.397 241.5,337.5 Z"/></g>
<g><path style="opacity:0.991" fill="#d9a667" d="M 200.5,344.5 C 201.757,345.623 201.424,346.289 199.5,346.5C 197.738,346.643 196.071,346.309 194.5,345.5C 190.895,346.49 187.228,347.156 183.5,347.5C 183.396,343.104 185.229,339.77 189,337.5C 189.87,338.108 190.37,338.941 190.5,340C 189.516,341.657 188.516,343.323 187.5,345C 189.865,343.348 192.365,341.515 195,339.5C 195.5,339.833 196,340.167 196.5,340.5C 195.687,341.814 194.687,342.981 193.5,344C 195.863,343.335 198.196,343.502 200.5,344.5 Z"/></g>
<g><path style="opacity:1" fill="#dba156" d="M 54.5,341.5 C 55.5,341.5 56.5,341.5 57.5,341.5C 57.8844,346.037 59.0511,350.371 61,354.5C 65.3191,358.605 68.4858,363.271 70.5,368.5C 71.038,370.117 71.3713,371.784 71.5,373.5C 69.1667,373.5 66.8333,373.5 64.5,373.5C 60.3737,364.122 57.0404,354.455 54.5,344.5C 54.5,343.5 54.5,342.5 54.5,341.5 Z"/></g>
<g><path style="opacity:1" fill="#5a3ea4" d="M 38.5,350.5 C 37.1667,350.5 35.8333,350.5 34.5,350.5C 35.2175,358.494 35.8842,366.494 36.5,374.5C 40.5138,374.334 44.5138,374.501 48.5,375C 49.7911,376.292 49.7911,377.458 48.5,378.5C 47.1667,378.5 45.8333,378.5 44.5,378.5C 36.6484,378.175 28.9818,378.508 21.5,379.5C 20.1667,379.5 18.8333,379.5 17.5,379.5C 17.5,378.833 17.1667,378.5 16.5,378.5C 15.3552,377.207 15.6885,376.041 17.5,375C 21.4862,374.501 25.4862,374.334 29.5,374.5C 29.727,367.107 30.3937,359.774 31.5,352.5C 30.6798,350.889 29.3464,350.222 27.5,350.5C 28.8714,349.213 30.7047,348.547 33,348.5C 35.2953,348.547 37.1286,349.213 38.5,350.5 Z"/></g>
<g><path style="opacity:0.733" fill="#a99acd" d="M 170.5,356.5 C 170.539,354.776 170.206,354.443 169.5,355.5C 168.323,353.321 167.323,350.987 166.5,348.5C 166.5,347.833 166.833,347.5 167.5,347.5C 167.5,348.167 167.833,348.5 168.5,348.5C 169.5,352.167 171.167,352.5 173.5,349.5C 174.315,348.571 175.148,347.571 176,346.5C 176.167,346.833 176.333,347.167 176.5,347.5C 174.441,350.541 172.441,353.541 170.5,356.5 Z M 168.5,348.5 C 170.415,348.216 172.081,348.549 173.5,349.5C 171.167,352.5 169.5,352.167 168.5,348.5 Z"/></g>
<g><path style="opacity:0.333" fill="#eddcc9" d="M 178.5,350.5 C 178.5,350.833 178.5,351.167 178.5,351.5C 176.194,353.139 174.194,355.139 172.5,357.5C 171.508,357.672 170.842,357.338 170.5,356.5C 172.441,353.541 174.441,350.541 176.5,347.5C 176.333,347.167 176.167,346.833 176,346.5C 175.148,347.571 174.315,348.571 173.5,349.5C 172.081,348.549 170.415,348.216 168.5,348.5C 167.833,348.5 167.5,348.167 167.5,347.5C 170.802,346.706 174.135,346.04 177.5,345.5C 177.366,347.292 177.699,348.958 178.5,350.5 Z"/></g>
<g><path style="opacity:1" fill="#50329f" d="M 170.5,356.5 C 170.842,357.338 171.508,357.672 172.5,357.5C 176.5,357.5 180.5,357.5 184.5,357.5C 184.803,360.588 183.47,362.254 180.5,362.5C 180.352,366.261 179.352,369.761 177.5,373C 172.833,373.667 168.167,373.667 163.5,373C 161.455,368.374 159.121,363.874 156.5,359.5C 156.709,358.914 157.043,358.414 157.5,358C 161.956,358.102 165.956,357.268 169.5,355.5C 170.206,354.443 170.539,354.776 170.5,356.5 Z"/></g>
<g><path style="opacity:0.999" fill="#262526" d="M 84.5,371.5 C 87.82,372.158 90.4866,373.825 92.5,376.5C 87.6009,376.761 82.6009,376.761 77.5,376.5C 77.5,375.167 77.5,373.833 77.5,372.5C 79.861,372.326 82.1944,371.993 84.5,371.5 Z"/></g>
<g><path style="opacity:0.999" fill="#201f20" d="M 64.5,373.5 C 66.8333,373.5 69.1667,373.5 71.5,373.5C 73.839,375.507 76.1723,377.507 78.5,379.5C 77.6667,379.833 76.8333,380.167 76,380.5C 71.7961,379.574 67.6294,378.574 63.5,377.5C 63.4326,376.041 63.7659,374.708 64.5,373.5 Z"/></g>
<g><path style="opacity:0.949" fill="#9687bf" d="M 44.5,378.5 C 44.5,379.167 44.1667,379.5 43.5,379.5C 40.8333,379.5 38.1667,379.5 35.5,379.5C 30.5203,378.985 25.8536,379.652 21.5,381.5C 21.5,380.833 21.5,380.167 21.5,379.5C 28.9818,378.508 36.6484,378.175 44.5,378.5 Z"/></g>
<g><path style="opacity:0.827" fill="#e5e4e5" d="M 16.5,378.5 C 17.1667,378.5 17.5,378.833 17.5,379.5C 17.9577,382.309 19.2911,382.976 21.5,381.5C 25.8536,379.652 30.5203,378.985 35.5,379.5C 34.7659,380.708 34.4326,382.041 34.5,383.5C 22.9787,386.526 11.312,387.193 -0.5,385.5C -0.5,383.833 -0.5,382.167 -0.5,380.5C 5.49167,379.779 11.1583,379.112 16.5,378.5 Z"/></g>
<g><path style="opacity:1" fill="#0f0e0f" d="M 17.5,379.5 C 18.8333,379.5 20.1667,379.5 21.5,379.5C 21.5,380.167 21.5,380.833 21.5,381.5C 19.2911,382.976 17.9577,382.309 17.5,379.5 Z"/></g>
<g><path style="opacity:0.994" fill="#352f37" d="M 44.5,378.5 C 45.8333,378.5 47.1667,378.5 48.5,378.5C 48.7725,380.958 47.7725,382.625 45.5,383.5C 43.8888,382.68 43.2222,381.346 43.5,379.5C 44.1667,379.5 44.5,379.167 44.5,378.5 Z"/></g>
<g><path style="opacity:1" fill="#1e1d1d" d="M 249.5,398.5 C 251.55,398.961 253.55,399.628 255.5,400.5C 256.107,400.376 256.44,400.043 256.5,399.5C 258.903,399.552 261.236,399.219 263.5,398.5C 266.327,399.108 268.993,400.108 271.5,401.5C 267.427,403.135 263.094,404.135 258.5,404.5C 253.156,404.666 247.823,404.499 242.5,404C 241.272,402.51 241.272,401.01 242.5,399.5C 244.861,399.326 247.194,398.993 249.5,398.5 Z"/></g>
<g><path style="opacity:0.995" fill="#201e1e" d="M 335.5,398.5 C 337.764,399.219 340.097,399.552 342.5,399.5C 342.735,400.097 343.235,400.43 344,400.5C 345.8,399.68 347.634,399.014 349.5,398.5C 351.764,399.219 354.097,399.552 356.5,399.5C 357.413,401.086 357.413,402.586 356.5,404C 346.506,404.5 336.506,404.666 326.5,404.5C 326.281,403.325 326.614,402.325 327.5,401.5C 330.035,400.1 332.702,399.1 335.5,398.5 Z"/></g>
<g><path style="opacity:0.421" fill="#676160" d="M 271.5,401.5 C 272.404,402.209 272.737,403.209 272.5,404.5C 267.833,404.5 263.167,404.5 258.5,404.5C 263.094,404.135 267.427,403.135 271.5,401.5 Z"/></g>
</svg>
