<?xml version="1.0" encoding="UTF-8"?>
<!DOCTYPE svg PUBLIC "-//W3C//DTD SVG 1.1//EN" "http://www.w3.org/Graphics/SVG/1.1/DTD/svg11.dtd">
<svg xmlns="http://www.w3.org/2000/svg" version="1.1" width="488px" height="462px" style="shape-rendering:geometricPrecision; text-rendering:geometricPrecision; image-rendering:optimizeQuality; fill-rule:evenodd; clip-rule:evenodd" xmlns:xlink="http://www.w3.org/1999/xlink">
<g><path style="opacity:1" fill="#fdfdfd" d="M -0.5,-0.5 C 162.167,-0.5 324.833,-0.5 487.5,-0.5C 487.5,153.5 487.5,307.5 487.5,461.5C 324.833,461.5 162.167,461.5 -0.5,461.5C -0.5,307.5 -0.5,153.5 -0.5,-0.5 Z"/></g>
<g><path style="opacity:1" fill="#bce1e3" d="M 251.5,24.5 C 239.485,24.4237 227.485,24.757 215.5,25.5C 222.264,23.9651 229.264,23.2984 236.5,23.5C 241.678,23.5007 246.678,23.834 251.5,24.5 Z"/></g>
<g><path style="opacity:1" fill="#7cc7ca" d="M 251.5,24.5 C 274.182,26.0665 296.182,30.3999 317.5,37.5C 303.656,37.171 289.99,37.5043 276.5,38.5C 276.5,68.8333 276.5,99.1667 276.5,129.5C 300.661,130.498 324.994,130.831 349.5,130.5C 349.5,104.167 349.5,77.8333 349.5,51.5C 356.725,54.7228 363.725,58.3894 370.5,62.5C 370.5,85.1667 370.5,107.833 370.5,130.5C 392.167,130.5 413.833,130.5 435.5,130.5C 437.632,136.223 439.965,141.89 442.5,147.5C 387.171,148.5 331.837,148.833 276.5,148.5C 276.5,174.833 276.5,201.167 276.5,227.5C 333.5,227.5 390.5,227.5 447.5,227.5C 447.333,207.497 447.5,187.497 448,167.5C 448.667,170.833 449.333,174.167 450,177.5C 450.695,198.844 450.528,220.177 449.5,241.5C 388.332,242.167 326.999,242.833 265.5,243.5C 260.904,266.144 256.571,288.811 252.5,311.5C 245.171,305.004 238.338,298.004 232,290.5C 231.506,288.866 231.34,287.199 231.5,285.5C 231.733,280.105 231.4,274.772 230.5,269.5C 234.104,266.398 237.604,263.065 241,259.5C 245.577,252.09 245.577,244.756 241,237.5C 241.184,234.124 240.017,231.457 237.5,229.5C 239.279,227.807 239.779,225.807 239,223.5C 236.312,221.636 233.812,219.636 231.5,217.5C 231.037,214.518 230.704,211.518 230.5,208.5C 230.918,207.778 231.584,207.278 232.5,207C 227.857,204.928 226.357,201.428 228,196.5C 235.821,185.577 237.321,173.91 232.5,161.5C 239.982,160.508 247.648,160.175 255.5,160.5C 255.5,119.833 255.5,79.1667 255.5,38.5C 228.5,38.5 201.5,38.5 174.5,38.5C 187.235,31.5898 200.902,27.2565 215.5,25.5C 227.485,24.757 239.485,24.4237 251.5,24.5 Z"/></g>
<g><path style="opacity:1" fill="#db7d71" d="M 276.5,38.5 C 289.99,37.5043 303.656,37.171 317.5,37.5C 328.167,37.5 338.833,37.5 349.5,37.5C 349.5,41.8333 349.5,46.1667 349.5,50.5C 349.167,50.5 348.833,50.5 348.5,50.5C 348.5,46.5 348.5,42.5 348.5,38.5C 324.5,38.5 300.5,38.5 276.5,38.5 Z"/></g>
<g><path style="opacity:1" fill="#e16152" d="M 276.5,38.5 C 300.5,38.5 324.5,38.5 348.5,38.5C 348.5,42.5 348.5,46.5 348.5,50.5C 348.5,76.8333 348.5,103.167 348.5,129.5C 324.5,129.5 300.5,129.5 276.5,129.5C 276.5,99.1667 276.5,68.8333 276.5,38.5 Z"/></g>
<g><path style="opacity:1" fill="#f1cb94" d="M 370.5,38.5 C 394.5,38.5 418.5,38.5 442.5,38.5C 442.5,69.1667 442.5,99.8333 442.5,130.5C 440.167,130.5 437.833,130.5 435.5,130.5C 413.833,130.5 392.167,130.5 370.5,130.5C 370.5,107.833 370.5,85.1667 370.5,62.5C 370.5,54.5 370.5,46.5 370.5,38.5 Z"/></g>
<g><path style="opacity:1" fill="#81c7c7" d="M 172.5,39.5 C 199.833,39.5 227.167,39.5 254.5,39.5C 254.5,79.5 254.5,119.5 254.5,159.5C 246.833,159.5 239.167,159.5 231.5,159.5C 230.662,159.158 230.328,158.492 230.5,157.5C 237.648,156.508 244.981,156.175 252.5,156.5C 252.5,118.5 252.5,80.5 252.5,42.5C 226.833,42.5 201.167,42.5 175.5,42.5C 175.5,73.8333 175.5,105.167 175.5,136.5C 174.5,136.5 173.5,136.5 172.5,136.5C 172.5,104.167 172.5,71.8333 172.5,39.5 Z"/></g>
<g><path style="opacity:1" fill="#d1cfa5" d="M 172.5,39.5 C 172.842,38.6618 173.508,38.3284 174.5,38.5C 201.5,38.5 228.5,38.5 255.5,38.5C 255.5,79.1667 255.5,119.833 255.5,160.5C 247.648,160.175 239.982,160.508 232.5,161.5C 231.662,161.158 231.328,160.492 231.5,159.5C 239.167,159.5 246.833,159.5 254.5,159.5C 254.5,119.5 254.5,79.5 254.5,39.5C 227.167,39.5 199.833,39.5 172.5,39.5 Z"/></g>
<g><path style="opacity:1" fill="#7bc7ca" d="M 171.5,136.5 C 166.473,136.503 161.473,136.836 156.5,137.5C 156.5,114.833 156.5,92.1667 156.5,69.5C 147.167,69.5 137.833,69.5 128.5,69.5C 141.041,57.882 155.041,48.2153 170.5,40.5C 171.5,72.4931 171.833,104.493 171.5,136.5 Z"/></g>
<g><path style="opacity:1" fill="#7ac6ca" d="M 228.5,155.5 C 223.124,149.48 216.458,145.48 208.5,143.5C 206.866,142.839 205.033,142.506 203,142.5C 199.85,142.36 197.017,143.027 194.5,144.5C 188.703,141.787 182.703,139.454 176.5,137.5C 176.5,106.167 176.5,74.8333 176.5,43.5C 201.167,43.5 225.833,43.5 250.5,43.5C 250.5,80.8333 250.5,118.167 250.5,155.5C 243.167,155.5 235.833,155.5 228.5,155.5 Z"/></g>
<g><path style="opacity:1" fill="#bbcead" d="M 230.5,157.5 C 229.5,157.167 228.833,156.5 228.5,155.5C 235.833,155.5 243.167,155.5 250.5,155.5C 250.5,118.167 250.5,80.8333 250.5,43.5C 225.833,43.5 201.167,43.5 176.5,43.5C 176.5,74.8333 176.5,106.167 176.5,137.5C 175.833,137.5 175.5,137.167 175.5,136.5C 175.5,105.167 175.5,73.8333 175.5,42.5C 201.167,42.5 226.833,42.5 252.5,42.5C 252.5,80.5 252.5,118.5 252.5,156.5C 244.981,156.175 237.648,156.508 230.5,157.5 Z"/></g>
<g><path style="opacity:1" fill="#eba37a" d="M 410.5,43.5 C 417.532,43.1697 424.532,43.503 431.5,44.5C 428,44.8333 424.5,45.1667 421,45.5C 417.098,45.4877 413.598,44.821 410.5,43.5 Z"/></g>
<g><path style="opacity:1" fill="#efb1a7" d="M 285.5,48.5 C 303.833,48.5 322.167,48.5 340.5,48.5C 340.5,60.5 340.5,72.5 340.5,84.5C 322.167,84.5 303.833,84.5 285.5,84.5C 285.5,72.5 285.5,60.5 285.5,48.5 Z"/></g>
<g><path style="opacity:1" fill="#e05c4d" d="M 338.5,50.5 C 338.5,61.1667 338.5,71.8333 338.5,82.5C 321.5,82.5 304.5,82.5 287.5,82.5C 287.5,71.8333 287.5,61.1667 287.5,50.5C 304.5,50.5 321.5,50.5 338.5,50.5 Z"/></g>
<g><path style="opacity:1" fill="#eba47a" d="M 410.5,50.5 C 415.544,50.1725 420.544,50.5059 425.5,51.5C 423,51.8333 420.5,52.1667 418,52.5C 415.071,52.4752 412.571,51.8086 410.5,50.5 Z"/></g>
<g><path style="opacity:1" fill="#e79474" d="M 410.5,58.5 C 414.226,58.1774 417.893,58.5108 421.5,59.5C 419.667,59.8333 417.833,60.1667 416,60.5C 413.705,60.4535 411.871,59.7868 410.5,58.5 Z"/></g>
<g><path style="opacity:1" fill="#e79374" d="M 423.5,58.5 C 426.898,58.1796 430.232,58.513 433.5,59.5C 431.833,59.8333 430.167,60.1667 428.5,60.5C 426.36,60.4439 424.694,59.7773 423.5,58.5 Z"/></g>
<g><path style="opacity:1" fill="#eba980" d="M 410.5,62.5 C 415.544,62.1725 420.544,62.5059 425.5,63.5C 423,63.8333 420.5,64.1667 418,64.5C 415.071,64.4752 412.571,63.8086 410.5,62.5 Z"/></g>
<g><path style="opacity:1" fill="#e89473" d="M 377.5,43.5 C 386.833,43.5 396.167,43.5 405.5,43.5C 405.5,51.5 405.5,59.5 405.5,67.5C 396.167,67.5 386.833,67.5 377.5,67.5C 377.5,59.5 377.5,51.5 377.5,43.5 Z"/></g>
<g><path style="opacity:1" fill="#f2d097" d="M 379.5,44.5 C 387.833,44.5 396.167,44.5 404.5,44.5C 404.5,51.5 404.5,58.5 404.5,65.5C 396.167,65.5 387.833,65.5 379.5,65.5C 379.5,58.5 379.5,51.5 379.5,44.5 Z"/></g>
<g><path style="opacity:1" fill="#e79474" d="M 410.5,65.5 C 417.532,65.1697 424.532,65.503 431.5,66.5C 428,66.8333 424.5,67.1667 421,67.5C 417.098,67.4877 413.598,66.821 410.5,65.5 Z"/></g>
<g><path style="opacity:1" fill="#83c7c6" d="M 127.5,70.5 C 136.5,70.5 145.5,70.5 154.5,70.5C 154.5,93.1667 154.5,115.833 154.5,138.5C 154.158,139.338 153.492,139.672 152.5,139.5C 151.503,117.673 151.169,95.673 151.5,73.5C 142.5,73.5 133.5,73.5 124.5,73.5C 125.167,72.1667 126.167,71.1667 127.5,70.5 Z"/></g>
<g><path style="opacity:1" fill="#b2cbb1" d="M 127.5,70.5 C 127.5,69.8333 127.833,69.5 128.5,69.5C 137.833,69.5 147.167,69.5 156.5,69.5C 156.5,92.1667 156.5,114.833 156.5,137.5C 156.158,138.338 155.492,138.672 154.5,138.5C 154.5,115.833 154.5,93.1667 154.5,70.5C 145.5,70.5 136.5,70.5 127.5,70.5 Z"/></g>
<g><path style="opacity:1" fill="#f3dcb4" d="M 370.5,38.5 C 394.661,37.5024 418.994,37.169 443.5,37.5C 443.831,68.6712 443.498,99.6712 442.5,130.5C 442.5,99.8333 442.5,69.1667 442.5,38.5C 418.5,38.5 394.5,38.5 370.5,38.5 Z"/></g>
<g><path style="opacity:1" fill="#7ac6ca" d="M 123.5,74.5 C 132.5,74.5 141.5,74.5 150.5,74.5C 150.5,96.5 150.5,118.5 150.5,140.5C 143.474,144.35 137.141,149.184 131.5,155C 124.833,158 118.167,161 111.5,164C 103.92,169.654 99.2537,177.154 97.5,186.5C 90.5,186.5 83.5,186.5 76.5,186.5C 76.5,168.5 76.5,150.5 76.5,132.5C 88.8534,110.48 104.52,91.1468 123.5,74.5 Z"/></g>
<g><path style="opacity:1" fill="#d0cca2" d="M 123.5,74.5 C 123.5,73.8333 123.833,73.5 124.5,73.5C 133.5,73.5 142.5,73.5 151.5,73.5C 151.169,95.673 151.503,117.673 152.5,139.5C 152.158,140.338 151.492,140.672 150.5,140.5C 150.5,118.5 150.5,96.5 150.5,74.5C 141.5,74.5 132.5,74.5 123.5,74.5 Z"/></g>
<g><path style="opacity:1" fill="#e6816f" d="M 338.5,50.5 C 321.5,50.5 304.5,50.5 287.5,50.5C 287.5,61.1667 287.5,71.8333 287.5,82.5C 304.5,82.5 321.5,82.5 338.5,82.5C 321.341,83.4967 304.008,83.83 286.5,83.5C 286.5,72.1667 286.5,60.8333 286.5,49.5C 304.008,49.17 321.341,49.5033 338.5,50.5 Z"/></g>
<g><path style="opacity:1" fill="#e79375" d="M 378.5,85.5 C 385.2,85.17 391.866,85.5033 398.5,86.5C 395.167,86.8333 391.833,87.1667 388.5,87.5C 384.761,87.4864 381.428,86.8197 378.5,85.5 Z"/></g>
<g><path style="opacity:1" fill="#e79373" d="M 409.5,69.5 C 418.833,69.5 428.167,69.5 437.5,69.5C 437.5,78.8333 437.5,88.1667 437.5,97.5C 428.167,97.5 418.833,97.5 409.5,97.5C 409.5,88.1667 409.5,78.8333 409.5,69.5 Z"/></g>
<g><path style="opacity:1" fill="#f2d198" d="M 411.5,71.5 C 419.833,71.5 428.167,71.5 436.5,71.5C 436.5,79.8333 436.5,88.1667 436.5,96.5C 428.167,96.5 419.833,96.5 411.5,96.5C 411.5,88.1667 411.5,79.8333 411.5,71.5 Z"/></g>
<g><path style="opacity:1" fill="#ea988e" d="M 285.5,89.5 C 303.512,89.1671 321.512,89.5005 339.5,90.5C 330.5,90.8333 321.5,91.1667 312.5,91.5C 303.141,91.4983 294.141,90.8316 285.5,89.5 Z"/></g>
<g><path style="opacity:1" fill="#edb085" d="M 378.5,88.5 C 382.226,88.1774 385.893,88.5108 389.5,89.5C 389.291,90.086 388.957,90.586 388.5,91C 385.183,91.4983 381.85,91.665 378.5,91.5C 378.5,90.5 378.5,89.5 378.5,88.5 Z"/></g>
<g><path style="opacity:1" fill="#e89a78" d="M 378.5,92.5 C 383.544,92.1725 388.544,92.5059 393.5,93.5C 391,93.8333 388.5,94.1667 386,94.5C 383.071,94.4752 380.571,93.8086 378.5,92.5 Z"/></g>
<g><path style="opacity:1" fill="#eb9b8f" d="M 285.5,95.5 C 303.512,95.1671 321.512,95.5005 339.5,96.5C 330.5,96.8333 321.5,97.1667 312.5,97.5C 303.141,97.4983 294.141,96.8316 285.5,95.5 Z"/></g>
<g><path style="opacity:1" fill="#e88b78" d="M 285.5,102.5 C 303.512,102.167 321.512,102.5 339.5,103.5C 330.5,103.833 321.5,104.167 312.5,104.5C 303.141,104.498 294.141,103.832 285.5,102.5 Z"/></g>
<g><path style="opacity:1" fill="#e79174" d="M 410.5,104.5 C 417.2,104.17 423.866,104.503 430.5,105.5C 427.167,105.833 423.833,106.167 420.5,106.5C 416.761,106.486 413.428,105.82 410.5,104.5 Z"/></g>
<g><path style="opacity:1" fill="#e79475" d="M 410.5,111.5 C 415.214,111.173 419.88,111.507 424.5,112.5C 422.167,112.833 419.833,113.167 417.5,113.5C 414.731,113.471 412.397,112.805 410.5,111.5 Z"/></g>
<g><path style="opacity:1" fill="#ec9488" d="M 285.5,113.5 C 303.512,113.167 321.512,113.5 339.5,114.5C 330.5,114.833 321.5,115.167 312.5,115.5C 303.141,115.498 294.141,114.832 285.5,113.5 Z"/></g>
<g><path style="opacity:1" fill="#e79173" d="M 377.5,101.5 C 386.833,101.5 396.167,101.5 405.5,101.5C 405.5,109.167 405.5,116.833 405.5,124.5C 396.167,124.5 386.833,124.5 377.5,124.5C 377.5,116.833 377.5,109.167 377.5,101.5 Z"/></g>
<g><path style="opacity:1" fill="#f2d098" d="M 379.5,102.5 C 387.833,102.5 396.167,102.5 404.5,102.5C 404.5,109.167 404.5,115.833 404.5,122.5C 396.167,122.5 387.833,122.5 379.5,122.5C 379.5,115.833 379.5,109.167 379.5,102.5 Z"/></g>
<g><path style="opacity:1" fill="#c56d61" d="M 348.5,50.5 C 348.833,50.5 349.167,50.5 349.5,50.5C 349.5,50.8333 349.5,51.1667 349.5,51.5C 349.5,77.8333 349.5,104.167 349.5,130.5C 324.994,130.831 300.661,130.498 276.5,129.5C 300.5,129.5 324.5,129.5 348.5,129.5C 348.5,103.167 348.5,76.8333 348.5,50.5 Z"/></g>
<g><path style="opacity:1" fill="#84c7c6" d="M 74.5,134.5 C 75.4967,151.992 75.8301,169.659 75.5,187.5C 82.5,187.5 89.5,187.5 96.5,187.5C 96.5,188.5 96.5,189.5 96.5,190.5C 88.5,190.5 80.5,190.5 72.5,190.5C 72.5,173.167 72.5,155.833 72.5,138.5C 72.7329,136.938 73.3995,135.605 74.5,134.5 Z"/></g>
<g><path style="opacity:1" fill="#df5c4d" d="M 171.5,136.5 C 171.833,136.5 172.167,136.5 172.5,136.5C 173.5,136.5 174.5,136.5 175.5,136.5C 175.5,137.167 175.833,137.5 176.5,137.5C 182.703,139.454 188.703,141.787 194.5,144.5C 199.13,143.771 203.797,143.437 208.5,143.5C 216.458,145.48 223.124,149.48 228.5,155.5C 228.833,156.5 229.5,157.167 230.5,157.5C 230.328,158.492 230.662,159.158 231.5,159.5C 231.328,160.492 231.662,161.158 232.5,161.5C 237.321,173.91 235.821,185.577 228,196.5C 226.357,201.428 227.857,204.928 232.5,207C 231.584,207.278 230.918,207.778 230.5,208.5C 225.274,209.535 221.274,207.868 218.5,203.5C 217.974,201.77 216.974,200.436 215.5,199.5C 214.881,191.828 214.047,184.495 213,177.5C 209.516,173.844 205.683,173.511 201.5,176.5C 200.482,175.807 199.482,175.141 198.5,174.5C 198.217,173.711 197.717,173.044 197,172.5C 196.029,173.198 194.863,173.198 193.5,172.5C 190.56,172.909 188.227,174.243 186.5,176.5C 183.63,179.583 181.797,183.25 181,187.5C 182.05,197.131 179.883,205.798 174.5,213.5C 172.456,214.508 170.456,215.508 168.5,216.5C 165.812,216.166 163.479,216.832 161.5,218.5C 160.662,218.842 160.328,219.508 160.5,220.5C 158.585,220.216 156.919,220.549 155.5,221.5C 151.958,221.187 148.625,221.521 145.5,222.5C 144.91,223.766 144.41,225.099 144,226.5C 143.5,234.159 143.334,241.826 143.5,249.5C 143.5,253.833 143.5,258.167 143.5,262.5C 141.664,268 138.331,272.334 133.5,275.5C 121.95,276.455 110.45,275.788 99,273.5C 95.1821,273.531 91.5154,274.198 88,275.5C 87.6174,274.944 87.1174,274.611 86.5,274.5C 86.05,267.339 86.7166,260.339 88.5,253.5C 90.4611,251.68 90.7944,249.68 89.5,247.5C 88.5,246.167 87.5,244.833 86.5,243.5C 86.2172,242.711 85.7172,242.044 85,241.5C 84.5008,236.845 84.3342,232.179 84.5,227.5C 87.0672,222.096 90.9006,217.763 96,214.5C 99.6332,208.606 100.467,202.273 98.5,195.5C 98.7845,193.585 98.4511,191.919 97.5,190.5C 97.5,189.167 97.5,187.833 97.5,186.5C 99.2537,177.154 103.92,169.654 111.5,164C 118.167,161 124.833,158 131.5,155C 137.141,149.184 143.474,144.35 150.5,140.5C 151.492,140.672 152.158,140.338 152.5,139.5C 153.492,139.672 154.158,139.338 154.5,138.5C 155.492,138.672 156.158,138.338 156.5,137.5C 161.473,136.836 166.473,136.503 171.5,136.5 Z"/></g>
<g><path style="opacity:1" fill="#c5786b" d="M 208.5,143.5 C 203.797,143.437 199.13,143.771 194.5,144.5C 197.017,143.027 199.85,142.36 203,142.5C 205.033,142.506 206.866,142.839 208.5,143.5 Z"/></g>
<g><path style="opacity:1" fill="#7bc6ca" d="M 71.5,140.5 C 71.5,157.5 71.5,174.5 71.5,191.5C 79.5,191.5 87.5,191.5 95.5,191.5C 95.811,198.026 95.311,204.359 94,210.5C 95.5272,208.779 96.5272,206.779 97,204.5C 97.1805,201.305 97.6805,198.305 98.5,195.5C 100.467,202.273 99.6332,208.606 96,214.5C 90.9006,217.763 87.0672,222.096 84.5,227.5C 83.3483,232.985 83.1816,238.651 84,244.5C 84.2004,246.32 85.0337,247.653 86.5,248.5C 87.1667,250.167 87.8333,251.833 88.5,253.5C 86.7166,260.339 86.05,267.339 86.5,274.5C 84.2795,278.559 81.1128,281.892 77,284.5C 72.4242,289.987 68.0909,295.653 64,301.5C 57.265,312.975 51.0984,324.641 45.5,336.5C 31.43,295.676 29.93,254.343 41,212.5C 47.6795,186.832 57.8462,162.832 71.5,140.5 Z"/></g>
<g><path style="opacity:1" fill="#c0e4e6" d="M 284.5,160.5 C 289.833,160.5 295.167,160.5 300.5,160.5C 300.5,165.833 300.5,171.167 300.5,176.5C 295.167,176.5 289.833,176.5 284.5,176.5C 284.5,171.167 284.5,165.833 284.5,160.5 Z"/></g>
<g><path style="opacity:1" fill="#f2f9f9" d="M 286.5,162.5 C 290.5,162.5 294.5,162.5 298.5,162.5C 298.5,166.5 298.5,170.5 298.5,174.5C 294.5,174.5 290.5,174.5 286.5,174.5C 286.5,170.5 286.5,166.5 286.5,162.5 Z"/></g>
<g><path style="opacity:1" fill="#edaa9c" d="M 338.5,160.5 C 343.5,160.5 348.5,160.5 353.5,160.5C 353.5,165.833 353.5,171.167 353.5,176.5C 348.5,176.5 343.5,176.5 338.5,176.5C 338.5,171.167 338.5,165.833 338.5,160.5 Z"/></g>
<g><path style="opacity:1" fill="#fefaf9" d="M 339.5,162.5 C 343.833,162.5 348.167,162.5 352.5,162.5C 352.5,166.5 352.5,170.5 352.5,174.5C 348.167,174.5 343.833,174.5 339.5,174.5C 339.5,170.5 339.5,166.5 339.5,162.5 Z"/></g>
<g><path style="opacity:1" fill="#f1b9b3" d="M 372.5,167.5 C 376.884,167.174 381.217,167.508 385.5,168.5C 383.333,168.833 381.167,169.167 379,169.5C 376.39,169.467 374.223,168.8 372.5,167.5 Z"/></g>
<g><path style="opacity:1" fill="#efb0a8" d="M 391.5,160.5 C 396.833,160.5 402.167,160.5 407.5,160.5C 407.5,165.833 407.5,171.167 407.5,176.5C 402.167,176.5 396.833,176.5 391.5,176.5C 391.5,171.167 391.5,165.833 391.5,160.5 Z"/></g>
<g><path style="opacity:1" fill="#fefefe" d="M 393.5,162.5 C 397.5,162.5 401.5,162.5 405.5,162.5C 405.5,166.5 405.5,170.5 405.5,174.5C 401.5,174.5 397.5,174.5 393.5,174.5C 393.5,170.5 393.5,166.5 393.5,162.5 Z"/></g>
<g><path style="opacity:1" fill="#f1b9b2" d="M 425.5,167.5 C 429.884,167.174 434.217,167.508 438.5,168.5C 436.333,168.833 434.167,169.167 432,169.5C 429.39,169.467 427.223,168.8 425.5,167.5 Z"/></g>
<g><path style="opacity:1" fill="#c7cda8" d="M 76.5,132.5 C 76.5,150.5 76.5,168.5 76.5,186.5C 83.5,186.5 90.5,186.5 97.5,186.5C 97.5,187.833 97.5,189.167 97.5,190.5C 97.1583,191.338 96.4916,191.672 95.5,191.5C 87.5,191.5 79.5,191.5 71.5,191.5C 71.5,174.5 71.5,157.5 71.5,140.5C 71.3284,139.508 71.6618,138.842 72.5,138.5C 72.5,155.833 72.5,173.167 72.5,190.5C 80.5,190.5 88.5,190.5 96.5,190.5C 96.5,189.5 96.5,188.5 96.5,187.5C 89.5,187.5 82.5,187.5 75.5,187.5C 75.8301,169.659 75.4967,151.992 74.5,134.5C 74.8333,133.5 75.5,132.833 76.5,132.5 Z"/></g>
<g><path style="opacity:1" fill="#f0b3ac" d="M 359.5,167.5 C 363.226,167.177 366.893,167.511 370.5,168.5C 368.667,168.833 366.833,169.167 365,169.5C 362.705,169.453 360.871,168.787 359.5,167.5 Z"/></g>
<g><path style="opacity:1" fill="#f0b2ab" d="M 413.5,167.5 C 416.898,167.18 420.232,167.513 423.5,168.5C 421.833,168.833 420.167,169.167 418.5,169.5C 416.36,169.444 414.694,168.777 413.5,167.5 Z"/></g>
<g><path style="opacity:1" fill="#dca681" d="M 198.5,174.5 C 198.225,176.842 197.392,176.842 196,174.5C 193.063,175.083 189.896,175.75 186.5,176.5C 188.227,174.243 190.56,172.909 193.5,172.5C 194.863,173.198 196.029,173.198 197,172.5C 197.717,173.044 198.217,173.711 198.5,174.5 Z"/></g>
<g><path style="opacity:1" fill="#f0cf97" d="M 198.5,174.5 C 199.482,175.141 200.482,175.807 201.5,176.5C 205.683,173.511 209.516,173.844 213,177.5C 214.047,184.495 214.881,191.828 215.5,199.5C 211.801,199.254 209.301,200.588 208,203.5C 210.565,201.821 213.398,201.154 216.5,201.5C 216.5,203.833 216.5,206.167 216.5,208.5C 215.947,218.957 213.614,228.957 209.5,238.5C 207.415,243.823 204.415,248.657 200.5,253C 194.622,256.111 188.622,256.278 182.5,253.5C 181.534,255.396 181.201,257.396 181.5,259.5C 170.192,258.572 159.192,256.239 148.5,252.5C 147.035,251.263 145.368,250.263 143.5,249.5C 143.334,241.826 143.5,234.159 144,226.5C 144.41,225.099 144.91,223.766 145.5,222.5C 148.5,222.5 151.5,222.5 154.5,222.5C 156.735,231.461 161.401,238.961 168.5,245C 169.167,245.667 169.833,245.667 170.5,245C 162.828,238.811 157.828,230.978 155.5,221.5C 156.919,220.549 158.585,220.216 160.5,220.5C 167.15,222.509 171.816,220.176 174.5,213.5C 179.883,205.798 182.05,197.131 181,187.5C 181.797,183.25 183.63,179.583 186.5,176.5C 189.896,175.75 193.063,175.083 196,174.5C 197.392,176.842 198.225,176.842 198.5,174.5 Z"/></g>
<g><path style="opacity:1" fill="#efb0a7" d="M 391.5,181.5 C 396.833,181.5 402.167,181.5 407.5,181.5C 407.666,186.511 407.499,191.511 407,196.5C 401.928,197.471 396.762,197.805 391.5,197.5C 391.5,192.167 391.5,186.833 391.5,181.5 Z"/></g>
<g><path style="opacity:1" fill="#bee3e5" d="M 284.5,181.5 C 289.833,181.5 295.167,181.5 300.5,181.5C 300.827,186.544 300.494,191.544 299.5,196.5C 294.565,197.448 289.565,197.781 284.5,197.5C 284.5,192.167 284.5,186.833 284.5,181.5 Z"/></g>
<g><path style="opacity:1" fill="#fefefe" d="M 393.5,183.5 C 397.5,183.5 401.5,183.5 405.5,183.5C 405.5,187.5 405.5,191.5 405.5,195.5C 401.5,195.5 397.5,195.5 393.5,195.5C 393.5,191.5 393.5,187.5 393.5,183.5 Z"/></g>
<g><path style="opacity:1" fill="#f7fbfc" d="M 286.5,183.5 C 290.5,183.5 294.5,183.5 298.5,183.5C 298.5,187.5 298.5,191.5 298.5,195.5C 294.5,195.5 290.5,195.5 286.5,195.5C 286.5,191.5 286.5,187.5 286.5,183.5 Z"/></g>
<g><path style="opacity:1" fill="#bce2e5" d="M 338.5,181.5 C 343.5,181.5 348.5,181.5 353.5,181.5C 353.5,186.833 353.5,192.167 353.5,197.5C 348.5,197.5 343.5,197.5 338.5,197.5C 338.5,192.167 338.5,186.833 338.5,181.5 Z"/></g>
<g><path style="opacity:1" fill="#f7fbfc" d="M 340.5,183.5 C 344.5,183.5 348.5,183.5 352.5,183.5C 352.5,187.5 352.5,191.5 352.5,195.5C 348.5,195.5 344.5,195.5 340.5,195.5C 339.888,191.124 341.054,190.457 344,193.5C 346.167,191.333 348.333,189.167 350.5,187C 349.833,186.333 349.167,186.333 348.5,187C 343.329,193.071 340.663,191.905 340.5,183.5 Z"/></g>
<g><path style="opacity:1" fill="#f1b9b2" d="M 413.5,188.5 C 416.898,188.18 420.232,188.513 423.5,189.5C 421.833,189.833 420.167,190.167 418.5,190.5C 416.36,190.444 414.694,189.777 413.5,188.5 Z"/></g>
<g><path style="opacity:1" fill="#f1bab3" d="M 425.5,188.5 C 429.884,188.174 434.217,188.508 438.5,189.5C 436.333,189.833 434.167,190.167 432,190.5C 429.39,190.467 427.223,189.8 425.5,188.5 Z"/></g>
<g><path style="opacity:1" fill="#a08c7c" d="M 215.5,199.5 C 216.974,200.436 217.974,201.77 218.5,203.5C 217.833,205.167 217.167,206.833 216.5,208.5C 216.5,206.167 216.5,203.833 216.5,201.5C 213.398,201.154 210.565,201.821 208,203.5C 209.301,200.588 211.801,199.254 215.5,199.5 Z"/></g>
<g><path style="opacity:1" fill="#a09d95" d="M 97.5,190.5 C 98.4511,191.919 98.7845,193.585 98.5,195.5C 97.6805,198.305 97.1805,201.305 97,204.5C 96.5272,206.779 95.5272,208.779 94,210.5C 95.311,204.359 95.811,198.026 95.5,191.5C 96.4916,191.672 97.1583,191.338 97.5,190.5 Z"/></g>
<g><path style="opacity:1" fill="#eea89e" d="M 407.5,206.5 C 406.518,209.962 406.185,213.629 406.5,217.5C 401.5,217.5 396.5,217.5 391.5,217.5C 391.5,212.5 391.5,207.5 391.5,202.5C 396.833,202.5 402.167,202.5 407.5,202.5C 407.5,203.833 407.5,205.167 407.5,206.5 Z"/></g>
<g><path style="opacity:1" fill="#fefcfc" d="M 393.5,203.5 C 397.5,203.5 401.5,203.5 405.5,203.5C 405.5,207.833 405.5,212.167 405.5,216.5C 401.5,216.5 397.5,216.5 393.5,216.5C 393.5,212.167 393.5,207.833 393.5,203.5 Z"/></g>
<g><path style="opacity:1" fill="#b5dfe2" d="M 285.5,202.5 C 290.5,202.5 295.5,202.5 300.5,202.5C 300.5,207.5 300.5,212.5 300.5,217.5C 295.167,217.5 289.833,217.5 284.5,217.5C 284.221,212.405 284.555,207.405 285.5,202.5 Z"/></g>
<g><path style="opacity:1" fill="#f0f8f9" d="M 286.5,203.5 C 290.5,203.5 294.5,203.5 298.5,203.5C 298.5,207.833 298.5,212.167 298.5,216.5C 294.5,216.5 290.5,216.5 286.5,216.5C 286.5,212.167 286.5,207.833 286.5,203.5 Z"/></g>
<g><path style="opacity:1" fill="#ea9989" d="M 338.5,202.5 C 343.5,202.5 348.5,202.5 353.5,202.5C 353.5,207.5 353.5,212.5 353.5,217.5C 348.5,217.5 343.5,217.5 338.5,217.5C 338.5,212.5 338.5,207.5 338.5,202.5 Z"/></g>
<g><path style="opacity:1" fill="#fdf8f8" d="M 339.5,203.5 C 343.833,203.5 348.167,203.5 352.5,203.5C 352.5,207.833 352.5,212.167 352.5,216.5C 348.167,216.5 343.833,216.5 339.5,216.5C 339.5,212.167 339.5,207.833 339.5,203.5 Z"/></g>
<g><path style="opacity:1" fill="#576570" d="M 183.5,208.5 C 186.492,209.132 187.159,210.799 185.5,213.5C 184.675,214.386 183.675,214.719 182.5,214.5C 182.325,212.379 182.659,210.379 183.5,208.5 Z"/></g>
<g><path style="opacity:1" fill="#666e74" d="M 208.5,208.5 C 211.513,209.356 212.18,211.189 210.5,214C 209.552,214.483 208.552,214.649 207.5,214.5C 207.325,212.379 207.659,210.379 208.5,208.5 Z"/></g>
<g><path style="opacity:1" fill="#f1c993" d="M 168.5,216.5 C 170.842,216.775 170.842,217.608 168.5,219C 165.961,219.796 163.628,219.629 161.5,218.5C 163.479,216.832 165.812,216.166 168.5,216.5 Z"/></g>
<g><path style="opacity:1" fill="#f4ccc7" d="M 407.5,206.5 C 407.5,210.5 407.5,214.5 407.5,218.5C 401.974,218.821 396.64,218.488 391.5,217.5C 396.5,217.5 401.5,217.5 406.5,217.5C 406.185,213.629 406.518,209.962 407.5,206.5 Z"/></g>
<g><path style="opacity:1" fill="#e89876" d="M 174.5,213.5 C 171.816,220.176 167.15,222.509 160.5,220.5C 160.328,219.508 160.662,218.842 161.5,218.5C 163.628,219.629 165.961,219.796 168.5,219C 170.842,217.608 170.842,216.775 168.5,216.5C 170.456,215.508 172.456,214.508 174.5,213.5 Z"/></g>
<g><path style="opacity:1" fill="#9f9885" d="M 201.5,219.5 C 204.322,223.08 203.989,226.413 200.5,229.5C 200.167,229.167 199.833,228.833 199.5,228.5C 201.26,225.788 201.927,222.788 201.5,219.5 Z"/></g>
<g><path style="opacity:1" fill="#efd098" d="M 231.5,217.5 C 233.812,219.636 236.312,221.636 239,223.5C 239.779,225.807 239.279,227.807 237.5,229.5C 240.017,231.457 241.184,234.124 241,237.5C 245.577,244.756 245.577,252.09 241,259.5C 237.604,263.065 234.104,266.398 230.5,269.5C 227.757,273.434 225.757,277.767 224.5,282.5C 225.737,283.965 226.737,285.632 227.5,287.5C 230.39,292.938 233.557,298.272 237,303.5C 241.507,308.532 246.007,313.532 250.5,318.5C 248.81,328.787 247.31,339.12 246,349.5C 245.093,355.442 243.593,361.108 241.5,366.5C 241.672,365.508 241.338,364.842 240.5,364.5C 227.68,336.848 215.013,309.181 202.5,281.5C 202.5,278.833 202.5,276.167 202.5,273.5C 204.103,262.532 206.77,251.866 210.5,241.5C 211.864,239.78 212.864,237.78 213.5,235.5C 217.783,234.508 222.116,234.174 226.5,234.5C 226.21,239.457 223.543,242.123 218.5,242.5C 218.575,245.206 218.908,247.873 219.5,250.5C 219.334,255.844 219.501,261.177 220,266.5C 221.461,263.321 222.295,259.988 222.5,256.5C 226.1,255.016 229.766,253.682 233.5,252.5C 232.378,254.052 231.878,255.718 232,257.5C 233.176,255.804 234.343,254.138 235.5,252.5C 236.287,250.896 237.62,250.229 239.5,250.5C 239.719,249.325 239.386,248.325 238.5,247.5C 234.481,249.018 230.648,248.684 227,246.5C 225.632,245.007 225.465,243.507 226.5,242C 230.469,241.147 234.469,240.481 238.5,240C 237.643,239.311 236.977,238.478 236.5,237.5C 231.519,236.593 227.352,234.26 224,230.5C 223.51,229.207 223.343,227.873 223.5,226.5C 226.789,227.548 230.122,228.048 233.5,228C 227.651,224.672 223.984,219.839 222.5,213.5C 223.873,213.343 225.207,213.51 226.5,214C 227.846,215.669 229.513,216.836 231.5,217.5 Z"/></g>
<g><path style="opacity:1" fill="#be7f72" d="M 84.5,227.5 C 84.3342,232.179 84.5008,236.845 85,241.5C 85.7172,242.044 86.2172,242.711 86.5,243.5C 85.506,244.999 85.506,246.666 86.5,248.5C 85.0337,247.653 84.2004,246.32 84,244.5C 83.1816,238.651 83.3483,232.985 84.5,227.5 Z"/></g>
<g><path style="opacity:1" fill="#e79373" d="M 145.5,222.5 C 148.625,221.521 151.958,221.187 155.5,221.5C 157.828,230.978 162.828,238.811 170.5,245C 169.833,245.667 169.167,245.667 168.5,245C 161.401,238.961 156.735,231.461 154.5,222.5C 151.5,222.5 148.5,222.5 145.5,222.5 Z"/></g>
<g><path style="opacity:1" fill="#9e9784" d="M 183.5,233.5 C 188.833,233.5 194.167,233.5 199.5,233.5C 199.778,235.346 199.111,236.68 197.5,237.5C 196.304,237.154 196.304,236.654 197.5,236C 194.167,235.333 190.833,235.333 187.5,236C 188.328,236.915 189.328,237.581 190.5,238C 188.212,238.418 186.212,237.751 184.5,236C 183.748,235.329 183.414,234.496 183.5,233.5 Z"/></g>
<g><path style="opacity:1" fill="#43586b" d="M 218.5,203.5 C 221.274,207.868 225.274,209.535 230.5,208.5C 230.704,211.518 231.037,214.518 231.5,217.5C 229.513,216.836 227.846,215.669 226.5,214C 225.207,213.51 223.873,213.343 222.5,213.5C 223.984,219.839 227.651,224.672 233.5,228C 230.122,228.048 226.789,227.548 223.5,226.5C 223.343,227.873 223.51,229.207 224,230.5C 227.352,234.26 231.519,236.593 236.5,237.5C 236.977,238.478 237.643,239.311 238.5,240C 234.469,240.481 230.469,241.147 226.5,242C 225.465,243.507 225.632,245.007 227,246.5C 230.648,248.684 234.481,249.018 238.5,247.5C 239.386,248.325 239.719,249.325 239.5,250.5C 237.62,250.229 236.287,250.896 235.5,252.5C 234.833,252.5 234.167,252.5 233.5,252.5C 229.766,253.682 226.1,255.016 222.5,256.5C 220.94,254.844 219.94,252.844 219.5,250.5C 218.908,247.873 218.575,245.206 218.5,242.5C 223.543,242.123 226.21,239.457 226.5,234.5C 222.116,234.174 217.783,234.508 213.5,235.5C 212.864,237.78 211.864,239.78 210.5,241.5C 210.443,240.391 210.11,239.391 209.5,238.5C 213.614,228.957 215.947,218.957 216.5,208.5C 217.167,206.833 217.833,205.167 218.5,203.5 Z"/></g>
<g><path style="opacity:1" fill="#de5e4f" d="M 209.5,238.5 C 210.11,239.391 210.443,240.391 210.5,241.5C 206.77,251.866 204.103,262.532 202.5,273.5C 201.833,273.5 201.167,273.5 200.5,273.5C 195.223,271.847 189.889,270.514 184.5,269.5C 184.167,269.5 183.833,269.5 183.5,269.5C 182.325,269.719 181.325,269.386 180.5,268.5C 182.261,266.747 183.594,264.747 184.5,262.5C 184.132,260.825 183.132,259.825 181.5,259.5C 181.201,257.396 181.534,255.396 182.5,253.5C 188.622,256.278 194.622,256.111 200.5,253C 204.415,248.657 207.415,243.823 209.5,238.5 Z"/></g>
<g><path style="opacity:1" fill="#f5f8f8" d="M 449.5,241.5 C 458.506,241.334 467.506,241.5 476.5,242C 478.426,242.422 479.426,243.589 479.5,245.5C 409.833,245.333 340.166,245.5 270.5,246C 270,246.5 269.5,247 269,247.5C 266.393,261.82 263.893,276.153 261.5,290.5C 260.087,293.219 259.42,296.219 259.5,299.5C 253.61,333.174 247.61,366.841 241.5,400.5C 240.686,402.631 240.186,404.964 240,407.5C 237.075,406.368 235.908,404.201 236.5,401C 239.37,389.682 241.037,378.182 241.5,366.5C 243.593,361.108 245.093,355.442 246,349.5C 247.31,339.12 248.81,328.787 250.5,318.5C 251.612,316.401 252.279,314.067 252.5,311.5C 256.571,288.811 260.904,266.144 265.5,243.5C 326.999,242.833 388.332,242.167 449.5,241.5 Z"/></g>
<g><path style="opacity:1" fill="#385168" d="M 479.5,245.5 C 480.15,245.804 480.817,246.137 481.5,246.5C 482.659,250.122 482.825,253.789 482,257.5C 476.16,290.187 470.327,322.854 464.5,355.5C 463.087,358.219 462.42,361.219 462.5,364.5C 459.862,378.798 457.362,393.132 455,407.5C 454.5,408 454,408.5 453.5,409C 431.663,409.168 409.996,409.668 388.5,410.5C 387.25,410.423 386.417,409.756 386,408.5C 384.272,397.799 382.439,387.133 380.5,376.5C 369.833,376.5 359.167,376.5 348.5,376.5C 351.019,387.801 353.352,399.135 355.5,410.5C 317.905,409.673 280.238,409.173 242.5,409C 241.556,406.281 241.223,403.448 241.5,400.5C 247.61,366.841 253.61,333.174 259.5,299.5C 260.913,296.781 261.58,293.781 261.5,290.5C 263.893,276.153 266.393,261.82 269,247.5C 269.5,247 270,246.5 270.5,246C 340.166,245.5 409.833,245.333 479.5,245.5 Z"/></g>
<g><path style="opacity:1" fill="#84bdbe" d="M 86.5,243.5 C 87.5,244.833 88.5,246.167 89.5,247.5C 89.6495,248.552 89.4828,249.552 89,250.5C 88.2917,249.619 87.4584,248.953 86.5,248.5C 85.506,246.666 85.506,244.999 86.5,243.5 Z"/></g>
<g><path style="opacity:1" fill="#ba8275" d="M 89.5,247.5 C 90.7944,249.68 90.4611,251.68 88.5,253.5C 87.8333,251.833 87.1667,250.167 86.5,248.5C 87.4584,248.953 88.2917,249.619 89,250.5C 89.4828,249.552 89.6495,248.552 89.5,247.5 Z"/></g>
<g><path style="opacity:1" fill="#395268" d="M 148.5,252.5 C 159.192,256.239 170.192,258.572 181.5,259.5C 183.132,259.825 184.132,260.825 184.5,262.5C 183.594,264.747 182.261,266.747 180.5,268.5C 181.325,269.386 182.325,269.719 183.5,269.5C 184.352,284.74 182.852,299.74 179,314.5C 178.268,318.115 176.935,321.448 175,324.5C 167.302,315.307 159.468,306.307 151.5,297.5C 146.454,289.423 140.454,282.09 133.5,275.5C 138.331,272.334 141.664,268 143.5,262.5C 145.759,259.474 147.425,256.14 148.5,252.5 Z"/></g>
<g><path style="opacity:1" fill="#9a9382" d="M 233.5,252.5 C 234.167,252.5 234.833,252.5 235.5,252.5C 234.343,254.138 233.176,255.804 232,257.5C 231.878,255.718 232.378,254.052 233.5,252.5 Z"/></g>
<g><path style="opacity:1" fill="#887471" d="M 143.5,249.5 C 145.368,250.263 147.035,251.263 148.5,252.5C 147.425,256.14 145.759,259.474 143.5,262.5C 143.5,258.167 143.5,253.833 143.5,249.5 Z"/></g>
<g><path style="opacity:1" fill="#b4a589" d="M 219.5,250.5 C 219.94,252.844 220.94,254.844 222.5,256.5C 222.295,259.988 221.461,263.321 220,266.5C 219.501,261.177 219.334,255.844 219.5,250.5 Z"/></g>
<g><path style="opacity:1" fill="#395168" d="M 184.5,269.5 C 189.889,270.514 195.223,271.847 200.5,273.5C 201.078,276.28 201.745,278.947 202.5,281.5C 215.013,309.181 227.68,336.848 240.5,364.5C 234.195,378.449 227.862,392.449 221.5,406.5C 220.507,414.65 220.174,422.983 220.5,431.5C 212.804,431.831 205.138,431.497 197.5,430.5C 196.054,425.463 194.054,420.796 191.5,416.5C 198.082,413.261 197.415,410.928 189.5,409.5C 185.404,401.561 182.071,393.228 179.5,384.5C 183.522,376.448 187.022,368.115 190,359.5C 191.655,353.244 192.322,346.911 192,340.5C 190.302,354.631 186.135,367.964 179.5,380.5C 179.043,381.298 178.376,381.631 177.5,381.5C 176.307,377.405 174.807,373.405 173,369.5C 171.644,368.62 170.144,368.286 168.5,368.5C 172.253,380.832 176.919,392.832 182.5,404.5C 175.503,401.202 168.169,399.369 160.5,399C 156.352,402.983 152.352,407.149 148.5,411.5C 138.833,411.5 129.167,411.5 119.5,411.5C 117.167,411.5 114.833,411.5 112.5,411.5C 108.643,395.622 104.643,379.789 100.5,364C 103.097,359.332 104.931,354.498 106,349.5C 100.02,363.618 93.1862,377.285 85.5,390.5C 81.2402,377.515 72.9068,368.015 60.5,362C 56.2845,360.316 51.9512,359.149 47.5,358.5C 47.5979,360.553 46.9313,362.22 45.5,363.5C 43.3373,359.37 42.0039,354.87 41.5,350C 43.5196,345.761 44.8529,341.261 45.5,336.5C 51.0984,324.641 57.265,312.975 64,301.5C 68.0909,295.653 72.4242,289.987 77,284.5C 81.1128,281.892 84.2795,278.559 86.5,274.5C 87.1174,274.611 87.6174,274.944 88,275.5C 91.5154,274.198 95.1821,273.531 99,273.5C 110.45,275.788 121.95,276.455 133.5,275.5C 138.546,283.577 144.546,290.91 151.5,297.5C 158.418,307.421 166.084,316.754 174.5,325.5C 167.933,328.302 166.099,332.969 169,339.5C 174.814,345.205 179.814,344.538 184,337.5C 184.923,333.017 183.423,329.683 179.5,327.5C 178.609,326.739 177.942,325.739 177.5,324.5C 183.41,306.649 185.743,288.316 184.5,269.5 Z"/></g>
<g><path style="opacity:1" fill="#de6151" d="M 230.5,269.5 C 231.4,274.772 231.733,280.105 231.5,285.5C 230.732,286.263 230.232,287.263 230,288.5C 229.329,287.748 228.496,287.414 227.5,287.5C 226.737,285.632 225.737,283.965 224.5,282.5C 225.757,277.767 227.757,273.434 230.5,269.5 Z"/></g>
<g><path style="opacity:1" fill="#95887a" d="M 200.5,273.5 C 201.167,273.5 201.833,273.5 202.5,273.5C 202.5,276.167 202.5,278.833 202.5,281.5C 201.745,278.947 201.078,276.28 200.5,273.5 Z"/></g>
<g><path style="opacity:1" fill="#778a97" d="M 113.5,291.5 C 109.663,288.504 106.496,285.171 104,281.5C 108.744,283.409 111.911,286.742 113.5,291.5 Z"/></g>
<g><path style="opacity:1" fill="#908a7e" d="M 224.5,282.5 C 223.116,285.195 221.116,286.195 218.5,285.5C 220.528,284.451 222.528,283.451 224.5,282.5 Z"/></g>
<g><path style="opacity:1" fill="#a9b6bd" d="M 133.5,275.5 C 140.454,282.09 146.454,289.423 151.5,297.5C 144.546,290.91 138.546,283.577 133.5,275.5 Z"/></g>
<g><path style="opacity:1" fill="#435a6e" d="M 231.5,285.5 C 231.34,287.199 231.506,288.866 232,290.5C 238.338,298.004 245.171,305.004 252.5,311.5C 252.279,314.067 251.612,316.401 250.5,318.5C 246.007,313.532 241.507,308.532 237,303.5C 233.557,298.272 230.39,292.938 227.5,287.5C 228.496,287.414 229.329,287.748 230,288.5C 230.232,287.263 230.732,286.263 231.5,285.5 Z"/></g>
<g><path style="opacity:1" fill="#94a3ae" d="M 261.5,290.5 C 261.58,293.781 260.913,296.781 259.5,299.5C 259.42,296.219 260.087,293.219 261.5,290.5 Z"/></g>
<g><path style="opacity:1" fill="#a9b3b7" d="M 183.5,269.5 C 183.833,269.5 184.167,269.5 184.5,269.5C 185.743,288.316 183.41,306.649 177.5,324.5C 177.942,325.739 178.609,326.739 179.5,327.5C 177.678,327.169 176.011,326.502 174.5,325.5C 166.084,316.754 158.418,307.421 151.5,297.5C 159.468,306.307 167.302,315.307 175,324.5C 176.935,321.448 178.268,318.115 179,314.5C 182.852,299.74 184.352,284.74 183.5,269.5 Z"/></g>
<g><path style="opacity:1" fill="#99a9b1" d="M 113.5,291.5 C 115.136,292.749 116.303,294.416 117,296.5C 119.718,308.048 118.551,319.048 113.5,329.5C 117.399,316.793 117.399,304.126 113.5,291.5 Z"/></g>
<g><path style="opacity:1" fill="#e9cc96" d="M 174.5,325.5 C 176.011,326.502 177.678,327.169 179.5,327.5C 183.423,329.683 184.923,333.017 184,337.5C 179.814,344.538 174.814,345.205 169,339.5C 166.099,332.969 167.933,328.302 174.5,325.5 Z"/></g>
<g><path style="opacity:1" fill="#8697a1" d="M 113.5,329.5 C 112.754,333.07 111.421,336.404 109.5,339.5C 109.167,339.167 108.833,338.833 108.5,338.5C 109.941,335.276 111.608,332.276 113.5,329.5 Z"/></g>
<g><path style="opacity:1" fill="#9eacb4" d="M 179.5,384.5 C 178.599,383.71 177.932,382.71 177.5,381.5C 178.376,381.631 179.043,381.298 179.5,380.5C 186.135,367.964 190.302,354.631 192,340.5C 192.322,346.911 191.655,353.244 190,359.5C 187.022,368.115 183.522,376.448 179.5,384.5 Z"/></g>
<g><path style="opacity:1" fill="#f2d299" d="M 85.5,390.5 C 84.5592,392.05 83.8925,393.716 83.5,395.5C 80.6562,400.184 78.6562,405.184 77.5,410.5C 85.1667,410.5 92.8333,410.5 100.5,410.5C 104.4,411.43 108.4,411.763 112.5,411.5C 114.833,411.5 117.167,411.5 119.5,411.5C 127.99,412.33 136.657,412.83 145.5,413C 144.167,414.333 142.833,415.667 141.5,417C 144.464,416.228 146.798,414.395 148.5,411.5C 152.352,407.149 156.352,402.983 160.5,399C 168.169,399.369 175.503,401.202 182.5,404.5C 185.165,407.335 187.665,410.335 190,413.5C 190.195,412.181 190.028,410.847 189.5,409.5C 197.415,410.928 198.082,413.261 191.5,416.5C 192.331,420.245 192.331,423.912 191.5,427.5C 189.579,428.363 187.579,429.029 185.5,429.5C 183.925,426.418 181.758,423.751 179,421.5C 178.833,421.833 178.667,422.167 178.5,422.5C 181.044,425.602 183.044,428.935 184.5,432.5C 182.119,434.64 179.452,434.973 176.5,433.5C 175.164,431.99 173.997,430.323 173,428.5C 172.41,430.954 171.576,432.621 170.5,433.5C 165.88,433.74 161.547,434.74 157.5,436.5C 153.818,435.629 150.152,434.629 146.5,433.5C 145.206,431.704 144.206,429.704 143.5,427.5C 142.719,428.729 142.219,430.062 142,431.5C 141.189,430.04 140.355,429.707 139.5,430.5C 140.193,431.518 140.859,432.518 141.5,433.5C 136.29,433.608 131.29,434.275 126.5,435.5C 101.585,438.491 76.5849,440.491 51.5,441.5C 46.2788,441.536 41.2788,440.536 36.5,438.5C 29.1456,431.441 25.9789,422.775 27,412.5C 32.6648,396.009 38.8315,379.676 45.5,363.5C 46.9313,362.22 47.5979,360.553 47.5,358.5C 51.9512,359.149 56.2845,360.316 60.5,362C 72.9068,368.015 81.2402,377.515 85.5,390.5 Z"/></g>
<g><path style="opacity:1" fill="#8d9ba8" d="M 464.5,355.5 C 464.58,358.781 463.913,361.781 462.5,364.5C 462.42,361.219 463.087,358.219 464.5,355.5 Z"/></g>
<g><path style="opacity:1" fill="#7bc3c7" d="M 112.5,411.5 C 108.4,411.763 104.4,411.43 100.5,410.5C 94.562,405.901 88.8953,400.901 83.5,395.5C 83.8925,393.716 84.5592,392.05 85.5,390.5C 93.1862,377.285 100.02,363.618 106,349.5C 104.931,354.498 103.097,359.332 100.5,364C 104.643,379.789 108.643,395.622 112.5,411.5 Z"/></g>
<g><path style="opacity:1" fill="#d65f51" d="M 177.5,381.5 C 177.932,382.71 178.599,383.71 179.5,384.5C 182.071,393.228 185.404,401.561 189.5,409.5C 190.028,410.847 190.195,412.181 190,413.5C 187.665,410.335 185.165,407.335 182.5,404.5C 176.919,392.832 172.253,380.832 168.5,368.5C 170.144,368.286 171.644,368.62 173,369.5C 174.807,373.405 176.307,377.405 177.5,381.5 Z"/></g>
<g><path style="opacity:1" fill="#a6b2b9" d="M 198.5,362.5 C 199.571,365.781 198.738,368.781 196,371.5C 196.776,368.577 197.609,365.577 198.5,362.5 Z"/></g>
<g><path style="opacity:1" fill="#78c3c8" d="M 240.5,364.5 C 241.338,364.842 241.672,365.508 241.5,366.5C 241.037,378.182 239.37,389.682 236.5,401C 235.908,404.201 237.075,406.368 240,407.5C 240.186,404.964 240.686,402.631 241.5,400.5C 241.223,403.448 241.556,406.281 242.5,409C 280.238,409.173 317.905,409.673 355.5,410.5C 356.593,416.816 357.593,423.149 358.5,429.5C 340.453,429.193 322.453,429.527 304.5,430.5C 276.833,430.5 249.167,430.5 221.5,430.5C 221.5,422.5 221.5,414.5 221.5,406.5C 227.862,392.449 234.195,378.449 240.5,364.5 Z"/></g>
<g><path style="opacity:1" fill="#7ac5c9" d="M 388.5,410.5 C 388.5,410.833 388.5,411.167 388.5,411.5C 387.876,411.917 387.543,412.584 387.5,413.5C 388.889,419.294 390.222,424.96 391.5,430.5C 391.756,433.598 392.422,436.598 393.5,439.5C 383.167,439.5 372.833,439.5 362.5,439.5C 362.672,438.508 362.338,437.842 361.5,437.5C 361.167,434.833 360.833,432.167 360.5,429.5C 359.453,422.898 357.786,416.565 355.5,410.5C 353.352,399.135 351.019,387.801 348.5,376.5C 359.167,376.5 369.833,376.5 380.5,376.5C 382.439,387.133 384.272,397.799 386,408.5C 386.417,409.756 387.25,410.423 388.5,410.5 Z"/></g>
<g><path style="opacity:1" fill="#fbfcfb" d="M 83.5,395.5 C 88.8953,400.901 94.562,405.901 100.5,410.5C 92.8333,410.5 85.1667,410.5 77.5,410.5C 78.6562,405.184 80.6562,400.184 83.5,395.5 Z"/></g>
<g><path style="opacity:1" fill="#82817b" d="M 60.5,409.5 C 65.5111,409.334 70.5111,409.501 75.5,410C 66.2968,410.338 57.2968,411.838 48.5,414.5C 45.9365,414.263 45.9365,413.763 48.5,413C 52.6469,411.891 56.6469,410.724 60.5,409.5 Z"/></g>
<g><path style="opacity:1" fill="#97988b" d="M 119.5,411.5 C 129.167,411.5 138.833,411.5 148.5,411.5C 146.798,414.395 144.464,416.228 141.5,417C 142.833,415.667 144.167,414.333 145.5,413C 136.657,412.83 127.99,412.33 119.5,411.5 Z"/></g>
<g><path style="opacity:1" fill="#a19985" d="M 180.5,411.5 C 181.721,410.535 183.054,410.702 184.5,412C 187.528,414.26 189.362,417.094 190,420.5C 186.964,417.296 183.797,414.296 180.5,411.5 Z"/></g>
<g><path style="opacity:1" fill="#da6a5a" d="M 191.5,416.5 C 194.054,420.796 196.054,425.463 197.5,430.5C 205.138,431.497 212.804,431.831 220.5,431.5C 221.5,431.5 222.5,431.5 223.5,431.5C 223.5,431.833 223.5,432.167 223.5,432.5C 215.167,432.5 206.833,432.5 198.5,432.5C 198.5,433.5 198.5,434.5 198.5,435.5C 198.649,436.552 198.483,437.552 198,438.5C 195.932,436.604 194.099,434.604 192.5,432.5C 192.5,432.167 192.5,431.833 192.5,431.5C 192.567,430.041 192.234,428.708 191.5,427.5C 192.331,423.912 192.331,420.245 191.5,416.5 Z"/></g>
<g><path style="opacity:1" fill="#65939f" d="M 355.5,410.5 C 357.786,416.565 359.453,422.898 360.5,429.5C 359.833,429.5 359.167,429.5 358.5,429.5C 357.593,423.149 356.593,416.816 355.5,410.5 Z"/></g>
<g><path style="opacity:1" fill="#9c8e82" d="M 185.5,429.5 C 187.279,431.344 189.612,432.01 192.5,431.5C 192.5,431.833 192.5,432.167 192.5,432.5C 189.833,432.5 187.167,432.5 184.5,432.5C 183.044,428.935 181.044,425.602 178.5,422.5C 178.667,422.167 178.833,421.833 179,421.5C 181.758,423.751 183.925,426.418 185.5,429.5 Z"/></g>
<g><path style="opacity:1" fill="#889da9" d="M 388.5,411.5 C 389.626,416.88 390.96,422.214 392.5,427.5C 395.977,428.167 399.311,428.834 402.5,429.5C 398.629,429.185 394.962,429.518 391.5,430.5C 390.222,424.96 388.889,419.294 387.5,413.5C 387.543,412.584 387.876,411.917 388.5,411.5 Z"/></g>
<g><path style="opacity:1" fill="#385168" d="M 358.5,429.5 C 359.167,429.5 359.833,429.5 360.5,429.5C 360.833,432.167 361.167,434.833 361.5,437.5C 338.5,438.833 315.5,438.833 292.5,437.5C 294.996,436.42 297.33,435.086 299.5,433.5C 300.71,433.068 301.71,432.401 302.5,431.5C 303.492,431.672 304.158,431.338 304.5,430.5C 322.453,429.527 340.453,429.193 358.5,429.5 Z"/></g>
<g><path style="opacity:1" fill="#3f546a" d="M 402.5,429.5 C 406.674,432.088 411.007,434.421 415.5,436.5C 416.833,437.5 418.167,438.5 419.5,439.5C 410.833,439.5 402.167,439.5 393.5,439.5C 392.422,436.598 391.756,433.598 391.5,430.5C 394.962,429.518 398.629,429.185 402.5,429.5 Z"/></g>
<g><path style="opacity:1" fill="#4f5e6e" d="M 191.5,427.5 C 192.234,428.708 192.567,430.041 192.5,431.5C 189.612,432.01 187.279,431.344 185.5,429.5C 187.579,429.029 189.579,428.363 191.5,427.5 Z"/></g>
<g><path style="opacity:1" fill="#83b3b5" d="M 221.5,406.5 C 221.5,414.5 221.5,422.5 221.5,430.5C 249.167,430.5 276.833,430.5 304.5,430.5C 304.158,431.338 303.492,431.672 302.5,431.5C 294.167,431.5 285.833,431.5 277.5,431.5C 259.5,431.5 241.5,431.5 223.5,431.5C 222.5,431.5 221.5,431.5 220.5,431.5C 220.174,422.983 220.507,414.65 221.5,406.5 Z"/></g>
<g><path style="opacity:1" fill="#a39884" d="M 146.5,433.5 C 144.833,433.5 143.167,433.5 141.5,433.5C 140.859,432.518 140.193,431.518 139.5,430.5C 140.355,429.707 141.189,430.04 142,431.5C 142.219,430.062 142.719,428.729 143.5,427.5C 144.206,429.704 145.206,431.704 146.5,433.5 Z"/></g>
<g><path style="opacity:1" fill="#97948a" d="M 176.5,433.5 C 174.5,433.5 172.5,433.5 170.5,433.5C 171.576,432.621 172.41,430.954 173,428.5C 173.997,430.323 175.164,431.99 176.5,433.5 Z"/></g>
<g><path style="opacity:1" fill="#e05e4f" d="M 223.5,432.5 C 223.5,432.167 223.5,431.833 223.5,431.5C 241.5,431.5 259.5,431.5 277.5,431.5C 284.833,432.167 292.167,432.833 299.5,433.5C 297.33,435.086 294.996,436.42 292.5,437.5C 291.833,437.833 291.167,438.167 290.5,438.5C 289.957,438.56 289.624,438.893 289.5,439.5C 332.998,440.831 376.331,440.831 419.5,439.5C 418.167,438.5 416.833,437.5 415.5,436.5C 431.52,437.669 447.52,439.169 463.5,441C 466.172,441.834 468.839,442.668 471.5,443.5C 472.583,444.365 472.749,445.365 472,446.5C 459.44,450.033 446.606,452.033 433.5,452.5C 426.95,452.454 420.617,453.121 414.5,454.5C 355.892,457.743 297.225,459.076 238.5,458.5C 170.073,459.192 101.74,457.025 33.5,452C 24.2122,451.176 15.2122,449.176 6.5,446C 5.6548,444.442 6.32146,443.442 8.5,443C 17.6102,440.156 26.9435,438.656 36.5,438.5C 41.2788,440.536 46.2788,441.536 51.5,441.5C 76.5849,440.491 101.585,438.491 126.5,435.5C 133.363,435.362 140.03,434.696 146.5,433.5C 150.152,434.629 153.818,435.629 157.5,436.5C 164.984,442.077 172.65,447.41 180.5,452.5C 180.5,453.167 180.833,453.5 181.5,453.5C 213.662,454.498 245.996,454.832 278.5,454.5C 278.5,453.5 278.5,452.5 278.5,451.5C 277.167,451.5 275.833,451.5 274.5,451.5C 274.167,451.5 273.833,451.5 273.5,451.5C 257.325,445.108 240.992,439.108 224.5,433.5C 224.5,432.833 224.167,432.5 223.5,432.5 Z"/></g>
<g><path style="opacity:1" fill="#c27266" d="M 277.5,431.5 C 285.833,431.5 294.167,431.5 302.5,431.5C 301.71,432.401 300.71,433.068 299.5,433.5C 292.167,432.833 284.833,432.167 277.5,431.5 Z"/></g>
<g><path style="opacity:1" fill="#f3d0c9" d="M 223.5,432.5 C 224.167,432.5 224.5,432.833 224.5,433.5C 215.566,432.908 206.899,433.575 198.5,435.5C 198.5,434.5 198.5,433.5 198.5,432.5C 206.833,432.5 215.167,432.5 223.5,432.5 Z"/></g>
<g><path style="opacity:1" fill="#fefcfc" d="M 184.5,432.5 C 187.167,432.5 189.833,432.5 192.5,432.5C 194.099,434.604 195.932,436.604 198,438.5C 198.483,437.552 198.649,436.552 198.5,435.5C 206.899,433.575 215.566,432.908 224.5,433.5C 240.992,439.108 257.325,445.108 273.5,451.5C 242.671,452.498 211.671,452.831 180.5,452.5C 172.65,447.41 164.984,442.077 157.5,436.5C 161.547,434.74 165.88,433.74 170.5,433.5C 172.5,433.5 174.5,433.5 176.5,433.5C 179.452,434.973 182.119,434.64 184.5,432.5 Z"/></g>
<g><path style="opacity:1" fill="#e28a6d" d="M 141.5,433.5 C 143.167,433.5 144.833,433.5 146.5,433.5C 140.03,434.696 133.363,435.362 126.5,435.5C 131.29,434.275 136.29,433.608 141.5,433.5 Z"/></g>
<g><path style="opacity:1" fill="#585462" d="M 292.5,437.5 C 315.5,438.833 338.5,438.833 361.5,437.5C 362.338,437.842 362.672,438.508 362.5,439.5C 338.328,439.831 314.328,439.498 290.5,438.5C 291.167,438.167 291.833,437.833 292.5,437.5 Z"/></g>
<g><path style="opacity:1" fill="#c4685f" d="M 290.5,438.5 C 314.328,439.498 338.328,439.831 362.5,439.5C 372.833,439.5 383.167,439.5 393.5,439.5C 402.167,439.5 410.833,439.5 419.5,439.5C 376.331,440.831 332.998,440.831 289.5,439.5C 289.624,438.893 289.957,438.56 290.5,438.5 Z"/></g>
<g><path style="opacity:1" fill="#f9e9e7" d="M 273.5,451.5 C 273.833,451.5 274.167,451.5 274.5,451.5C 275.263,452.268 276.263,452.768 277.5,453C 245.502,453.5 213.502,453.667 181.5,453.5C 180.833,453.5 180.5,453.167 180.5,452.5C 211.671,452.831 242.671,452.498 273.5,451.5 Z"/></g>
<g><path style="opacity:1" fill="#e7877c" d="M 274.5,451.5 C 275.833,451.5 277.167,451.5 278.5,451.5C 278.5,452.5 278.5,453.5 278.5,454.5C 245.996,454.832 213.662,454.498 181.5,453.5C 213.502,453.667 245.502,453.5 277.5,453C 276.263,452.768 275.263,452.268 274.5,451.5 Z"/></g>
<g><path style="opacity:1" fill="#efb5ad" d="M 433.5,452.5 C 427.406,454.094 421.072,454.761 414.5,454.5C 420.617,453.121 426.95,452.454 433.5,452.5 Z"/></g>
</svg>
