<?xml version="1.0" encoding="UTF-8"?>
<!DOCTYPE svg PUBLIC "-//W3C//DTD SVG 1.1//EN" "http://www.w3.org/Graphics/SVG/1.1/DTD/svg11.dtd">
<svg xmlns="http://www.w3.org/2000/svg" version="1.1" width="667px" height="374px" style="shape-rendering:geometricPrecision; text-rendering:geometricPrecision; image-rendering:optimizeQuality; fill-rule:evenodd; clip-rule:evenodd" xmlns:xlink="http://www.w3.org/1999/xlink">
<g><path style="opacity:0.885" fill="#808347" d="M 516.5,54.5 C 368.145,54.1728 219.812,54.5061 71.5,55.5C 72.2625,54.7321 73.2625,54.2321 74.5,54C 222.001,53.1672 369.334,53.3339 516.5,54.5 Z"/></g>
<g><path style="opacity:1" fill="#696b25" d="M 516.5,54.5 C 528.79,57.7897 535.124,65.7897 535.5,78.5C 530.392,110.151 525.392,141.817 520.5,173.5C 519.833,173.5 519.5,173.833 519.5,174.5C 399.166,174.333 278.833,174.5 158.5,175C 157.584,175.278 156.918,175.778 156.5,176.5C 151.285,178.876 147.118,182.543 144,187.5C 142.359,193.246 140.859,198.912 139.5,204.5C 112.498,204.667 85.4979,204.5 58.5,204C 41.9973,198.799 35.4973,187.632 39,170.5C 44.4093,138.121 50.0759,105.787 56,73.5C 57.804,64.5341 62.9707,58.5341 71.5,55.5C 219.812,54.5061 368.145,54.1728 516.5,54.5 Z"/></g>
<g><path style="opacity:1" fill="#fbf8f4" d="M 206.5,81.5 C 214.486,94.1304 222.486,106.797 230.5,119.5C 230.5,119.833 230.5,120.167 230.5,120.5C 231.601,121.598 232.934,121.765 234.5,121C 233.511,107.913 233.177,94.7461 233.5,81.5C 236.833,81.5 240.167,81.5 243.5,81.5C 243.5,102.167 243.5,122.833 243.5,143.5C 239.233,143.797 235.066,143.464 231,142.5C 222.403,128.295 213.569,114.295 204.5,100.5C 203.501,114.818 203.167,129.151 203.5,143.5C 199.833,143.5 196.167,143.5 192.5,143.5C 192.5,122.833 192.5,102.167 192.5,81.5C 197.167,81.5 201.833,81.5 206.5,81.5 Z"/></g>
<g><path style="opacity:1" fill="#8b8b54" d="M 232.5,80.5 C 233.148,94.2086 232.481,107.542 230.5,120.5C 230.5,120.167 230.5,119.833 230.5,119.5C 231.167,106.5 231.833,93.5 232.5,80.5 Z"/></g>
<g><path style="opacity:1" fill="#d4d2bd" d="M 206.5,81.5 C 201.833,81.5 197.167,81.5 192.5,81.5C 192.5,102.167 192.5,122.833 192.5,143.5C 191.503,122.673 191.169,101.673 191.5,80.5C 196.695,80.1795 201.695,80.5128 206.5,81.5 Z"/></g>
<g><path style="opacity:1" fill="#dedccc" d="M 232.5,80.5 C 236.5,80.5 240.5,80.5 244.5,80.5C 244.831,101.673 244.497,122.673 243.5,143.5C 243.5,122.833 243.5,102.167 243.5,81.5C 240.167,81.5 236.833,81.5 233.5,81.5C 233.177,94.7461 233.511,107.913 234.5,121C 232.934,121.765 231.601,121.598 230.5,120.5C 232.481,107.542 233.148,94.2086 232.5,80.5 Z"/></g>
<g><path style="opacity:1" fill="#f8f5f0" d="M 272.5,95.5 C 293.646,93.1248 303.813,102.458 303,123.5C 299.765,139.552 289.932,146.385 273.5,144C 265.234,141.401 260.068,135.901 258,127.5C 254.537,112.776 259.37,102.109 272.5,95.5 Z"/></g>
<g><path style="opacity:1" fill="#a6a67b" d="M 364.5,96.5 C 367.962,95.5184 371.629,95.185 375.5,95.5C 375.784,97.4147 375.451,99.0813 374.5,100.5C 374.5,99.1667 374.5,97.8333 374.5,96.5C 371.167,96.5 367.833,96.5 364.5,96.5 Z"/></g>
<g><path style="opacity:1" fill="#f8f5f0" d="M 332.5,113.5 C 333.924,111.485 334.59,109.152 334.5,106.5C 334.959,103.123 335.626,99.7893 336.5,96.5C 340.5,96.5 344.5,96.5 348.5,96.5C 350.887,106.996 353.887,117.33 357.5,127.5C 360.472,117.305 362.805,106.972 364.5,96.5C 367.833,96.5 371.167,96.5 374.5,96.5C 374.5,97.8333 374.5,99.1667 374.5,100.5C 371.376,114.541 368.043,128.541 364.5,142.5C 360.217,143.492 355.884,143.826 351.5,143.5C 348.909,132.725 345.909,122.058 342.5,111.5C 340.441,114.038 339.441,117.038 339.5,120.5C 338.076,122.515 337.41,124.848 337.5,127.5C 335.798,132.655 334.465,137.988 333.5,143.5C 329.167,143.5 324.833,143.5 320.5,143.5C 317.136,127.913 313.47,112.413 309.5,97C 313.486,96.5012 317.486,96.3345 321.5,96.5C 323.344,106.887 325.511,117.22 328,127.5C 329.281,122.643 330.781,117.977 332.5,113.5 Z"/></g>
<g><path style="opacity:1" fill="#6a6c26" d="M 275.5,105.5 C 279.273,105.263 282.94,105.763 286.5,107C 288.487,108.319 289.654,110.152 290,112.5C 290.851,118.253 290.517,123.92 289,129.5C 281.289,136.937 274.955,135.937 270,126.5C 268.939,120.276 269.606,114.276 272,108.5C 273.145,107.364 274.312,106.364 275.5,105.5 Z"/></g>
<g><path style="opacity:1" fill="#bdbc9b" d="M 334.5,106.5 C 334.59,109.152 333.924,111.485 332.5,113.5C 332.41,110.848 333.076,108.515 334.5,106.5 Z"/></g>
<g><path style="opacity:1" fill="#a09f71" d="M 339.5,120.5 C 339.59,123.152 338.924,125.485 337.5,127.5C 337.41,124.848 338.076,122.515 339.5,120.5 Z"/></g>
<g><path style="opacity:0.999" fill="#fefefd" d="M 139.5,204.5 C 140.859,198.912 142.359,193.246 144,187.5C 147.118,182.543 151.285,178.876 156.5,176.5C 277.646,175.841 398.646,175.174 519.5,174.5C 519.5,173.833 519.833,173.5 520.5,173.5C 542.846,173.768 565.179,173.434 587.5,172.5C 602.829,171.077 613.996,177.077 621,190.5C 622.459,196.788 622.459,203.121 621,209.5C 615.256,242.885 609.256,276.219 603,309.5C 598.885,318.153 592.051,323.32 582.5,325C 435.791,325.994 289.124,325.66 142.5,324C 130.781,320.071 124.781,311.905 124.5,299.5C 129.392,267.813 134.392,236.146 139.5,204.5 Z"/></g>
<g><path style="opacity:1" fill="#f2f3ec" d="M 519.5,174.5 C 398.646,175.174 277.646,175.841 156.5,176.5C 156.918,175.778 157.584,175.278 158.5,175C 278.833,174.5 399.166,174.333 519.5,174.5 Z"/></g>
<g><path style="opacity:1" fill="#70712e" d="M 320.5,211.5 C 324.803,210.796 328.303,212.13 331,215.5C 332.131,221.538 329.631,224.871 323.5,225.5C 318.086,224.348 315.919,221.015 317,215.5C 318.032,213.973 319.199,212.64 320.5,211.5 Z"/></g>
<g><path style="opacity:1" fill="#6c6e29" d="M 383.5,211.5 C 390.655,211.153 393.821,214.486 393,221.5C 388.585,226.726 384.251,226.726 380,221.5C 378.581,217.082 379.748,213.749 383.5,211.5 Z"/></g>
<g><path style="opacity:1" fill="#6a6c25" d="M 290.5,278.5 C 290.5,268.833 290.5,259.167 290.5,249.5C 280.985,249.173 271.652,249.506 262.5,250.5C 262.5,259.833 262.5,269.167 262.5,278.5C 258.5,278.5 254.5,278.5 250.5,278.5C 250.5,257.833 250.5,237.167 250.5,216.5C 254.167,216.5 257.833,216.5 261.5,216.5C 261.175,224.352 261.508,232.018 262.5,239.5C 271.833,239.5 281.167,239.5 290.5,239.5C 290.5,231.5 290.5,223.5 290.5,215.5C 294.5,215.5 298.5,215.5 302.5,215.5C 302.5,236.5 302.5,257.5 302.5,278.5C 298.5,278.5 294.5,278.5 290.5,278.5 Z"/></g>
<g><path style="opacity:1" fill="#8e905b" d="M 262.5,239.5 C 261.508,232.018 261.175,224.352 261.5,216.5C 257.833,216.5 254.167,216.5 250.5,216.5C 250.5,237.167 250.5,257.833 250.5,278.5C 249.503,257.673 249.169,236.673 249.5,215.5C 253.833,215.5 258.167,215.5 262.5,215.5C 262.5,223.5 262.5,231.5 262.5,239.5 Z"/></g>
<g><path style="opacity:1" fill="#6d6f2a" d="M 491.5,224.5 C 495.058,224.405 498.058,225.572 500.5,228C 499.695,231.803 497.695,234.803 494.5,237C 500.581,248.766 497.581,257.1 485.5,262C 481.179,262.499 476.846,262.666 472.5,262.5C 472.261,264.467 472.594,266.301 473.5,268C 482.115,267.793 490.449,269.127 498.5,272C 502.569,276.834 503.569,282.334 501.5,288.5C 499.565,292.932 496.232,295.765 491.5,297C 483.898,298.523 476.232,298.856 468.5,298C 458.582,295.792 455.082,289.958 458,280.5C 460.37,278.629 462.87,276.962 465.5,275.5C 459.449,268.862 460.449,263.529 468.5,259.5C 461.017,253.114 459.517,245.447 464,236.5C 466.441,234.031 469.274,232.198 472.5,231C 477.533,230.272 482.533,230.439 487.5,231.5C 488.167,231.167 488.833,230.833 489.5,230.5C 490.172,228.47 490.838,226.47 491.5,224.5 Z"/></g>
<g><path style="opacity:1" fill="#a6a77e" d="M 329.5,231.5 C 325.833,231.5 322.167,231.5 318.5,231.5C 318.5,247.167 318.5,262.833 318.5,278.5C 317.504,262.675 317.17,246.675 317.5,230.5C 321.702,230.183 325.702,230.517 329.5,231.5 Z"/></g>
<g><path style="opacity:1" fill="#6c6e29" d="M 363.5,230.5 C 366.448,230.223 369.281,230.556 372,231.5C 372.279,235.17 372.112,238.837 371.5,242.5C 364.49,239.927 359.323,241.927 356,248.5C 355.5,258.494 355.334,268.494 355.5,278.5C 351.5,278.5 347.5,278.5 343.5,278.5C 343.5,262.833 343.5,247.167 343.5,231.5C 347.167,231.5 350.833,231.5 354.5,231.5C 354.192,233.924 354.526,236.257 355.5,238.5C 357.216,234.784 359.883,232.117 363.5,230.5 Z"/></g>
<g><path style="opacity:1" fill="#6c6e29" d="M 427.5,230.5 C 432.248,230.275 436.915,230.775 441.5,232C 443.709,233.873 445.542,236.04 447,238.5C 448.444,251.76 448.944,265.093 448.5,278.5C 444.5,278.5 440.5,278.5 436.5,278.5C 436.667,266.829 436.5,255.162 436,243.5C 431.863,240.171 427.363,239.671 422.5,242C 420.951,243.214 419.785,244.714 419,246.5C 418.5,257.161 418.333,267.828 418.5,278.5C 414.5,278.5 410.5,278.5 406.5,278.5C 406.5,262.833 406.5,247.167 406.5,231.5C 410.167,231.5 413.833,231.5 417.5,231.5C 417.337,233.857 417.503,236.19 418,238.5C 420.77,235.219 423.936,232.553 427.5,230.5 Z"/></g>
<g><path style="opacity:1" fill="#696b25" d="M 329.5,231.5 C 329.5,247.167 329.5,262.833 329.5,278.5C 325.833,278.5 322.167,278.5 318.5,278.5C 318.5,262.833 318.5,247.167 318.5,231.5C 322.167,231.5 325.833,231.5 329.5,231.5 Z"/></g>
<g><path style="opacity:1" fill="#6d6f2a" d="M 380.5,231.5 C 384.5,231.5 388.5,231.5 392.5,231.5C 392.5,247.167 392.5,262.833 392.5,278.5C 388.5,278.5 384.5,278.5 380.5,278.5C 380.5,262.833 380.5,247.167 380.5,231.5 Z"/></g>
<g><path style="opacity:1" fill="#f7f7f3" d="M 476.5,238.5 C 485.443,237.942 488.61,241.942 486,250.5C 481.155,256.079 476.822,255.746 473,249.5C 471.662,244.96 472.829,241.293 476.5,238.5 Z"/></g>
<g><path style="opacity:1" fill="#c6c7ab" d="M 262.5,250.5 C 271.652,249.506 280.985,249.173 290.5,249.5C 290.5,259.167 290.5,268.833 290.5,278.5C 289.506,269.348 289.173,260.015 289.5,250.5C 280.5,250.5 271.5,250.5 262.5,250.5 Z"/></g>
<g><path style="opacity:1" fill="#fbfbfa" d="M 469.5,279.5 C 475.842,279.334 482.175,279.5 488.5,280C 491.241,283.242 490.908,286.242 487.5,289C 482.167,289.667 476.833,289.667 471.5,289C 468.42,286.355 467.753,283.188 469.5,279.5 Z"/></g>
</svg>
