<?xml version="1.0" encoding="UTF-8"?>
<!DOCTYPE svg PUBLIC "-//W3C//DTD SVG 1.1//EN" "http://www.w3.org/Graphics/SVG/1.1/DTD/svg11.dtd">
<svg xmlns="http://www.w3.org/2000/svg" version="1.1" width="380px" height="270px" style="shape-rendering:geometricPrecision; text-rendering:geometricPrecision; image-rendering:optimizeQuality; fill-rule:evenodd; clip-rule:evenodd" xmlns:xlink="http://www.w3.org/1999/xlink">
<g><path style="opacity:0.997" fill="#474745" d="M 265.5,7.5 C 280.046,6.4769 293.713,9.31023 306.5,16C 312.436,20.7741 317.102,26.6074 320.5,33.5C 332.222,38.9231 339.722,47.9231 343,60.5C 344.526,70.1145 344.859,79.7812 344,89.5C 339.946,121.423 336.613,153.423 334,185.5C 328.758,220.389 308.591,235.222 273.5,230C 263.912,228.763 254.412,227.263 245,225.5C 235.809,235.69 226.309,245.524 216.5,255C 203.768,263.352 191.101,263.019 178.5,254C 167.167,245.333 155.833,236.667 144.5,228C 141.689,227.089 138.856,226.256 136,225.5C 118.936,228.872 102.103,228.038 85.5,223C 76.4446,218.278 69.7779,211.278 65.5,202C 51.1854,194.997 43.0188,183.497 41,167.5C 34.158,134.465 27.158,101.465 20,68.5C 17.7086,41.4575 29.8752,25.2909 56.5,20C 117.832,16.6668 179.165,13.3334 240.5,10C 249.03,9.6331 257.363,8.79977 265.5,7.5 Z M 322.5,39.5 C 330.547,43.0345 335.381,49.0345 337,57.5C 332.333,52.8333 327.667,48.1667 323,43.5C 322.51,42.2068 322.343,40.8734 322.5,39.5 Z M 267.5,47.5 C 270.112,48.2775 271.945,49.9441 273,52.5C 274.012,67.8277 274.846,83.1611 275.5,98.5C 275.5,101.5 275.5,104.5 275.5,107.5C 274.167,107.5 272.833,107.5 271.5,107.5C 270.386,87.46 269.053,67.46 267.5,47.5 Z M 323.5,50.5 C 328.796,54.9596 333.963,59.6263 339,64.5C 340.418,69.4285 340.751,74.4285 340,79.5C 334.667,74.1667 329.333,68.8333 324,63.5C 323.501,59.1794 323.334,54.8461 323.5,50.5 Z M 192.5,51.5 C 191.5,52.1667 190.5,52.8333 189.5,53.5C 189.5,54.5 189.5,55.5 189.5,56.5C 189.813,60.0419 189.479,63.3752 188.5,66.5C 188.5,61.5 188.5,56.5 188.5,51.5C 189.833,51.5 191.167,51.5 192.5,51.5 Z M 109.5,56.5 C 110.492,56.3284 111.158,56.6618 111.5,57.5C 111.5,57.8333 111.5,58.1667 111.5,58.5C 110.833,59.5 110.167,60.5 109.5,61.5C 109.5,59.8333 109.5,58.1667 109.5,56.5 Z M 322.5,68.5 C 328.131,73.6303 333.631,78.9637 339,84.5C 339.922,88.6908 339.588,92.6908 338,96.5C 332.985,91.3182 327.819,86.3182 322.5,81.5C 322.064,77.244 322.064,72.9107 322.5,68.5 Z M 113.5,72.5 C 113.5,72.8333 113.5,73.1667 113.5,73.5C 112.833,73.5 112.5,73.8333 112.5,74.5C 111.833,74.8333 111.167,75.1667 110.5,75.5C 110.5,74.5 110.5,73.5 110.5,72.5C 111.5,72.5 112.5,72.5 113.5,72.5 Z M 189.5,72.5 C 190.167,75.8333 190.833,79.1667 191.5,82.5C 190.241,85.5264 188.908,85.8597 187.5,83.5C 189.414,80.3157 190.08,76.649 189.5,72.5 Z M 217.5,79.5 C 217.768,81.099 217.434,82.4324 216.5,83.5C 215.209,83.7373 214.209,83.404 213.5,82.5C 215.43,82.2294 216.764,81.2294 217.5,79.5 Z M 118.5,89.5 C 118.5,89.1667 118.5,88.8333 118.5,88.5C 120.027,88.573 121.027,87.9063 121.5,86.5C 123.353,85.3857 123.853,86.0524 123,88.5C 121.644,89.3802 120.144,89.7135 118.5,89.5 Z M 337.5,109.5 C 336.71,110.609 336.21,111.942 336,113.5C 335.617,112.944 335.117,112.611 334.5,112.5C 330.188,107.521 325.521,102.854 320.5,98.5C 319.415,94.1539 319.582,89.8205 321,85.5C 326.333,90.8333 331.667,96.1667 337,101.5C 337.497,104.146 337.664,106.813 337.5,109.5 Z M 101.5,87.5 C 102.167,87.8333 102.833,88.1667 103.5,88.5C 102.71,89.4013 101.71,90.0679 100.5,90.5C 100.5,89.8333 100.5,89.1667 100.5,88.5C 101.167,88.5 101.5,88.1667 101.5,87.5 Z M 192.5,98.5 C 194.828,102.42 196.161,106.754 196.5,111.5C 196.784,113.415 196.451,115.081 195.5,116.5C 193.884,111.368 192.55,106.034 191.5,100.5C 191.543,99.5836 191.876,98.9169 192.5,98.5 Z M 124.5,101.5 C 126.017,101.511 127.184,102.177 128,103.5C 129.199,115.14 130.032,126.807 130.5,138.5C 129.849,139.091 129.182,139.757 128.5,140.5C 127.83,138.709 127.163,137.042 126.5,135.5C 126.202,124.13 125.535,112.797 124.5,101.5 Z M 318.5,102.5 C 324.131,107.63 329.631,112.964 335,118.5C 335.827,122.541 335.66,126.541 334.5,130.5C 329.15,125.315 323.65,120.315 318,115.5C 317.924,111.181 318.091,106.848 318.5,102.5 Z M 173.5,106.5 C 173.833,106.5 174.167,106.5 174.5,106.5C 178.05,114.73 179.716,123.397 179.5,132.5C 179.727,134.933 178.727,136.599 176.5,137.5C 176.216,127.085 175.216,116.751 173.5,106.5 Z M 160.5,110.5 C 157.495,110.253 154.995,111.253 153,113.5C 151.646,117.363 151.146,121.363 151.5,125.5C 150.504,125.586 149.671,125.252 149,124.5C 148.79,122.942 148.29,121.609 147.5,120.5C 146.784,115.61 148.117,111.444 151.5,108C 155.142,106.93 158.142,107.764 160.5,110.5 Z M 101.5,111.5 C 101.833,111.5 102.167,111.5 102.5,111.5C 103.234,112.708 103.567,114.041 103.5,115.5C 102.326,114.486 101.66,113.153 101.5,111.5 Z M 103.5,115.5 C 106.529,120.209 109.196,125.209 111.5,130.5C 111.5,131.167 111.5,131.833 111.5,132.5C 108.045,127.254 105.378,121.587 103.5,115.5 Z M 316.5,119.5 C 322.465,124.964 328.298,130.63 334,136.5C 333.967,140.478 333.467,144.478 332.5,148.5C 326.848,143.348 321.348,138.015 316,132.5C 316.367,128.254 316.533,123.92 316.5,119.5 Z M 315.5,137.5 C 321.131,142.63 326.631,147.964 332,153.5C 332.425,157.869 332.092,162.203 331,166.5C 325.667,161.167 320.333,155.833 315,150.5C 314.466,146.141 314.632,141.808 315.5,137.5 Z M 131.5,147.5 C 132.175,158.497 132.342,169.497 132,180.5C 128.432,183.31 125.266,182.977 122.5,179.5C 126.616,179.559 128.949,177.559 129.5,173.5C 128.575,163.857 127.909,154.19 127.5,144.5C 128.222,144.082 128.722,143.416 129,142.5C 129.374,144.491 130.207,146.158 131.5,147.5 Z M 149.5,142.5 C 150.609,142.557 151.609,142.89 152.5,143.5C 153.292,149.13 153.625,154.797 153.5,160.5C 153.672,161.492 153.338,162.158 152.5,162.5C 149.878,156.144 148.878,149.478 149.5,142.5 Z M 211.5,154.5 C 211.183,161.554 210.35,168.554 209,175.5C 205.421,178.373 202.255,178.04 199.5,174.5C 202.561,174.556 204.728,173.222 206,170.5C 206.748,165.519 207.248,160.519 207.5,155.5C 208.705,153.862 210.038,153.529 211.5,154.5 Z M 313.5,154.5 C 319.996,160.163 325.996,166.329 331.5,173C 330.867,176.459 330.2,179.959 329.5,183.5C 323.848,178.348 318.348,173.015 313,167.5C 313.291,163.226 313.457,158.893 313.5,154.5 Z M 180.5,162.5 C 179.327,174.17 172.827,180.17 161,180.5C 156.439,180.251 152.606,178.584 149.5,175.5C 165.468,179.5 174.801,173.5 177.5,157.5C 178.496,157.586 179.329,157.252 180,156.5C 180.495,158.473 180.662,160.473 180.5,162.5 Z M 104.5,159.5 C 104.494,166.546 104.661,173.546 105,180.5C 104.057,182.954 102.224,183.954 99.5,183.5C 98.1667,183.333 96.8333,183.167 95.5,183C 94.7476,182.329 94.4142,181.496 94.5,180.5C 97.368,180.915 99.5347,179.915 101,177.5C 101.3,171.496 101.134,165.496 100.5,159.5C 101.458,159.047 102.292,158.381 103,157.5C 103.278,158.416 103.778,159.082 104.5,159.5 Z M 274.5,162.5 C 278.314,162.651 279.981,164.651 279.5,168.5C 278.461,170.531 276.795,171.864 274.5,172.5C 272.5,172.5 270.5,172.5 268.5,172.5C 268.366,170.708 268.699,169.042 269.5,167.5C 272.167,166.833 273.833,165.167 274.5,162.5 Z M 311.5,172.5 C 317.768,177.264 323.602,182.598 329,188.5C 328.789,192.34 327.789,196.007 326,199.5C 320.333,193.833 314.667,188.167 309,182.5C 309.81,179.261 310.643,175.928 311.5,172.5 Z M 306.5,186.5 C 312.742,191.236 318.576,196.569 324,202.5C 323.824,206.202 322.49,209.535 320,212.5C 313.724,207.227 307.724,201.56 302,195.5C 303.425,192.65 304.925,189.65 306.5,186.5 Z M 298.5,197.5 C 304.465,202.964 310.298,208.63 316,214.5C 315.273,218.543 312.773,220.376 308.5,220C 302.941,214.417 297.274,209.084 291.5,204C 294.288,202.281 296.621,200.115 298.5,197.5 Z M 77.5,205.5 C 83.0233,209.842 87.5233,214.842 91,220.5C 83.3192,218.084 77.4859,213.418 73.5,206.5C 74.5676,205.566 75.901,205.232 77.5,205.5 Z M 238.5,213.5 C 237.09,215.96 234.924,217.293 232,217.5C 229.718,216.71 227.552,215.71 225.5,214.5C 223.856,212.519 222.19,210.519 220.5,208.5C 224.043,205.162 228.043,204.662 232.5,207C 234.4,209.335 236.4,211.502 238.5,213.5 Z M 286.5,205.5 C 293.243,210.737 299.577,216.571 305.5,223C 301.682,224.944 297.682,225.611 293.5,225C 288.167,219.667 282.833,214.333 277.5,209C 280.718,208.1 283.718,206.933 286.5,205.5 Z M 103.5,212.5 C 101.945,215.262 99.9448,217.596 97.5,219.5C 93.0355,215.537 88.7022,211.37 84.5,207C 89.1667,206.333 93.8333,206.333 98.5,207C 100.033,209.029 101.699,210.862 103.5,212.5 Z M 273.5,210.5 C 275.5,211.833 277.167,213.5 278.5,215.5C 275.625,217.868 272.625,218.034 269.5,216C 271.439,214.568 272.772,212.735 273.5,210.5 Z M 219.5,213.5 C 223.833,218.5 228.5,223.167 233.5,227.5C 233.607,229.379 233.107,229.712 232,228.5C 230.933,229.191 229.766,229.691 228.5,230C 228.026,231.729 227.026,232.895 225.5,233.5C 221.5,228.833 217.167,224.5 212.5,220.5C 214.473,217.861 216.806,215.527 219.5,213.5 Z M 207.5,221.5 C 213.965,227.464 220.298,233.631 226.5,240C 224.333,242.167 222.167,244.333 220,246.5C 214.333,240.833 208.667,235.167 203,229.5C 204.169,226.785 205.669,224.118 207.5,221.5 Z M 197.5,231.5 C 204.595,236.426 210.929,242.259 216.5,249C 214.121,252.018 211.121,253.685 207.5,254C 201.833,248.333 196.167,242.667 190.5,237C 193.02,235.303 195.353,233.47 197.5,231.5 Z M 163.5,237.5 C 163.5,237.167 163.5,236.833 163.5,236.5C 167.363,237.694 170.363,240.027 172.5,243.5C 169.357,241.758 166.357,239.758 163.5,237.5 Z M 184.5,238.5 C 185.552,238.351 186.552,238.517 187.5,239C 193.167,244.667 198.833,250.333 204.5,256C 199.411,256.826 194.411,256.492 189.5,255C 184.5,250 179.5,245 174.5,240C 178.025,239.821 181.359,239.321 184.5,238.5 Z"/></g>
<g><path style="opacity:1" fill="#f7e05a" d="M 260.5,11.5 C 275.954,9.77742 290.621,12.2774 304.5,19C 312.541,25.2449 317.374,33.4115 319,43.5C 319.667,50.8333 319.667,58.1667 319,65.5C 314.917,101.827 310.917,138.161 307,174.5C 300.853,196.082 286.52,206.415 264,205.5C 249.748,204.363 235.582,202.863 221.5,201C 213.167,210 204.833,219 196.5,228C 187.196,235.861 176.862,237.527 165.5,233C 151.553,223.386 137.886,213.386 124.5,203C 120.939,201.693 117.273,200.86 113.5,200.5C 100.849,201.588 88.1825,201.754 75.5,201C 60.3384,198.182 50.8384,189.349 47,174.5C 39.5326,138.438 31.8659,102.438 24,66.5C 22.6622,41.3756 34.4956,26.8756 59.5,23C 126.711,20.1067 193.711,16.2734 260.5,11.5 Z M 267.5,47.5 C 270.112,48.2775 271.945,49.9441 273,52.5C 274.012,67.8277 274.846,83.1611 275.5,98.5C 275.5,101.5 275.5,104.5 275.5,107.5C 274.167,107.5 272.833,107.5 271.5,107.5C 270.386,87.46 269.053,67.46 267.5,47.5 Z M 192.5,51.5 C 191.5,52.1667 190.5,52.8333 189.5,53.5C 189.5,54.5 189.5,55.5 189.5,56.5C 189.813,60.0419 189.479,63.3752 188.5,66.5C 188.5,61.5 188.5,56.5 188.5,51.5C 189.833,51.5 191.167,51.5 192.5,51.5 Z M 109.5,56.5 C 110.492,56.3284 111.158,56.6618 111.5,57.5C 111.5,57.8333 111.5,58.1667 111.5,58.5C 110.833,59.5 110.167,60.5 109.5,61.5C 109.5,59.8333 109.5,58.1667 109.5,56.5 Z M 113.5,72.5 C 113.5,72.8333 113.5,73.1667 113.5,73.5C 112.833,73.5 112.5,73.8333 112.5,74.5C 111.833,74.8333 111.167,75.1667 110.5,75.5C 110.5,74.5 110.5,73.5 110.5,72.5C 111.5,72.5 112.5,72.5 113.5,72.5 Z M 189.5,72.5 C 190.167,75.8333 190.833,79.1667 191.5,82.5C 190.241,85.5264 188.908,85.8597 187.5,83.5C 189.414,80.3157 190.08,76.649 189.5,72.5 Z M 217.5,79.5 C 217.768,81.099 217.434,82.4324 216.5,83.5C 215.209,83.7373 214.209,83.404 213.5,82.5C 215.43,82.2294 216.764,81.2294 217.5,79.5 Z M 118.5,89.5 C 118.5,89.1667 118.5,88.8333 118.5,88.5C 120.027,88.573 121.027,87.9063 121.5,86.5C 123.353,85.3857 123.853,86.0524 123,88.5C 121.644,89.3802 120.144,89.7135 118.5,89.5 Z M 101.5,87.5 C 102.167,87.8333 102.833,88.1667 103.5,88.5C 102.71,89.4013 101.71,90.0679 100.5,90.5C 100.5,89.8333 100.5,89.1667 100.5,88.5C 101.167,88.5 101.5,88.1667 101.5,87.5 Z M 192.5,98.5 C 194.828,102.42 196.161,106.754 196.5,111.5C 196.784,113.415 196.451,115.081 195.5,116.5C 193.884,111.368 192.55,106.034 191.5,100.5C 191.543,99.5836 191.876,98.9169 192.5,98.5 Z M 124.5,101.5 C 126.017,101.511 127.184,102.177 128,103.5C 129.199,115.14 130.032,126.807 130.5,138.5C 129.849,139.091 129.182,139.757 128.5,140.5C 127.83,138.709 127.163,137.042 126.5,135.5C 126.202,124.13 125.535,112.797 124.5,101.5 Z M 173.5,106.5 C 173.833,106.5 174.167,106.5 174.5,106.5C 178.05,114.73 179.716,123.397 179.5,132.5C 179.727,134.933 178.727,136.599 176.5,137.5C 176.216,127.085 175.216,116.751 173.5,106.5 Z M 160.5,110.5 C 157.495,110.253 154.995,111.253 153,113.5C 151.646,117.363 151.146,121.363 151.5,125.5C 150.504,125.586 149.671,125.252 149,124.5C 148.79,122.942 148.29,121.609 147.5,120.5C 146.784,115.61 148.117,111.444 151.5,108C 155.142,106.93 158.142,107.764 160.5,110.5 Z M 101.5,111.5 C 101.833,111.5 102.167,111.5 102.5,111.5C 103.234,112.708 103.567,114.041 103.5,115.5C 102.326,114.486 101.66,113.153 101.5,111.5 Z M 103.5,115.5 C 106.529,120.209 109.196,125.209 111.5,130.5C 111.5,131.167 111.5,131.833 111.5,132.5C 108.045,127.254 105.378,121.587 103.5,115.5 Z M 131.5,147.5 C 132.175,158.497 132.342,169.497 132,180.5C 128.432,183.31 125.266,182.977 122.5,179.5C 126.616,179.559 128.949,177.559 129.5,173.5C 128.575,163.857 127.909,154.19 127.5,144.5C 128.222,144.082 128.722,143.416 129,142.5C 129.374,144.491 130.207,146.158 131.5,147.5 Z M 149.5,142.5 C 150.609,142.557 151.609,142.89 152.5,143.5C 153.292,149.13 153.625,154.797 153.5,160.5C 153.672,161.492 153.338,162.158 152.5,162.5C 149.878,156.144 148.878,149.478 149.5,142.5 Z M 211.5,154.5 C 211.183,161.554 210.35,168.554 209,175.5C 205.421,178.373 202.255,178.04 199.5,174.5C 202.561,174.556 204.728,173.222 206,170.5C 206.748,165.519 207.248,160.519 207.5,155.5C 208.705,153.862 210.038,153.529 211.5,154.5 Z M 180.5,162.5 C 179.327,174.17 172.827,180.17 161,180.5C 156.439,180.251 152.606,178.584 149.5,175.5C 165.468,179.5 174.801,173.5 177.5,157.5C 178.496,157.586 179.329,157.252 180,156.5C 180.495,158.473 180.662,160.473 180.5,162.5 Z M 104.5,159.5 C 104.494,166.546 104.661,173.546 105,180.5C 104.057,182.954 102.224,183.954 99.5,183.5C 98.1667,183.333 96.8333,183.167 95.5,183C 94.7476,182.329 94.4142,181.496 94.5,180.5C 97.368,180.915 99.5347,179.915 101,177.5C 101.3,171.496 101.134,165.496 100.5,159.5C 101.458,159.047 102.292,158.381 103,157.5C 103.278,158.416 103.778,159.082 104.5,159.5 Z M 274.5,162.5 C 278.314,162.651 279.981,164.651 279.5,168.5C 278.461,170.531 276.795,171.864 274.5,172.5C 272.5,172.5 270.5,172.5 268.5,172.5C 268.366,170.708 268.699,169.042 269.5,167.5C 272.167,166.833 273.833,165.167 274.5,162.5 Z"/></g>
<g><path style="opacity:1" fill="#353535" d="M 267.5,47.5 C 269.053,67.46 270.386,87.46 271.5,107.5C 272.118,117.832 272.284,128.165 272,138.5C 269.1,142.116 265.266,143.449 260.5,142.5C 257.297,142.318 255.464,140.652 255,137.5C 252.299,106.875 250.632,76.2088 250,45.5C 250.903,44.2986 252.069,43.4652 253.5,43C 257.167,42.3333 260.833,42.3333 264.5,43C 266.141,44.129 267.141,45.629 267.5,47.5 Z"/></g>
<g><path style="opacity:0.999" fill="#3f3e3a" d="M 214.5,46.5 C 214.489,48.0174 213.823,49.1841 212.5,50C 209.854,50.4974 207.187,50.6641 204.5,50.5C 204.187,54.0419 204.521,57.3752 205.5,60.5C 207.857,60.3367 210.19,60.5034 212.5,61C 213.056,61.3826 213.389,61.8826 213.5,62.5C 213.67,63.8221 213.337,64.9887 212.5,66C 209.854,66.4974 207.187,66.6641 204.5,66.5C 203.931,70.3293 204.598,73.6627 206.5,76.5C 210.75,75.9188 214.416,76.9188 217.5,79.5C 216.764,81.2294 215.43,82.2294 213.5,82.5C 209.5,82.5 205.5,82.5 201.5,82.5C 200.883,82.3893 200.383,82.056 200,81.5C 199.133,69.5037 198.8,57.5037 199,45.5C 203.748,44.3651 208.581,44.1985 213.5,45C 214.056,45.3826 214.389,45.8826 214.5,46.5 Z"/></g>
<g><path style="opacity:1" fill="#3a3936" d="M 235.5,47.5 C 237.146,52.7064 236.813,57.7064 234.5,62.5C 234.855,63.5223 235.522,64.189 236.5,64.5C 237.338,64.8417 237.672,65.5084 237.5,66.5C 237.5,71.1667 237.5,75.8333 237.5,80.5C 236.5,80.5 235.5,80.5 234.5,80.5C 233.307,80.0296 232.64,79.0296 232.5,77.5C 232.099,73.9758 231.433,70.6424 230.5,67.5C 229.01,65.7202 227.01,65.0535 224.5,65.5C 224.782,70.5225 224.949,75.5225 225,80.5C 224.329,81.2524 223.496,81.5858 222.5,81.5C 221.504,81.5858 220.671,81.2524 220,80.5C 218.867,68.5148 218.534,56.5148 219,44.5C 223.079,43.3705 227.245,43.2039 231.5,44C 233.324,44.66 234.657,45.8267 235.5,47.5 Z"/></g>
<g><path style="opacity:0.999" fill="#3d3c39" d="M 194.5,47.5 C 194.771,49.3797 194.104,50.713 192.5,51.5C 191.167,51.5 189.833,51.5 188.5,51.5C 188.5,56.5 188.5,61.5 188.5,66.5C 188.517,68.5648 188.85,70.5648 189.5,72.5C 190.08,76.649 189.414,80.3157 187.5,83.5C 186.178,83.67 185.011,83.3366 184,82.5C 183.482,72.8301 182.982,63.1634 182.5,53.5C 181.082,51.6921 179.082,51.0254 176.5,51.5C 175.199,50.1155 175.199,48.6155 176.5,47C 181.184,46.6499 185.851,46.1499 190.5,45.5C 192.114,45.8029 193.448,46.4695 194.5,47.5 Z"/></g>
<g><path style="opacity:1" fill="#3e3d3a" d="M 173.5,52.5 C 174.167,54.8194 174.334,57.1527 174,59.5C 172.989,60.3366 171.822,60.67 170.5,60.5C 168.769,59.0145 167.769,57.0145 167.5,54.5C 162.507,52.319 160.673,53.9857 162,59.5C 162.278,60.4158 162.778,61.0825 163.5,61.5C 167.791,64.1231 171.457,67.4564 174.5,71.5C 176.84,80.8305 173.174,85.4972 163.5,85.5C 159.088,83.5414 156.755,80.0414 156.5,75C 156.767,71.8358 158.433,70.8358 161.5,72C 162.056,72.3826 162.389,72.8826 162.5,73.5C 162.12,75.698 162.787,77.3646 164.5,78.5C 169,80.1632 170.5,78.4965 169,73.5C 164.7,70.2019 160.7,66.5352 157,62.5C 153.678,54.4772 156.178,49.4772 164.5,47.5C 168.518,47.4929 171.518,49.1596 173.5,52.5 Z"/></g>
<g><path style="opacity:0.793" fill="#faf9f3" d="M 214.5,46.5 C 216.582,47.5849 216.916,49.0849 215.5,51C 212.242,51.2117 209.076,51.7117 206,52.5C 205.503,55.146 205.336,57.8127 205.5,60.5C 204.521,57.3752 204.187,54.0419 204.5,50.5C 207.187,50.6641 209.854,50.4974 212.5,50C 213.823,49.1841 214.489,48.0174 214.5,46.5 Z"/></g>
<g><path style="opacity:1" fill="#393938" d="M 151.5,50.5 C 152.266,62.158 152.933,73.8247 153.5,85.5C 152.167,85.5 150.833,85.5 149.5,85.5C 148.883,85.3893 148.383,85.056 148,84.5C 147.237,72.5084 146.737,60.5084 146.5,48.5C 148.698,48.1201 150.365,48.7868 151.5,50.5 Z"/></g>
<g><path style="opacity:0.626" fill="#fef9de" d="M 194.5,47.5 C 196.273,48.3143 196.773,49.6476 196,51.5C 194.211,53.229 192.044,53.8957 189.5,53.5C 190.5,52.8333 191.5,52.1667 192.5,51.5C 194.104,50.713 194.771,49.3797 194.5,47.5 Z"/></g>
<g><path style="opacity:1" fill="#3a3937" d="M 141.5,53.5 C 142.435,56.1128 142.602,58.7795 142,61.5C 141.329,62.2524 140.496,62.5858 139.5,62.5C 137.769,61.0145 136.769,59.0145 136.5,56.5C 134.46,53.8661 132.293,53.8661 130,56.5C 130.065,63.4832 130.398,70.4832 131,77.5C 131.232,78.7375 131.732,79.7375 132.5,80.5C 133.884,81.8009 135.384,81.8009 137,80.5C 137.497,78.1902 137.663,75.8568 137.5,73.5C 133.65,73.2993 132.65,71.4659 134.5,68C 137.167,67.3333 139.833,67.3333 142.5,68C 143.056,68.3826 143.389,68.8826 143.5,69.5C 143.879,74.2973 143.379,78.964 142,83.5C 138.673,86.1539 134.839,87.1539 130.5,86.5C 128.496,85.3272 126.996,83.6605 126,81.5C 124.953,72.5149 124.62,63.5149 125,54.5C 126.399,50.7623 129.066,49.0956 133,49.5C 136.764,49.1339 139.597,50.4673 141.5,53.5 Z"/></g>
<g><path style="opacity:0.999" fill="#f9f9f9" d="M 228.5,49.5 C 229.492,49.3284 230.158,49.6618 230.5,50.5C 228.833,50.5 227.167,50.5 225.5,50.5C 225.5,53.5 225.5,56.5 225.5,59.5C 225.167,59.5 224.833,59.5 224.5,59.5C 224.5,56.1667 224.5,52.8333 224.5,49.5C 225.833,49.5 227.167,49.5 228.5,49.5 Z"/></g>
<g><path style="opacity:0.999" fill="#3a3937" d="M 119.5,52.5 C 119.5,53.5 119.5,54.5 119.5,55.5C 115.958,55.1872 112.625,55.5206 109.5,56.5C 109.5,58.1667 109.5,59.8333 109.5,61.5C 109.077,63.7812 109.744,65.4479 111.5,66.5C 113.857,66.3367 116.19,66.5034 118.5,67C 119.056,67.3826 119.389,67.8826 119.5,68.5C 118.969,71.7794 116.969,73.1128 113.5,72.5C 112.5,72.5 111.5,72.5 110.5,72.5C 110.5,73.5 110.5,74.5 110.5,75.5C 109.99,78.3878 110.656,80.7211 112.5,82.5C 115.187,82.3359 117.854,82.5026 120.5,83C 121.337,84.0113 121.67,85.1779 121.5,86.5C 121.027,87.9063 120.027,88.573 118.5,88.5C 116.5,88.5 114.5,88.5 112.5,88.5C 111.5,88.5 110.5,88.5 109.5,88.5C 108.833,88.5 108.167,88.5 107.5,88.5C 106.883,88.3893 106.383,88.056 106,87.5C 105.35,76.1245 104.517,64.7911 103.5,53.5C 103.833,52.8333 104.167,52.1667 104.5,51.5C 107,51.1667 109.5,50.8333 112,50.5C 114.929,50.5248 117.429,51.1914 119.5,52.5 Z"/></g>
<g><path style="opacity:1" fill="#f5f3ea" d="M 151.5,50.5 C 152.117,50.6107 152.617,50.944 153,51.5C 153.875,61.8315 154.708,72.1648 155.5,82.5C 156.149,86.6874 154.482,88.1874 150.5,87C 149.944,86.6174 149.611,86.1174 149.5,85.5C 150.833,85.5 152.167,85.5 153.5,85.5C 152.933,73.8247 152.266,62.158 151.5,50.5 Z"/></g>
<g><path style="opacity:1" fill="#f1dc63" d="M 230.5,50.5 C 233,56.0256 231.333,59.0256 225.5,59.5C 225.5,56.5 225.5,53.5 225.5,50.5C 227.167,50.5 228.833,50.5 230.5,50.5 Z"/></g>
<g><path style="opacity:1" fill="#383836" d="M 99.5,55.5 C 101.11,60.6655 100.777,65.6655 98.5,70.5C 98.8555,71.5223 99.5222,72.189 100.5,72.5C 100.5,72.8333 100.5,73.1667 100.5,73.5C 101.383,78.1031 101.717,82.7697 101.5,87.5C 101.5,88.1667 101.167,88.5 100.5,88.5C 99.5,88.5 98.5,88.5 97.5,88.5C 96.2568,84.2144 95.2568,79.8811 94.5,75.5C 93.0101,73.7202 91.0101,73.0535 88.5,73.5C 88.3374,77.7071 88.6707,81.8737 89.5,86C 89.5765,88.7561 88.2431,89.9228 85.5,89.5C 84.8826,89.3893 84.3826,89.056 84,88.5C 83.1673,76.5115 82.6673,64.5115 82.5,52.5C 88.842,50.3827 94.5087,51.3827 99.5,55.5 Z"/></g>
<g><path style="opacity:1" fill="#d5d3c9" d="M 176.5,51.5 C 179.082,51.0254 181.082,51.6921 182.5,53.5C 179.99,53.9465 177.99,53.2798 176.5,51.5 Z"/></g>
<g><path style="opacity:1" fill="#9c9c9c" d="M 228.5,49.5 C 227.167,49.5 225.833,49.5 224.5,49.5C 224.5,52.8333 224.5,56.1667 224.5,59.5C 223.518,56.0381 223.185,52.3714 223.5,48.5C 225.415,48.2155 227.081,48.5489 228.5,49.5 Z"/></g>
<g><path style="opacity:1" fill="#f5f3eb" d="M 167.5,54.5 C 166.417,54.5394 165.417,54.8728 164.5,55.5C 163.534,57.396 163.201,59.396 163.5,61.5C 162.778,61.0825 162.278,60.4158 162,59.5C 160.673,53.9857 162.507,52.319 167.5,54.5 Z"/></g>
<g><path style="opacity:0.794" fill="#e7e6e2" d="M 119.5,52.5 C 121.256,53.5521 121.923,55.2188 121.5,57.5C 118.167,57.5 114.833,57.5 111.5,57.5C 111.158,56.6618 110.492,56.3284 109.5,56.5C 112.625,55.5206 115.958,55.1872 119.5,55.5C 119.5,54.5 119.5,53.5 119.5,52.5 Z"/></g>
<g><path style="opacity:1" fill="#faf7eb" d="M 141.5,53.5 C 142.117,53.6107 142.617,53.944 143,54.5C 144.124,57.4424 144.458,60.4424 144,63.5C 142.085,64.9156 140.585,64.5822 139.5,62.5C 140.496,62.5858 141.329,62.2524 142,61.5C 142.602,58.7795 142.435,56.1128 141.5,53.5 Z"/></g>
<g><path style="opacity:1" fill="#f5f4ee" d="M 173.5,52.5 C 174.222,52.9175 174.722,53.5842 175,54.5C 175.497,57.146 175.664,59.8127 175.5,62.5C 173.302,62.8799 171.635,62.2132 170.5,60.5C 171.822,60.67 172.989,60.3366 174,59.5C 174.334,57.1527 174.167,54.8194 173.5,52.5 Z"/></g>
<g><path style="opacity:1" fill="#efefee" d="M 93.5,58.5 C 92.1667,58.5 90.8333,58.5 89.5,58.5C 89.5,61.8333 89.5,65.1667 89.5,68.5C 88.0966,65.0915 87.4299,61.4248 87.5,57.5C 89.7354,57.2053 91.7354,57.5386 93.5,58.5 Z"/></g>
<g><path style="opacity:0.998" fill="#ebe9e3" d="M 99.5,55.5 C 103.07,60.8916 103.403,66.5583 100.5,72.5C 99.5222,72.189 98.8555,71.5223 98.5,70.5C 100.777,65.6655 101.11,60.6655 99.5,55.5 Z"/></g>
<g><path style="opacity:0.016" fill="#e8e8e8" d="M 111.5,58.5 C 111.5,61.1667 111.5,63.8333 111.5,66.5C 109.744,65.4479 109.077,63.7812 109.5,61.5C 110.167,60.5 110.833,59.5 111.5,58.5 Z"/></g>
<g><path style="opacity:1" fill="#eed960" d="M 93.5,58.5 C 96.9931,63.6567 95.6598,66.99 89.5,68.5C 89.5,65.1667 89.5,61.8333 89.5,58.5C 90.8333,58.5 92.1667,58.5 93.5,58.5 Z"/></g>
<g><path style="opacity:1" fill="#e3e3df" d="M 235.5,47.5 C 236.79,48.0577 237.623,49.0577 238,50.5C 238.966,55.3901 238.466,60.0568 236.5,64.5C 235.522,64.189 234.855,63.5223 234.5,62.5C 236.813,57.7064 237.146,52.7064 235.5,47.5 Z"/></g>
<g><path style="opacity:1" fill="#f2f1eb" d="M 136.5,56.5 C 134.549,56.2267 133.049,56.8934 132,58.5C 132.036,65.8189 132.203,73.1522 132.5,80.5C 131.732,79.7375 131.232,78.7375 131,77.5C 130.398,70.4832 130.065,63.4832 130,56.5C 132.293,53.8661 134.46,53.8661 136.5,56.5 Z"/></g>
<g><path style="opacity:0.014" fill="#f7f1d4" d="M 189.5,56.5 C 190.915,64.9613 191.581,73.628 191.5,82.5C 190.833,79.1667 190.167,75.8333 189.5,72.5C 188.85,70.5648 188.517,68.5648 188.5,66.5C 189.479,63.3752 189.813,60.0419 189.5,56.5 Z"/></g>
<g><path style="opacity:1" fill="#ededea" d="M 213.5,62.5 C 215.213,63.6354 215.88,65.302 215.5,67.5C 212.5,67.5 209.5,67.5 206.5,67.5C 206.5,70.5 206.5,73.5 206.5,76.5C 204.598,73.6627 203.931,70.3293 204.5,66.5C 207.187,66.6641 209.854,66.4974 212.5,66C 213.337,64.9887 213.67,63.8221 213.5,62.5 Z"/></g>
<g><path style="opacity:0.978" fill="#ebe9dd" d="M 230.5,67.5 C 229.167,67.5 227.833,67.5 226.5,67.5C 227.084,72.4993 227.251,77.4993 227,82.5C 224.955,84.0432 223.455,83.7099 222.5,81.5C 223.496,81.5858 224.329,81.2524 225,80.5C 224.949,75.5225 224.782,70.5225 224.5,65.5C 227.01,65.0535 229.01,65.7202 230.5,67.5 Z"/></g>
<g><path style="opacity:1" fill="#f8f7f1" d="M 237.5,66.5 C 238.222,66.9175 238.722,67.5842 239,68.5C 239.667,72.8333 239.667,77.1667 239,81.5C 236.955,83.0432 235.455,82.7099 234.5,80.5C 235.5,80.5 236.5,80.5 237.5,80.5C 237.5,75.8333 237.5,71.1667 237.5,66.5 Z"/></g>
<g><path style="opacity:0.073" fill="#f9f8f0" d="M 119.5,68.5 C 121.582,69.5849 121.916,71.0849 120.5,73C 118.19,73.4966 115.857,73.6633 113.5,73.5C 113.5,73.1667 113.5,72.8333 113.5,72.5C 116.969,73.1128 118.969,71.7794 119.5,68.5 Z"/></g>
<g><path style="opacity:1" fill="#edebe4" d="M 94.5,75.5 C 93.1667,75.5 91.8333,75.5 90.5,75.5C 90.5822,80.5444 90.7488,85.5444 91,90.5C 88.7655,91.9802 86.9321,91.6469 85.5,89.5C 88.2431,89.9228 89.5765,88.7561 89.5,86C 88.6707,81.8737 88.3374,77.7071 88.5,73.5C 91.0101,73.0535 93.0101,73.7202 94.5,75.5 Z"/></g>
<g><path style="opacity:1" fill="#f9f7eb" d="M 174.5,71.5 C 178.287,75.5105 178.454,79.8438 175,84.5C 171.216,86.6453 167.382,86.9787 163.5,85.5C 173.174,85.4972 176.84,80.8305 174.5,71.5 Z"/></g>
<g><path style="opacity:1" fill="#faf4d5" d="M 162.5,73.5 C 164.213,74.6354 164.88,76.302 164.5,78.5C 162.787,77.3646 162.12,75.698 162.5,73.5 Z"/></g>
<g><path style="opacity:0.031" fill="#f2f2ee" d="M 112.5,74.5 C 112.5,77.1667 112.5,79.8333 112.5,82.5C 110.656,80.7211 109.99,78.3878 110.5,75.5C 111.167,75.1667 111.833,74.8333 112.5,74.5 Z"/></g>
<g><path style="opacity:1" fill="#f3f2e9" d="M 143.5,69.5 C 144.117,69.6107 144.617,69.944 145,70.5C 145.985,75.6895 145.485,80.6895 143.5,85.5C 139.351,89.0628 135.017,89.3962 130.5,86.5C 134.839,87.1539 138.673,86.1539 142,83.5C 143.379,78.964 143.879,74.2973 143.5,69.5 Z"/></g>
<g><path style="opacity:1" fill="#f5f2e6" d="M 100.5,73.5 C 101.79,74.0577 102.623,75.0577 103,76.5C 103.499,80.4862 103.666,84.4862 103.5,88.5C 102.833,88.1667 102.167,87.8333 101.5,87.5C 101.717,82.7697 101.383,78.1031 100.5,73.5 Z"/></g>
<g><path style="opacity:0.11" fill="#f1eddc" d="M 201.5,82.5 C 205.5,82.5 209.5,82.5 213.5,82.5C 214.209,83.404 215.209,83.7373 216.5,83.5C 212.019,84.6484 207.352,84.8151 202.5,84C 201.944,83.6174 201.611,83.1174 201.5,82.5 Z"/></g>
<g><path style="opacity:0.004" fill="#dad8cf" d="M 97.5,88.5 C 98.5,88.5 99.5,88.5 100.5,88.5C 100.5,89.1667 100.5,89.8333 100.5,90.5C 98.9731,90.573 97.9731,89.9063 97.5,88.5 Z"/></g>
<g><path style="opacity:0.588" fill="#fbf4cd" d="M 107.5,88.5 C 108.167,88.5 108.833,88.5 109.5,88.5C 110.5,89.8333 111.5,89.8333 112.5,88.5C 114.5,88.5 116.5,88.5 118.5,88.5C 118.5,88.8333 118.5,89.1667 118.5,89.5C 115.36,90.6408 112.027,90.8075 108.5,90C 107.944,89.6174 107.611,89.1174 107.5,88.5 Z"/></g>
<g><path style="opacity:1" fill="#363535" d="M 236.5,93.5 C 234.657,119.227 232.157,144.894 229,170.5C 227.211,172.229 225.044,172.896 222.5,172.5C 220.589,172.426 219.422,171.426 219,169.5C 217.1,161.5 215.267,153.5 213.5,145.5C 212.146,140.902 210.979,136.236 210,131.5C 208.656,139.447 207.823,147.447 207.5,155.5C 207.248,160.519 206.748,165.519 206,170.5C 204.728,173.222 202.561,174.556 199.5,174.5C 197.629,174.141 196.129,173.141 195,171.5C 189.305,146.857 183.805,122.191 178.5,97.5C 179.128,94.216 181.128,92.8826 184.5,93.5C 188.207,93.546 190.873,95.2126 192.5,98.5C 191.876,98.9169 191.543,99.5836 191.5,100.5C 192.55,106.034 193.884,111.368 195.5,116.5C 195.624,121.289 196.458,125.955 198,130.5C 198.826,127.207 199.326,123.874 199.5,120.5C 200.175,111.768 201.342,103.101 203,94.5C 205.497,92.5218 208.331,92.0218 211.5,93C 212.823,93.8159 213.489,94.9826 213.5,96.5C 216.185,107.085 218.685,117.752 221,128.5C 222.337,124.974 222.837,121.308 222.5,117.5C 223.422,109.525 224.256,101.525 225,93.5C 228.953,89.5191 232.786,89.5191 236.5,93.5 Z M 192.5,98.5 C 194.828,102.42 196.161,106.754 196.5,111.5C 196.784,113.415 196.451,115.081 195.5,116.5C 193.884,111.368 192.55,106.034 191.5,100.5C 191.543,99.5836 191.876,98.9169 192.5,98.5 Z"/></g>
<g><path style="opacity:0.999" fill="#373736" d="M 171.5,103.5 C 171.932,104.71 172.599,105.71 173.5,106.5C 175.216,116.751 176.216,127.085 176.5,137.5C 176.713,144.174 177.046,150.841 177.5,157.5C 174.801,173.5 165.468,179.5 149.5,175.5C 142.704,171.511 138.871,165.511 138,157.5C 136.75,141.51 136.084,125.51 136,109.5C 137.736,102.763 141.903,98.2634 148.5,96C 157.99,93.4533 165.656,95.9533 171.5,103.5 Z M 160.5,110.5 C 157.495,110.253 154.995,111.253 153,113.5C 151.646,117.363 151.146,121.363 151.5,125.5C 150.504,125.586 149.671,125.252 149,124.5C 148.79,122.942 148.29,121.609 147.5,120.5C 146.784,115.61 148.117,111.444 151.5,108C 155.142,106.93 158.142,107.764 160.5,110.5 Z M 149.5,142.5 C 150.609,142.557 151.609,142.89 152.5,143.5C 153.292,149.13 153.625,154.797 153.5,160.5C 153.672,161.492 153.338,162.158 152.5,162.5C 149.878,156.144 148.878,149.478 149.5,142.5 Z"/></g>
<g><path style="opacity:0.968" fill="#f5f5f2" d="M 236.5,93.5 C 239.363,94.1979 241.029,96.0312 241.5,99C 238.698,123.79 236.198,148.624 234,173.5C 229.683,177.693 225.85,177.36 222.5,172.5C 225.044,172.896 227.211,172.229 229,170.5C 232.157,144.894 234.657,119.227 236.5,93.5 Z"/></g>
<g><path style="opacity:1" fill="#f5f4ef" d="M 213.5,96.5 C 214.822,96.33 215.989,96.6634 217,97.5C 218.662,104.363 220.496,111.03 222.5,117.5C 222.837,121.308 222.337,124.974 221,128.5C 218.685,117.752 216.185,107.085 213.5,96.5 Z"/></g>
<g><path style="opacity:0.999" fill="#373736" d="M 124.5,101.5 C 125.535,112.797 126.202,124.13 126.5,135.5C 126.264,138.609 126.597,141.609 127.5,144.5C 127.909,154.19 128.575,163.857 129.5,173.5C 128.949,177.559 126.616,179.559 122.5,179.5C 119.888,178.723 118.055,177.056 117,174.5C 112.709,164.923 108.209,155.589 103.5,146.5C 102.872,143.91 101.705,141.577 100,139.5C 99.6114,146.175 99.7781,152.841 100.5,159.5C 101.134,165.496 101.3,171.496 101,177.5C 99.5347,179.915 97.368,180.915 94.5,180.5C 90.333,180.154 88.4997,177.82 89,173.5C 87.3776,150.508 85.8776,127.508 84.5,104.5C 84.6535,100.683 86.6535,99.0165 90.5,99.5C 91.8333,99.6667 93.1667,99.8333 94.5,100C 95.1634,101.518 96.1634,102.685 97.5,103.5C 97.4021,105.553 98.0687,107.22 99.5,108.5C 99.5,108.833 99.5,109.167 99.5,109.5C 99.5,110.167 99.8333,110.5 100.5,110.5C 100.5,111.167 100.833,111.5 101.5,111.5C 101.66,113.153 102.326,114.486 103.5,115.5C 105.378,121.587 108.045,127.254 111.5,132.5C 111.5,133.167 111.5,133.833 111.5,134.5C 113.569,140.742 114.569,140.742 114.5,134.5C 114.815,130.629 114.482,126.962 113.5,123.5C 113.523,115.788 113.356,108.121 113,100.5C 114.296,98.1854 116.296,97.1854 119,97.5C 122.133,97.1419 123.967,98.4752 124.5,101.5 Z M 101.5,111.5 C 101.833,111.5 102.167,111.5 102.5,111.5C 103.234,112.708 103.567,114.041 103.5,115.5C 102.326,114.486 101.66,113.153 101.5,111.5 Z M 103.5,115.5 C 106.529,120.209 109.196,125.209 111.5,130.5C 111.5,131.167 111.5,131.833 111.5,132.5C 108.045,127.254 105.378,121.587 103.5,115.5 Z"/></g>
<g><path style="opacity:0.628" fill="#f2f2ef" d="M 97.5,103.5 C 99.2624,104.262 100.262,105.596 100.5,107.5C 99.8333,107.5 99.5,107.833 99.5,108.5C 98.0687,107.22 97.4021,105.553 97.5,103.5 Z"/></g>
<g><path style="opacity:0.067" fill="#efede0" d="M 171.5,103.5 C 173.144,103.81 174.144,104.81 174.5,106.5C 174.167,106.5 173.833,106.5 173.5,106.5C 172.599,105.71 171.932,104.71 171.5,103.5 Z"/></g>
<g><path style="opacity:0.94" fill="#fbfaf7" d="M 275.5,98.5 C 277.262,113.31 278.095,128.31 278,143.5C 275.859,146.321 273.025,147.654 269.5,147.5C 267.833,147.5 266.167,147.5 264.5,147.5C 262.445,146.441 261.111,144.775 260.5,142.5C 265.266,143.449 269.1,142.116 272,138.5C 272.284,128.165 272.118,117.832 271.5,107.5C 272.833,107.5 274.167,107.5 275.5,107.5C 275.5,104.5 275.5,101.5 275.5,98.5 Z"/></g>
<g><path style="opacity:0.027" fill="#f6f4eb" d="M 100.5,107.5 C 101.674,108.514 102.34,109.847 102.5,111.5C 102.167,111.5 101.833,111.5 101.5,111.5C 100.833,111.5 100.5,111.167 100.5,110.5C 99.8333,110.5 99.5,110.167 99.5,109.5C 100.338,109.158 100.672,108.492 100.5,107.5 Z"/></g>
<g><path style="opacity:1" fill="#f6e05c" d="M 160.5,110.5 C 162.109,113.149 162.943,116.149 163,119.5C 164.144,133.153 164.478,146.82 164,160.5C 161.633,164.303 158.466,165.303 154.5,163.5C 154.737,162.209 154.404,161.209 153.5,160.5C 153.625,154.797 153.292,149.13 152.5,143.5C 152.823,137.31 152.49,131.31 151.5,125.5C 151.146,121.363 151.646,117.363 153,113.5C 154.995,111.253 157.495,110.253 160.5,110.5 Z"/></g>
<g><path style="opacity:0.71" fill="#9d9d9d" d="M 337.5,109.5 C 337.5,111.167 337.5,112.833 337.5,114.5C 335.821,114.715 334.821,114.048 334.5,112.5C 335.117,112.611 335.617,112.944 336,113.5C 336.21,111.942 336.71,110.609 337.5,109.5 Z"/></g>
<g><path style="opacity:0.777" fill="#f4f3ec" d="M 196.5,111.5 C 197.626,114.465 198.626,117.465 199.5,120.5C 199.326,123.874 198.826,127.207 198,130.5C 196.458,125.955 195.624,121.289 195.5,116.5C 196.451,115.081 196.784,113.415 196.5,111.5 Z"/></g>
<g><path style="opacity:0.801" fill="#f9f8f2" d="M 147.5,120.5 C 148.29,121.609 148.79,122.942 149,124.5C 149.671,125.252 150.504,125.586 151.5,125.5C 152.49,131.31 152.823,137.31 152.5,143.5C 151.609,142.89 150.609,142.557 149.5,142.5C 148.723,135.181 148.057,127.847 147.5,120.5 Z"/></g>
<g><path style="opacity:1" fill="#e5d480" d="M 113.5,123.5 C 114.482,126.962 114.815,130.629 114.5,134.5C 114.167,134.5 113.833,134.5 113.5,134.5C 113.167,134.5 112.833,134.5 112.5,134.5C 112.672,133.508 112.338,132.842 111.5,132.5C 111.5,131.833 111.5,131.167 111.5,130.5C 112.117,130.611 112.617,130.944 113,131.5C 113.497,128.854 113.664,126.187 113.5,123.5 Z"/></g>
<g><path style="opacity:0.063" fill="#e9e8e2" d="M 111.5,134.5 C 111.833,134.5 112.167,134.5 112.5,134.5C 112.833,135.833 113.167,135.833 113.5,134.5C 113.833,134.5 114.167,134.5 114.5,134.5C 114.569,140.742 113.569,140.742 111.5,134.5 Z"/></g>
<g><path style="opacity:0.844" fill="#fbfaf3" d="M 179.5,132.5 C 180.415,140.158 181.082,147.992 181.5,156C 181.496,158.361 181.163,160.527 180.5,162.5C 180.662,160.473 180.495,158.473 180,156.5C 179.329,157.252 178.496,157.586 177.5,157.5C 177.046,150.841 176.713,144.174 176.5,137.5C 178.727,136.599 179.727,134.933 179.5,132.5 Z"/></g>
<g><path style="opacity:0.909" fill="#ebebeb" d="M 213.5,145.5 C 212.525,148.311 211.858,151.311 211.5,154.5C 210.038,153.529 208.705,153.862 207.5,155.5C 207.823,147.447 208.656,139.447 210,131.5C 210.979,136.236 212.146,140.902 213.5,145.5 Z"/></g>
<g><path style="opacity:0.916" fill="#f9f9f7" d="M 103.5,146.5 C 103.372,150.881 103.705,155.215 104.5,159.5C 103.778,159.082 103.278,158.416 103,157.5C 102.292,158.381 101.458,159.047 100.5,159.5C 99.7781,152.841 99.6114,146.175 100,139.5C 101.705,141.577 102.872,143.91 103.5,146.5 Z"/></g>
<g><path style="opacity:0.075" fill="#e9e6d6" d="M 126.5,135.5 C 127.163,137.042 127.83,138.709 128.5,140.5C 129.182,139.757 129.849,139.091 130.5,138.5C 131.403,141.391 131.736,144.391 131.5,147.5C 130.207,146.158 129.374,144.491 129,142.5C 128.722,143.416 128.222,144.082 127.5,144.5C 126.597,141.609 126.264,138.609 126.5,135.5 Z"/></g>
<g><path style="opacity:1" fill="#373735" d="M 264.5,147.5 C 266.167,147.5 267.833,147.5 269.5,147.5C 271.5,148.833 273.167,150.5 274.5,152.5C 274.5,155.833 274.5,159.167 274.5,162.5C 273.833,165.167 272.167,166.833 269.5,167.5C 266.833,167.5 264.167,167.5 261.5,167.5C 259.418,167.376 257.918,166.376 257,164.5C 254.345,158.361 255.178,152.861 259.5,148C 261.134,147.506 262.801,147.34 264.5,147.5 Z"/></g>
<g><path style="opacity:0.879" fill="#fefcf1" d="M 274.5,152.5 C 277.541,153.375 279.375,155.375 280,158.5C 280.808,162.027 280.641,165.36 279.5,168.5C 279.981,164.651 278.314,162.651 274.5,162.5C 274.5,159.167 274.5,155.833 274.5,152.5 Z"/></g>
<g><path style="opacity:0.667" fill="#ebe9e4" d="M 153.5,160.5 C 154.404,161.209 154.737,162.209 154.5,163.5C 153.508,163.672 152.842,163.338 152.5,162.5C 153.338,162.158 153.672,161.492 153.5,160.5 Z"/></g>
<g><path style="opacity:0.714" fill="#f2efe3" d="M 261.5,167.5 C 264.167,167.5 266.833,167.5 269.5,167.5C 268.699,169.042 268.366,170.708 268.5,172.5C 270.5,172.5 272.5,172.5 274.5,172.5C 268.647,174.887 264.313,173.221 261.5,167.5 Z"/></g>
<g><path style="opacity:0.004" fill="#d9d9d9" d="M 77.5,205.5 C 75.901,205.232 74.5676,205.566 73.5,206.5C 71.9153,205.998 71.4153,204.998 72,203.5C 73.9483,204.109 75.7816,204.776 77.5,205.5 Z"/></g>
<g><path style="opacity:1" fill="#fbfbfb" d="M 107.5,204.5 C 110.572,204.183 113.572,204.516 116.5,205.5C 121.652,211.152 126.985,216.652 132.5,222C 127.833,222.667 123.167,222.667 118.5,222C 113.167,216.667 107.833,211.333 102.5,206C 104.382,205.802 106.048,205.302 107.5,204.5 Z"/></g>
<g><path style="opacity:1" fill="#f8f8f8" d="M 237.5,207.5 C 237.917,206.876 238.584,206.543 239.5,206.5C 244.077,207.822 248.744,208.656 253.5,209C 258.833,214.333 264.167,219.667 269.5,225C 264.162,224.833 258.829,224.166 253.5,223C 248.298,217.63 242.965,212.464 237.5,207.5 Z"/></g>
<g><path style="opacity:0.835" fill="#fcfcfc" d="M 273.5,210.5 C 272.772,212.735 271.439,214.568 269.5,216C 272.625,218.034 275.625,217.868 278.5,215.5C 282.298,218.796 285.964,222.296 289.5,226C 284.833,226.667 280.167,226.667 275.5,226C 270.167,220.667 264.833,215.333 259.5,210C 264.352,209.185 269.019,209.352 273.5,210.5 Z"/></g>
<g><path style="opacity:0.441" fill="#eeeeee" d="M 219.5,213.5 C 216.806,215.527 214.473,217.861 212.5,220.5C 210.915,219.998 210.415,218.998 211,217.5C 213.016,215.316 215.183,213.316 217.5,211.5C 218.522,211.855 219.189,212.522 219.5,213.5 Z"/></g>
<g><path style="opacity:0.84" fill="#f9f9f9" d="M 103.5,212.5 C 107.298,215.796 110.964,219.296 114.5,223C 110.5,223.667 106.5,223.667 102.5,223C 100.119,222.777 98.4525,221.61 97.5,219.5C 99.9448,217.596 101.945,215.262 103.5,212.5 Z"/></g>
<g><path style="opacity:1" fill="#e9e9e9" d="M 122.5,207.5 C 122.897,206.475 123.563,206.308 124.5,207C 131.167,212.333 137.833,217.667 144.5,223C 142.212,222.947 139.879,222.614 137.5,222C 132.631,216.963 127.631,212.13 122.5,207.5 Z"/></g>
<g><path style="opacity:0.86" fill="#f2f2f1" d="M 238.5,213.5 C 241.631,216.129 244.631,218.962 247.5,222C 245.5,222.333 243.5,222.667 241.5,223C 240.315,224.353 238.981,225.52 237.5,226.5C 233.502,222.51 229.502,218.51 225.5,214.5C 227.552,215.71 229.718,216.71 232,217.5C 234.924,217.293 237.09,215.96 238.5,213.5 Z"/></g>
<g><path style="opacity:0.355" fill="#efefef" d="M 233.5,227.5 C 234.478,227.811 235.145,228.478 235.5,229.5C 233.144,232.022 230.977,234.688 229,237.5C 227.624,236.295 226.458,234.962 225.5,233.5C 227.026,232.895 228.026,231.729 228.5,230C 229.766,229.691 230.933,229.191 232,228.5C 233.107,229.712 233.607,229.379 233.5,227.5 Z"/></g>
<g><path style="opacity:1" fill="#a5a5a5" d="M 163.5,236.5 C 163.5,236.833 163.5,237.167 163.5,237.5C 161.862,236.343 160.196,235.176 158.5,234C 160.668,233.751 162.335,234.584 163.5,236.5 Z"/></g>
</svg>
