<?xml version="1.0" encoding="UTF-8"?>
<!DOCTYPE svg PUBLIC "-//W3C//DTD SVG 1.1//EN" "http://www.w3.org/Graphics/SVG/1.1/DTD/svg11.dtd">
<svg xmlns="http://www.w3.org/2000/svg" version="1.1" width="64px" height="64px" style="shape-rendering:geometricPrecision; text-rendering:geometricPrecision; image-rendering:optimizeQuality; fill-rule:evenodd; clip-rule:evenodd" xmlns:xlink="http://www.w3.org/1999/xlink">
<g><path style="opacity:0.714" fill="#443830" d="M 46.5,53.5 C 48.5616,55.5639 50.895,57.2305 53.5,58.5C 56.1667,57.8333 57.8333,56.1667 58.5,53.5C 56.0929,49.5852 53.0929,46.0852 49.5,43C 47.8659,42.5065 46.1992,42.3398 44.5,42.5C 43.4566,39.9438 41.7899,37.7772 39.5,36C 47.178,22.0353 43.8447,11.702 29.5,5C 17.9852,2.67383 9.81853,6.8405 5,17.5C 2.27095,29.877 6.77095,38.377 18.5,43C 24.8105,44.1299 30.6438,42.9633 36,39.5C 37.7772,41.7899 39.9438,43.4566 42.5,44.5C 42.2872,47.4509 42.9539,50.1175 44.5,52.5C 42.0263,48.4732 39.0263,44.8065 35.5,41.5C 18.9218,48.7035 8.08842,43.7035 3,26.5C 2.56287,12.0613 9.56287,4.06134 24,2.5C 43.1655,6.83006 49.1655,18.1634 42,36.5C 49.5706,40.5678 55.7373,46.2345 60.5,53.5C 55.7538,62.7803 51.0871,62.7803 46.5,53.5 Z"/></g>
<g><path style="opacity:1" fill="#7c7067" d="M 44.5,42.5 C 44.1667,43.5 43.5,44.1667 42.5,44.5C 39.9438,43.4566 37.7772,41.7899 36,39.5C 30.6438,42.9633 24.8105,44.1299 18.5,43C 6.77095,38.377 2.27095,29.877 5,17.5C 9.81853,6.8405 17.9852,2.67383 29.5,5C 43.8447,11.702 47.178,22.0353 39.5,36C 41.7899,37.7772 43.4566,39.9438 44.5,42.5 Z"/></g>
<g><path style="opacity:1" fill="#d2da55" d="M 21.5,25.5 C 23.1667,26.8333 24.8333,26.8333 26.5,25.5C 27.9305,25.4208 29.2638,25.7542 30.5,26.5C 31.1667,25.5 31.8333,24.5 32.5,23.5C 33.4841,26.4281 33.8174,29.4281 33.5,32.5C 29.1667,32.5 24.8333,32.5 20.5,32.5C 18.5,32.5 16.5,32.5 14.5,32.5C 14.1826,29.4281 14.5159,26.4281 15.5,23.5C 16.1667,24.5 16.8333,25.5 17.5,26.5C 18.7362,25.7542 20.0695,25.4208 21.5,25.5 Z"/></g>
<g><path style="opacity:1" fill="#775042" d="M 26.5,25.5 C 24.8333,26.8333 23.1667,26.8333 21.5,25.5C 22.7498,25.4226 23.5831,24.756 24,23.5C 24.4169,24.756 25.2502,25.4226 26.5,25.5 Z"/></g>
<g><path style="opacity:1" fill="#5d5c4d" d="M 14.5,18.5 C 14.1052,21.5225 15.1052,22.5225 17.5,21.5C 18.3857,22.325 18.719,23.325 18.5,24.5C 19.791,24.2627 20.791,24.596 21.5,25.5C 20.0695,25.4208 18.7362,25.7542 17.5,26.5C 16.8333,25.5 16.1667,24.5 15.5,23.5C 14.5159,26.4281 14.1826,29.4281 14.5,32.5C 13.1667,27.8333 13.1667,23.1667 14.5,18.5 Z"/></g>
<g><path style="opacity:1" fill="#e56874" d="M 14.5,18.5 C 20.5092,18.3338 26.5092,18.5005 32.5,19C 33.731,20.1827 33.731,21.3493 32.5,22.5C 31.2638,21.7542 29.9305,21.4208 28.5,21.5C 28.4729,23.1993 27.8062,24.5326 26.5,25.5C 25.2502,25.4226 24.4169,24.756 24,23.5C 23.5831,24.756 22.7498,25.4226 21.5,25.5C 20.791,24.596 19.791,24.2627 18.5,24.5C 18.719,23.325 18.3857,22.325 17.5,21.5C 15.1052,22.5225 14.1052,21.5225 14.5,18.5 Z"/></g>
<g><path style="opacity:1" fill="#5d5751" d="M 33.5,17.5 C 34.7999,22.5999 34.7999,27.5999 33.5,32.5C 33.8174,29.4281 33.4841,26.4281 32.5,23.5C 31.8333,24.5 31.1667,25.5 30.5,26.5C 29.2638,25.7542 27.9305,25.4208 26.5,25.5C 27.8062,24.5326 28.4729,23.1993 28.5,21.5C 29.9305,21.4208 31.2638,21.7542 32.5,22.5C 33.731,21.3493 33.731,20.1827 32.5,19C 26.5092,18.5005 20.5092,18.3338 14.5,18.5C 15.9187,17.5489 17.5853,17.2155 19.5,17.5C 19.5,16.5 19.5,15.5 19.5,14.5C 22.5,14.5 25.5,14.5 28.5,14.5C 28.5,15.5 28.5,16.5 28.5,17.5C 30.1667,17.5 31.8333,17.5 33.5,17.5 Z"/></g>
<g><path style="opacity:1" fill="#6c9fb2" d="M 20.5,9.5 C 31.1538,7.77356 37.4871,12.4402 39.5,23.5C 38.2765,34.0817 32.6098,39.0817 22.5,38.5C 26.0244,38.0711 29.0244,36.5711 31.5,34C 27.6437,33.8227 23.977,33.3227 20.5,32.5C 24.8333,32.5 29.1667,32.5 33.5,32.5C 34.7999,27.5999 34.7999,22.5999 33.5,17.5C 31.23,11.576 26.8967,8.90932 20.5,9.5 Z"/></g>
<g><path style="opacity:1" fill="#87c1d6" d="M 20.5,9.5 C 26.8967,8.90932 31.23,11.576 33.5,17.5C 31.8333,17.5 30.1667,17.5 28.5,17.5C 28.5,16.5 28.5,15.5 28.5,14.5C 25.5,14.5 22.5,14.5 19.5,14.5C 19.5,15.5 19.5,16.5 19.5,17.5C 17.5853,17.2155 15.9187,17.5489 14.5,18.5C 13.1667,23.1667 13.1667,27.8333 14.5,32.5C 16.5,32.5 18.5,32.5 20.5,32.5C 23.977,33.3227 27.6437,33.8227 31.5,34C 29.0244,36.5711 26.0244,38.0711 22.5,38.5C 13.7706,37.4338 9.10397,32.4338 8.5,23.5C 9.32352,16.016 13.3235,11.3493 20.5,9.5 Z"/></g>
<g><path style="opacity:0.994" fill="#e76975" d="M 44.5,42.5 C 46.1992,42.3398 47.8659,42.5065 49.5,43C 53.0929,46.0852 56.0929,49.5852 58.5,53.5C 57.8333,56.1667 56.1667,57.8333 53.5,58.5C 50.895,57.2305 48.5616,55.5639 46.5,53.5C 45.8333,53.1667 45.1667,52.8333 44.5,52.5C 42.9539,50.1175 42.2872,47.4509 42.5,44.5C 43.5,44.1667 44.1667,43.5 44.5,42.5 Z"/></g>
<g><path style="opacity:0.965" fill="#3e3829" d="M 34.5,51.5 C 33.8333,51.5 33.1667,51.5 32.5,51.5C 31.8333,48.8333 31.1667,48.8333 30.5,51.5C 29.6236,51.6309 28.9569,51.2975 28.5,50.5C 31.048,45.3155 33.048,45.6488 34.5,51.5 Z"/></g>
<g><path style="opacity:0.929" fill="#82813f" d="M 32.5,51.5 C 31.8333,51.5 31.1667,51.5 30.5,51.5C 31.1667,48.8333 31.8333,48.8333 32.5,51.5 Z"/></g>
<g><path style="opacity:0.886" fill="#48402e" d="M 30.5,51.5 C 31.1667,51.5 31.8333,51.5 32.5,51.5C 33.1667,52.8333 33.8333,52.8333 34.5,51.5C 35.4584,51.0472 36.2917,50.3805 37,49.5C 38.3513,51.019 39.8513,52.3523 41.5,53.5C 39.8333,54.8333 38.1667,56.1667 36.5,57.5C 35.8076,56.9747 35.3076,56.3081 35,55.5C 33.1515,61.2917 30.9848,61.625 28.5,56.5C 30.0049,55.1585 30.6715,53.4918 30.5,51.5 Z"/></g>
<g><path style="opacity:1" fill="#bcc250" d="M 36.5,51.5 C 38.8519,52.5426 39.0185,53.8759 37,55.5C 35.2317,54.3181 35.0651,52.9848 36.5,51.5 Z"/></g>
</svg>
